SplineFontDB: 3.2
FontName: UnicodiaFunky
FullName: UnicodiaFunky
FamilyName: UnicodiaFunky
Weight: Regular
Copyright: Copyright (c) 2021 Mikhail Merkuryev\nYou just DO WHAT THE FUNK YOU WANT TO.
UComments: "2021-9-15: Created with FontForge (http://fontforge.org)+AAoACgAA-Auto-kerning: separation 210, min.kerning 30"
Version: 001.000
ItalicAngle: 0
UnderlinePosition: -125
UnderlineWidth: 50
Ascent: 800
Descent: 200
InvalidEm: 0
LayerCount: 2
Layer: 0 1 "+BBcEMAQ0BD0EOAQ5 +BD8EOwQwBD0A" 1
Layer: 1 1 "+BB8ENQRABDUENAQ9BDgEOQAA +BD8EOwQwBD0A" 0
XUID: [1021 59 1751208496 15025]
FSType: 0
OS2Version: 0
OS2_WeightWidthSlopeOnly: 0
OS2_UseTypoMetrics: 1
CreationTime: 1631732133
ModificationTime: 1689465278
PfmFamily: 33
TTFWeight: 400
TTFWidth: 5
LineGap: 0
VLineGap: 0
OS2TypoAscent: 1069
OS2TypoAOffset: 0
OS2TypoDescent: -293
OS2TypoDOffset: 0
OS2TypoLinegap: 0
OS2WinAscent: 1069
OS2WinAOffset: 0
OS2WinDescent: 389
OS2WinDOffset: 0
HheadAscent: 1069
HheadAOffset: 0
HheadDescent: -293
HheadDOffset: 0
OS2CapHeight: 714
OS2XHeight: 536
OS2Vendor: 'Merc'
OS2CodePages: 00000007.00000000
OS2UnicodeRanges: a8200241.9200a086.01000008.00000000
Lookup: 4 0 1 "Nagm RLIG" { "Nagm RLIG-1"  } ['rlig' ('DFLT' <'dflt' > 'nagm' <'dflt' > ) ]
Lookup: 4 0 1 "Umlaut RLIG" { "Umlaut RLIG-1"  "GothRLIG"  } ['rlig' ('DFLT' <'dflt' > 'GOTH' <'goth' > ) ]
Lookup: 4 0 1 "Hang RLIG" { "Hang RLIG-1"  } ['rlig' ('DFLT' <'dflt' > 'hang' <'dflt' > 'hira' <'dflt' > 'kana' <'dflt' > ) ]
Lookup: 4 0 1 "Egyp RLIG" { "Egyp RLIG-1"  } ['rlig' ('DFLT' <'dflt' > 'egyp' <'dflt' > ) ]
Lookup: 260 0 0 "Nagm tilde" { "Nagm tilde-1"  } ['abvm' ('DFLT' <'dflt' > 'nagm' <'dflt' > ) ]
Lookup: 258 0 0 "Nagm KERN" { "Nagm KERN-1" [210,30,2] } ['kern' ('DFLT' <'dflt' > 'nagm' <'dflt' > ) ]
Lookup: 260 0 0 "Nagm TR dot" { "Nagm TR dot-1"  } ['abvm' ('DFLT' <'dflt' > 'nagm' <'dflt' > ) ]
Lookup: 260 0 0 "Nagm below" { "Nagm below-1"  } ['blwm' ('DFLT' <'dflt' > 'nagm' <'dflt' > ) ]

StartChar: SmallCircle
Encoding: 565 -1 0
Width: 0
HStem: -39.9922 79.9844<-27.9172 27.9172>
VStem: -39.9922 79.9844<-27.9172 27.9172>
LayerCount: 2
Fore
SplineSet
-39.9921875 -0 m 132,-1,1
 -39.9921875 16.5776366577 -39.9921875 16.5776366577 -28.2841796875 28.2841796875 c 128,-1,2
 -16.5776366577 39.9921875 -16.5776366577 39.9921875 0 39.9921875 c 128,-1,3
 16.5776366577 39.9921875 16.5776366577 39.9921875 28.2841796875 28.2841796875 c 128,-1,4
 39.9921875 16.5776366577 39.9921875 16.5776366577 39.9921875 0 c 128,-1,5
 39.9921875 -16.5776366577 39.9921875 -16.5776366577 28.2841796875 -28.2841796875 c 128,-1,6
 16.5776366577 -39.9921875 16.5776366577 -39.9921875 0 -39.9921875 c 128,-1,7
 -16.5776366577 -39.9921875 -16.5776366577 -39.9921875 -28.2841796875 -28.2841796875 c 128,-1,0
 -39.9921875 -16.5776366577 -39.9921875 -16.5776366577 -39.9921875 -0 c 132,-1,1
EndSplineSet
Validated: 3073
EndChar

StartChar: uni25CC
Encoding: 85 9676 1
Width: 594
Flags: W
HStem: 42 52<271.383 315.265> 60 52<187.383 231.265 355.383 399.265> 107 52<113.383 157.265 429.383 473.265> 181 52<66.3828 110.265 476.383 520.265> 265 52<48.3828 92.2648 494.383 538.265> 349 52<66.3828 110.265 476.383 520.265> 423 52<113.383 157.265 429.383 473.265> 470 52<187.383 231.265 355.383 399.265> 488 52<271.383 315.265>
VStem: 48 52<265.383 309.265> 66 52<181.383 225.265 349.383 393.265> 113 52<107.383 151.265 423.383 467.265> 187 52<60.3828 104.265 470.383 514.265> 271 52<42.3828 86.2648 488.383 532.265> 355 52<60.3828 104.265 470.383 514.265> 429 52<107.383 151.265 423.383 467.265> 476 52<181.383 225.265 349.383 393.265> 494 52<265.383 309.265>
LayerCount: 2
Fore
SplineSet
297 488 m 0,0,1
 286.9995 488 286.9995 488 279 496 c 128,-1,2
 271.0005 503.9995 271.0005 503.9995 271 514 c 0,3,4
 271 524.9995 271 524.9995 279 532.5 c 128,-1,5
 286.9995 540 286.9995 540 297 540 c 0,6,7
 307.9995 540 307.9995 540 315.5 532.5 c 128,-1,8
 323 525 323 525 323 514 c 0,9,10
 323 503.9995 323 503.9995 315.5 496 c 128,-1,11
 308 488.0005 308 488.0005 297 488 c 0,0,1
213 470 m 0,12,13
 202.9995 470 202.9995 470 195 478 c 128,-1,14
 187.0005 485.9995 187.0005 485.9995 187 496 c 0,15,16
 187 506.9995 187 506.9995 195 514.5 c 128,-1,17
 202.9995 522 202.9995 522 213 522 c 0,18,19
 223.9995 522 223.9995 522 231.5 514.5 c 128,-1,20
 239 507 239 507 239 496 c 0,21,22
 239 485.9995 239 485.9995 231.5 478 c 128,-1,23
 224 470.0005 224 470.0005 213 470 c 0,12,13
381 470 m 0,24,25
 370.9995 470 370.9995 470 363 478 c 128,-1,26
 355.0005 485.9995 355.0005 485.9995 355 496 c 0,27,28
 355 506.9995 355 506.9995 363 514.5 c 128,-1,29
 370.9995 522 370.9995 522 381 522 c 0,30,31
 391.9995 522 391.9995 522 399.5 514.5 c 128,-1,32
 407 507 407 507 407 496 c 0,33,34
 407 485.9995 407 485.9995 399.5 478 c 128,-1,35
 392 470.0005 392 470.0005 381 470 c 0,24,25
455 423 m 0,36,37
 444.9995 423 444.9995 423 437 431 c 128,-1,38
 429.0005 438.9995 429.0005 438.9995 429 449 c 0,39,40
 429 459.9995 429 459.9995 437 467.5 c 128,-1,41
 444.9995 475 444.9995 475 455 475 c 0,42,43
 465.9995 475 465.9995 475 473.5 467.5 c 128,-1,44
 481 460 481 460 481 449 c 0,45,46
 481 438.9995 481 438.9995 473.5 431 c 128,-1,47
 466 423.0005 466 423.0005 455 423 c 0,36,37
139 423 m 0,48,49
 128.9995 423 128.9995 423 121 431 c 128,-1,50
 113.0005 438.9995 113.0005 438.9995 113 449 c 0,51,52
 113 459.9995 113 459.9995 121 467.5 c 128,-1,53
 128.9995 475 128.9995 475 139 475 c 0,54,55
 149.9995 475 149.9995 475 157.5 467.5 c 128,-1,56
 165 460 165 460 165 449 c 0,57,58
 165 438.9995 165 438.9995 157.5 431 c 128,-1,59
 150 423.0005 150 423.0005 139 423 c 0,48,49
92 349 m 0,60,61
 81.99995 349 81.99995 349 74 357 c 128,-1,62
 66.00005 364.9995 66.00005 364.9995 66 375 c 0,63,64
 66 385.9995 66 385.9995 74 393.5 c 128,-1,65
 81.99995 401 81.99995 401 92 401 c 0,66,67
 102.99995 401 102.99995 401 110.5 393.5 c 128,-1,68
 118 386 118 386 118 375 c 0,69,70
 118 364.9995 118 364.9995 110.5 357 c 128,-1,71
 103 349.0005 103 349.0005 92 349 c 0,60,61
502 349 m 0,72,73
 491.9995 349 491.9995 349 484 357 c 128,-1,74
 476.0005 364.9995 476.0005 364.9995 476 375 c 0,75,76
 476 385.9995 476 385.9995 484 393.5 c 128,-1,77
 491.9995 401 491.9995 401 502 401 c 0,78,79
 512.9995 401 512.9995 401 520.5 393.5 c 128,-1,80
 528 386 528 386 528 375 c 0,81,82
 528 364.9995 528 364.9995 520.5 357 c 128,-1,83
 513 349.0005 513 349.0005 502 349 c 0,72,73
74 265 m 0,84,85
 63.99995 265 63.99995 265 56 273 c 128,-1,86
 48.00005 280.9995 48.00005 280.9995 48 291 c 0,87,88
 48 301.9995 48 301.9995 56 309.5 c 128,-1,89
 63.99995 317 63.99995 317 74 317 c 0,90,91
 84.99995 317 84.99995 317 92.5 309.5 c 128,-1,92
 100 302 100 302 100 291 c 0,93,94
 100 280.9995 100 280.9995 92.5 273 c 128,-1,95
 85 265.0005 85 265.0005 74 265 c 0,84,85
520 265 m 0,96,97
 509.9995 265 509.9995 265 502 273 c 128,-1,98
 494.0005 280.9995 494.0005 280.9995 494 291 c 0,99,100
 494 301.9995 494 301.9995 502 309.5 c 128,-1,101
 509.9995 317 509.9995 317 520 317 c 0,102,103
 530.9995 317 530.9995 317 538.5 309.5 c 128,-1,104
 546 302 546 302 546 291 c 0,105,106
 546 280.9995 546 280.9995 538.5 273 c 128,-1,107
 531 265.0005 531 265.0005 520 265 c 0,96,97
92 181 m 0,108,109
 81.99995 181 81.99995 181 74 189 c 128,-1,110
 66.00005 196.9995 66.00005 196.9995 66 207 c 0,111,112
 66 217.9995 66 217.9995 74 225.5 c 128,-1,113
 81.99995 233 81.99995 233 92 233 c 0,114,115
 102.99995 233 102.99995 233 110.5 225.5 c 128,-1,116
 118 218 118 218 118 207 c 0,117,118
 118 196.9995 118 196.9995 110.5 189 c 128,-1,119
 103 181.0005 103 181.0005 92 181 c 0,108,109
502 181 m 0,120,121
 491.9995 181 491.9995 181 484 189 c 128,-1,122
 476.0005 196.9995 476.0005 196.9995 476 207 c 0,123,124
 476 217.9995 476 217.9995 484 225.5 c 128,-1,125
 491.9995 233 491.9995 233 502 233 c 0,126,127
 512.9995 233 512.9995 233 520.5 225.5 c 128,-1,128
 528 218 528 218 528 207 c 0,129,130
 528 196.9995 528 196.9995 520.5 189 c 128,-1,131
 513 181.0005 513 181.0005 502 181 c 0,120,121
139 107 m 0,132,133
 128.9995 107 128.9995 107 121 115 c 128,-1,134
 113.0005 122.9995 113.0005 122.9995 113 133 c 0,135,136
 113 143.9995 113 143.9995 121 151.5 c 128,-1,137
 128.9995 159 128.9995 159 139 159 c 0,138,139
 149.9995 159 149.9995 159 157.5 151.5 c 128,-1,140
 165 144 165 144 165 133 c 0,141,142
 165 122.9995 165 122.9995 157.5 115 c 128,-1,143
 150 107.0005 150 107.0005 139 107 c 0,132,133
455 107 m 0,144,145
 444.9995 107 444.9995 107 437 115 c 128,-1,146
 429.0005 122.9995 429.0005 122.9995 429 133 c 0,147,148
 429 143.9995 429 143.9995 437 151.5 c 128,-1,149
 444.9995 159 444.9995 159 455 159 c 0,150,151
 465.9995 159 465.9995 159 473.5 151.5 c 128,-1,152
 481 144 481 144 481 133 c 0,153,154
 481 122.9995 481 122.9995 473.5 115 c 128,-1,155
 466 107.0005 466 107.0005 455 107 c 0,144,145
213 60 m 0,156,157
 202.9995 60 202.9995 60 195 68 c 128,-1,158
 187.0005 75.99995 187.0005 75.99995 187 86 c 0,159,160
 187 96.99995 187 96.99995 195 104.5 c 128,-1,161
 202.9995 112 202.9995 112 213 112 c 0,162,163
 223.9995 112 223.9995 112 231.5 104.5 c 128,-1,164
 239 97 239 97 239 86 c 0,165,166
 239 75.99995 239 75.99995 231.5 68 c 128,-1,167
 224 60.00005 224 60.00005 213 60 c 0,156,157
381 60 m 0,168,169
 370.9995 60 370.9995 60 363 68 c 128,-1,170
 355.0005 75.99995 355.0005 75.99995 355 86 c 0,171,172
 355 96.99995 355 96.99995 363 104.5 c 128,-1,173
 370.9995 112 370.9995 112 381 112 c 0,174,175
 391.9995 112 391.9995 112 399.5 104.5 c 128,-1,176
 407 97 407 97 407 86 c 0,177,178
 407 75.99995 407 75.99995 399.5 68 c 128,-1,179
 392 60.00005 392 60.00005 381 60 c 0,168,169
297 42 m 0,180,181
 286.9995 42 286.9995 42 279 50 c 128,-1,182
 271.0005 57.99995 271.0005 57.99995 271 68 c 0,183,184
 271 78.99995 271 78.99995 279 86.5 c 128,-1,185
 286.9995 94 286.9995 94 297 94 c 0,186,187
 307.9995 94 307.9995 94 315.5 86.5 c 128,-1,188
 323 79 323 79 323 68 c 0,189,190
 323 57.99995 323 57.99995 315.5 50 c 128,-1,191
 308 42.00005 308 42.00005 297 42 c 0,180,181
EndSplineSet
EndChar

StartChar: uniFE73
Encoding: 118 65139 2
Width: 356
Flags: W
LayerCount: 2
Fore
SplineSet
364 72 m 5,0,-1
 378 0 l 1,1,2
 343.999511718 -18 343.999511718 -18 314.5 -27 c 128,-1,3
 284.999511718 -36 284.999511718 -36 249 -36 c 0,4,5
 163.999511718 -36 163.999511718 -36 116 13 c 128,-1,6
 68 62.0004882812 68 62.0004882812 68 152 c 0,7,8
 68 171.999511718 68 171.999511718 69.5 189 c 128,-1,9
 71 205.999511718 71 205.999511718 75 227.5 c 128,-1,10
 79.0004882812 248.999511718 79.0004882812 248.999511718 87 282 c 1,11,-1
 124 273 l 1,12,13
 113.000488282 226.999511718 113.000488282 226.999511718 113 202 c 0,14,15
 113 128.999511718 113 128.999511718 149.5 88 c 128,-1,16
 185.999511718 47.0004882812 185.999511718 47.0004882812 251 47 c 0,17,18
 284.999511718 47 284.999511718 47 319 54.5 c 128,-1,19
 353.000488282 62 353.000488282 62 364 72 c 5,0,-1
EndSplineSet
Validated: 1
EndChar

StartChar: CC_BY
Encoding: 564 130671 3
Width: 960
Flags: W
LayerCount: 2
Fore
SplineSet
479.180664062 763.723632812 m 0,0,1
 673.027343752 763.723632812 673.027343752 763.723632812 806.096679688 630.654296875 c 0,2,3
 940 496.750976562 940 496.750976562 940 303.723632812 c 0,4,5
 940 109.85546843 940 109.85546843 808.541015625 -19.0810546875 c 0,6,7
 668.661670299 -156.276367188 668.661670299 -156.276367188 479.180664062 -156.276367188 c 0,8,9
 292.686523438 -156.276367188 292.686523438 -156.276367188 155.541992188 -20.7197265625 c 0,10,11
 20 113.252929563 20 113.252929563 20 303.723632812 c 0,12,13
 20 492.6328125 20 492.6328125 155.541992188 630.639648438 c 0,14,15
 288.604492188 763.723632812 288.604492188 763.723632812 479.180664062 763.723632812 c 0,0,1
480.819335938 680.750976562 m 0,16,17
 323.217013854 680.750976562 323.217013854 680.750976562 215.5 570.681640625 c 0,18,19
 102.958007812 455.681958569 102.958007812 455.681958569 102.958007812 303.708984375 c 0,20,21
 102.958007812 150.888671875 102.958007812 150.888671875 214.647956002 39.2094726562 c 128,-1,22
 326.337904192 -72.4697265625 326.337904192 -72.4697265625 480.791015625 -72.4697265625 c 0,23,24
 634.459903524 -72.4697265625 634.459903524 -72.4697265625 748.58203125 40.0576171875 c 0,25,26
 857.012695312 146.973031849 857.012695312 146.973031849 857.012695312 303.73828125 c 128,-1,27
 857.012695312 460.576171875 857.012695312 460.576171875 746.958007812 570.663574219 c 128,-1,28
 636.903320312 680.750976562 636.903320312 680.750976562 480.819335938 680.750976562 c 0,16,17
604.041992188 417.904296875 m 2,29,-1
 604.041992188 229.807617188 l 1,30,-1
 551.487304688 229.807617188 l 1,31,-1
 551.487304688 6.3916015625 l 1,32,-1
 408.541992188 6.3916015625 l 1,33,-1
 408.541992188 229.79296875 l 1,34,-1
 355.987304688 229.79296875 l 1,35,-1
 355.987304688 417.904296875 l 2,36,37
 355.987304688 430.216796875 355.987304688 430.216796875 364.59765625 438.848632812 c 128,-1,38
 373.265625 447.473632812 373.265625 447.473632812 385.541992188 447.473632812 c 2,39,-1
 574.487304688 447.473632812 l 2,40,41
 586.000976562 447.473632812 586.000976562 447.473632812 595.014648438 438.848632812 c 128,-1,42
 604.041992188 430.189453125 604.041992188 430.189453125 604.041992188 417.904296875 c 2,29,-1
415.916015625 536.181640625 m 0,43,44
 415.916015625 601.0703125 415.916015625 601.0703125 480 601.0703125 c 128,-1,45
 544.069335938 601.0703125 544.069335938 601.0703125 544.069335938 536.181640625 c 0,46,47
 544.069335938 472.112304688 544.069335938 472.112304688 480 472.112304688 c 128,-1,48
 415.916015625 472.112304688 415.916015625 472.112304688 415.916015625 536.181640625 c 0,43,44
EndSplineSet
Validated: 3073
EndChar

StartChar: MaskWork
Encoding: 543 127405 4
Width: 800
Flags: W
LayerCount: 2
Fore
SplineSet
20 303.723632812 m 128,-1,1
 20 380.017578125 20 380.017578125 49.6982421875 449.461914062 c 128,-1,2
 79.396484375 518.907226562 79.396484375 518.907226562 129.606445312 569.1171875 c 128,-1,3
 179.817382812 619.328125 179.817382812 619.328125 249.26171875 649.025390625 c 128,-1,4
 318.70703125 678.723632812 318.70703125 678.723632812 395 678.723632812 c 128,-1,5
 471.293945312 678.723632812 471.293945312 678.723632812 540.73828125 649.025390625 c 128,-1,6
 610.18359375 619.328125 610.18359375 619.328125 660.393554688 569.1171875 c 128,-1,7
 710.604492188 518.907226562 710.604492188 518.907226562 740.301757812 449.461914062 c 128,-1,8
 770 380.017578125 770 380.017578125 770 303.723632812 c 128,-1,9
 770 227.4296875 770 227.4296875 740.301757812 157.985351562 c 128,-1,10
 710.604492188 88.5400390625 710.604492188 88.5400390625 660.393554688 38.330078125 c 128,-1,11
 610.18359375 -11.880859375 610.18359375 -11.880859375 540.73828125 -41.578125 c 128,-1,12
 471.293945312 -71.2763671875 471.293945312 -71.2763671875 395 -71.2763671875 c 128,-1,13
 318.70703125 -71.2763671875 318.70703125 -71.2763671875 249.26171875 -41.578125 c 128,-1,14
 179.817382812 -11.880859375 179.817382812 -11.880859375 129.606445312 38.330078125 c 128,-1,15
 79.396484375 88.5400390625 79.396484375 88.5400390625 49.6982421875 157.985351562 c 128,-1,0
 20 227.4296875 20 227.4296875 20 303.723632812 c 128,-1,1
67.7255859375 303.723632812 m 128,-1,17
 67.7255859375 237.139648438 67.7255859375 237.139648438 93.64453125 176.533203125 c 128,-1,18
 119.5625 115.926757812 119.5625 115.926757812 163.3828125 72.1064453125 c 128,-1,19
 207.203125 28.2861328125 207.203125 28.2861328125 267.809570312 2.3671875 c 128,-1,20
 328.416992188 -23.55078125 328.416992188 -23.55078125 395 -23.55078125 c 128,-1,21
 461.583984375 -23.55078125 461.583984375 -23.55078125 522.190429688 2.3671875 c 128,-1,22
 582.796875 28.2861328125 582.796875 28.2861328125 626.6171875 72.1064453125 c 128,-1,23
 670.4375 115.926757812 670.4375 115.926757812 696.356445312 176.533203125 c 128,-1,24
 722.274414062 237.139648438 722.274414062 237.139648438 722.274414062 303.723632812 c 128,-1,25
 722.274414062 370.307617188 722.274414062 370.307617188 696.356445312 430.9140625 c 128,-1,26
 670.4375 491.520507812 670.4375 491.520507812 626.6171875 535.340820312 c 128,-1,27
 582.796875 579.161132812 582.796875 579.161132812 522.190429688 605.079101562 c 128,-1,28
 461.583984375 630.998046875 461.583984375 630.998046875 395 630.998046875 c 128,-1,29
 328.416992188 630.998046875 328.416992188 630.998046875 267.809570312 605.079101562 c 128,-1,30
 207.203125 579.161132812 207.203125 579.161132812 163.3828125 535.340820312 c 128,-1,31
 119.5625 491.520507812 119.5625 491.520507812 93.64453125 430.9140625 c 128,-1,16
 67.7255859375 370.307617188 67.7255859375 370.307617188 67.7255859375 303.723632812 c 128,-1,17
209.299804688 506.6875 m 1,32,-1
 291.138671875 506.6875 l 1,33,-1
 394.728515625 230.44921875 l 1,34,-1
 498.862304688 506.6875 l 1,35,-1
 580.700195312 506.6875 l 1,36,-1
 580.700195312 100.758789062 l 1,37,-1
 527.138671875 100.758789062 l 1,38,-1
 527.138671875 457.205078125 l 1,39,-1
 422.461914062 178.791015625 l 1,40,-1
 367.267578125 178.791015625 l 1,41,-1
 262.590820312 457.205078125 l 1,42,-1
 262.590820312 100.758789062 l 1,43,-1
 209.299804688 100.758789062 l 1,44,-1
 209.299804688 506.6875 l 1,32,-1
EndSplineSet
Validated: 3073
EndChar

StartChar: Circle00
Encoding: 552 129280 5
Width: 1000
LayerCount: 2
Fore
SplineSet
500 774.619140625 m 128,-1,1
 596.4921875 774.619140625 596.4921875 774.619140625 684.37890625 737.006835938 c 128,-1,2
 772.266601562 699.39453125 772.266601562 699.39453125 835.831054688 635.831054688 c 128,-1,3
 899.39453125 572.266601562 899.39453125 572.266601562 937.006835938 484.37890625 c 128,-1,4
 974.619140625 396.4921875 974.619140625 396.4921875 974.619140625 300 c 128,-1,5
 974.619140625 203.5078125 974.619140625 203.5078125 937.006835938 115.62109375 c 128,-1,6
 899.39453125 27.7333984375 899.39453125 27.7333984375 835.831054688 -35.8310546875 c 128,-1,7
 772.266601562 -99.39453125 772.266601562 -99.39453125 684.37890625 -137.006835938 c 128,-1,8
 596.4921875 -174.619140625 596.4921875 -174.619140625 500 -174.619140625 c 128,-1,9
 403.5078125 -174.619140625 403.5078125 -174.619140625 315.62109375 -137.006835938 c 128,-1,10
 227.733398438 -99.39453125 227.733398438 -99.39453125 164.168945312 -35.8310546875 c 128,-1,11
 100.60546875 27.7333984375 100.60546875 27.7333984375 62.9931640625 115.62109375 c 128,-1,12
 25.3798828125 203.5078125 25.3798828125 203.5078125 25.3798828125 300 c 128,-1,13
 25.3798828125 396.4921875 25.3798828125 396.4921875 62.9931640625 484.37890625 c 128,-1,14
 100.60546875 572.266601562 100.60546875 572.266601562 164.168945312 635.831054688 c 128,-1,15
 227.733398438 699.39453125 227.733398438 699.39453125 315.62109375 737.006835938 c 128,-1,0
 403.5078125 774.619140625 403.5078125 774.619140625 500 774.619140625 c 128,-1,1
716.694335938 679.37109375 m 1,16,17
 622.392578125 647.28515625 622.392578125 647.28515625 580.391601562 568.796875 c 0,18,19
 542.860351562 498.659179688 542.860351562 498.659179688 533.181640625 398.041015625 c 1,20,-1
 530.479492188 330.479492188 l 1,21,-1
 598.051757812 333.18359375 l 1,22,23
 764.661132812 349.211914062 764.661132812 349.211914062 835.15625 435.17578125 c 0,24,25
 863.319335938 469.518554688 863.319335938 469.518554688 879.37109375 516.694335938 c 1,26,27
 820.225585938 620.225585938 820.225585938 620.225585938 716.694335938 679.37109375 c 1,16,17
284.489257812 678.95703125 m 1,28,29
 180.354492188 619.645507812 180.354492188 619.645507812 121.04296875 515.510742188 c 1,30,31
 153.325195312 421.885742188 153.325195312 421.885742188 231.65234375 380.140625 c 0,32,33
 301.661132812 342.829101562 301.661132812 342.829101562 401.955078125 333.181640625 c 1,34,-1
 469.522460938 330.479492188 l 1,35,-1
 466.818359375 398.044921875 l 1,36,37
 450.845703125 564.091796875 450.845703125 564.091796875 365.436523438 634.634765625 c 0,38,39
 331.328125 662.806640625 331.328125 662.806640625 284.489257812 678.95703125 c 1,28,29
281.5 585 m 128,-1,41
 309.049804688 585 309.049804688 585 328.525390625 565.525390625 c 128,-1,42
 348 546.049804688 348 546.049804688 348 518.5 c 128,-1,43
 348 490.950195312 348 490.950195312 328.525390625 471.474609375 c 128,-1,44
 309.049804688 452 309.049804688 452 281.5 452 c 128,-1,45
 253.950195312 452 253.950195312 452 234.474609375 471.474609375 c 128,-1,46
 215 490.950195312 215 490.950195312 215 518.5 c 128,-1,47
 215 546.049804688 215 546.049804688 234.474609375 565.525390625 c 128,-1,40
 253.950195312 585 253.950195312 585 281.5 585 c 128,-1,41
718.5 585 m 128,-1,49
 746.049804688 585 746.049804688 585 765.525390625 565.525390625 c 128,-1,50
 785 546.049804688 785 546.049804688 785 518.5 c 128,-1,51
 785 490.950195312 785 490.950195312 765.525390625 471.474609375 c 128,-1,52
 746.049804688 452 746.049804688 452 718.5 452 c 128,-1,53
 690.950195312 452 690.950195312 452 671.474609375 471.474609375 c 128,-1,54
 652 490.950195312 652 490.950195312 652 518.5 c 128,-1,55
 652 546.049804688 652 546.049804688 671.474609375 565.525390625 c 128,-1,48
 690.950195312 585 690.950195312 585 718.5 585 c 128,-1,49
469.520507812 269.520507812 m 1,56,-1
 401.944335938 266.81640625 l 1,57,58
 235.90234375 250.841796875 235.90234375 250.841796875 165.36328125 165.434570312 c 0,59,60
 137.192382812 131.326171875 137.192382812 131.326171875 121.04296875 84.4892578125 c 1,61,62
 180.354492188 -19.6455078125 180.354492188 -19.6455078125 284.489257812 -78.95703125 c 1,63,64
 378.114257812 -46.6748046875 378.114257812 -46.6748046875 419.859375 31.65234375 c 0,65,66
 457.170898438 101.661132812 457.170898438 101.661132812 466.818359375 201.955078125 c 1,67,-1
 469.520507812 269.520507812 l 1,56,-1
530.479492188 269.520507812 m 1,68,-1
 533.18359375 201.947265625 l 1,69,70
 549.211914062 35.3388671875 549.211914062 35.3388671875 635.17578125 -35.15625 c 0,71,72
 669.518554688 -63.3193359375 669.518554688 -63.3193359375 716.694335938 -79.37109375 c 1,73,74
 820.225585938 -20.2255859375 820.225585938 -20.2255859375 879.37109375 83.3056640625 c 1,75,76
 847.286132812 177.607421875 847.286132812 177.607421875 768.797851562 219.608398438 c 0,77,78
 698.662109375 257.139648438 698.662109375 257.139648438 598.044921875 266.818359375 c 1,79,-1
 530.479492188 269.520507812 l 1,68,-1
281.5 148 m 128,-1,81
 309.049804688 148 309.049804688 148 328.525390625 128.525390625 c 128,-1,82
 348 109.049804688 348 109.049804688 348 81.5 c 128,-1,83
 348 53.9501953125 348 53.9501953125 328.525390625 34.474609375 c 128,-1,84
 309.049804688 15 309.049804688 15 281.5 15 c 128,-1,85
 253.950195312 15 253.950195312 15 234.474609375 34.474609375 c 128,-1,86
 215 53.9501953125 215 53.9501953125 215 81.5 c 128,-1,87
 215 109.049804688 215 109.049804688 234.474609375 128.525390625 c 128,-1,80
 253.950195312 148 253.950195312 148 281.5 148 c 128,-1,81
718.5 148 m 128,-1,89
 746.049804688 148 746.049804688 148 765.525390625 128.525390625 c 128,-1,90
 785 109.049804688 785 109.049804688 785 81.5 c 128,-1,91
 785 53.9501953125 785 53.9501953125 765.525390625 34.474609375 c 128,-1,92
 746.049804688 15 746.049804688 15 718.5 15 c 128,-1,93
 690.950195312 15 690.950195312 15 671.474609375 34.474609375 c 128,-1,94
 652 53.9501953125 652 53.9501953125 652 81.5 c 128,-1,95
 652 109.049804688 652 109.049804688 671.474609375 128.525390625 c 128,-1,88
 690.950195312 148 690.950195312 148 718.5 148 c 128,-1,89
EndSplineSet
Validated: 3073
EndChar

StartChar: Circle01
Encoding: 553 129281 6
Width: 1000
Flags: W
LayerCount: 2
Fore
SplineSet
500 774.619140625 m 128,-1,1
 596.4921875 774.619140625 596.4921875 774.619140625 684.37890625 737.006835938 c 128,-1,2
 772.266601562 699.39453125 772.266601562 699.39453125 835.831054688 635.831054688 c 128,-1,3
 899.39453125 572.266601562 899.39453125 572.266601562 937.006835938 484.37890625 c 128,-1,4
 974.619140625 396.4921875 974.619140625 396.4921875 974.619140625 300 c 128,-1,5
 974.619140625 203.5078125 974.619140625 203.5078125 937.006835938 115.62109375 c 128,-1,6
 899.39453125 27.7333984375 899.39453125 27.7333984375 835.831054688 -35.8310546875 c 128,-1,7
 772.266601562 -99.39453125 772.266601562 -99.39453125 684.37890625 -137.006835938 c 128,-1,8
 596.4921875 -174.619140625 596.4921875 -174.619140625 500 -174.619140625 c 128,-1,9
 403.5078125 -174.619140625 403.5078125 -174.619140625 315.62109375 -137.006835938 c 128,-1,10
 227.733398438 -99.39453125 227.733398438 -99.39453125 164.168945312 -35.8310546875 c 128,-1,11
 100.60546875 27.7333984375 100.60546875 27.7333984375 62.9931640625 115.62109375 c 128,-1,12
 25.3798828125 203.5078125 25.3798828125 203.5078125 25.3798828125 300 c 128,-1,13
 25.3798828125 396.4921875 25.3798828125 396.4921875 62.9931640625 484.37890625 c 128,-1,14
 100.60546875 572.266601562 100.60546875 572.266601562 164.168945312 635.831054688 c 128,-1,15
 227.733398438 699.39453125 227.733398438 699.39453125 315.62109375 737.006835938 c 128,-1,0
 403.5078125 774.619140625 403.5078125 774.619140625 500 774.619140625 c 128,-1,1
716.694335938 679.37109375 m 1,16,17
 622.392578125 647.28515625 622.392578125 647.28515625 580.391601562 568.796875 c 0,18,19
 542.860351562 498.659179688 542.860351562 498.659179688 533.181640625 398.041015625 c 1,20,-1
 530.479492188 330.479492188 l 1,21,-1
 598.051757812 333.18359375 l 1,22,23
 764.661132812 349.211914062 764.661132812 349.211914062 835.15625 435.17578125 c 0,24,25
 863.319335938 469.518554688 863.319335938 469.518554688 879.37109375 516.694335938 c 1,26,27
 820.225585938 620.225585938 820.225585938 620.225585938 716.694335938 679.37109375 c 1,16,17
284.489257812 678.95703125 m 1,28,29
 180.354492188 619.645507812 180.354492188 619.645507812 121.04296875 515.510742188 c 1,30,31
 153.325195312 421.885742188 153.325195312 421.885742188 231.65234375 380.140625 c 0,32,33
 301.661132812 342.829101562 301.661132812 342.829101562 401.955078125 333.181640625 c 1,34,-1
 469.522460938 330.479492188 l 1,35,-1
 466.818359375 398.044921875 l 1,36,37
 450.845703125 564.091796875 450.845703125 564.091796875 365.436523438 634.634765625 c 0,38,39
 331.328125 662.806640625 331.328125 662.806640625 284.489257812 678.95703125 c 1,28,29
281.5 585 m 128,-1,41
 309.049804688 585 309.049804688 585 328.525390625 565.525390625 c 128,-1,42
 348 546.049804688 348 546.049804688 348 518.5 c 128,-1,43
 348 490.950195312 348 490.950195312 328.525390625 471.474609375 c 128,-1,44
 309.049804688 452 309.049804688 452 281.5 452 c 128,-1,45
 253.950195312 452 253.950195312 452 234.474609375 471.474609375 c 128,-1,46
 215 490.950195312 215 490.950195312 215 518.5 c 128,-1,47
 215 546.049804688 215 546.049804688 234.474609375 565.525390625 c 128,-1,40
 253.950195312 585 253.950195312 585 281.5 585 c 128,-1,41
718.5 585 m 128,-1,49
 746.049804688 585 746.049804688 585 765.525390625 565.525390625 c 128,-1,50
 785 546.049804688 785 546.049804688 785 518.5 c 128,-1,51
 785 490.950195312 785 490.950195312 765.525390625 471.474609375 c 128,-1,52
 746.049804688 452 746.049804688 452 718.5 452 c 128,-1,53
 690.950195312 452 690.950195312 452 671.474609375 471.474609375 c 128,-1,54
 652 490.950195312 652 490.950195312 652 518.5 c 128,-1,55
 652 546.049804688 652 546.049804688 671.474609375 565.525390625 c 128,-1,48
 690.950195312 585 690.950195312 585 718.5 585 c 128,-1,49
469.520507812 269.520507812 m 1,56,-1
 401.944335938 266.81640625 l 1,57,58
 235.90234375 250.841796875 235.90234375 250.841796875 165.36328125 165.434570312 c 0,59,60
 137.192382812 131.326171875 137.192382812 131.326171875 121.04296875 84.4892578125 c 1,61,62
 180.354492188 -19.6455078125 180.354492188 -19.6455078125 284.489257812 -78.95703125 c 1,63,64
 378.114257812 -46.6748046875 378.114257812 -46.6748046875 419.859375 31.65234375 c 0,65,66
 457.170898438 101.661132812 457.170898438 101.661132812 466.818359375 201.955078125 c 1,67,-1
 469.520507812 269.520507812 l 1,56,-1
530.479492188 269.520507812 m 1,68,-1
 533.18359375 201.947265625 l 1,69,70
 549.211914062 35.3388671875 549.211914062 35.3388671875 635.17578125 -35.15625 c 0,71,72
 669.518554688 -63.3193359375 669.518554688 -63.3193359375 716.694335938 -79.37109375 c 1,73,74
 820.225585938 -20.2255859375 820.225585938 -20.2255859375 879.37109375 83.3056640625 c 1,75,76
 847.286132812 177.607421875 847.286132812 177.607421875 768.797851562 219.608398438 c 0,77,78
 698.662109375 257.139648438 698.662109375 257.139648438 598.044921875 266.818359375 c 1,79,-1
 530.479492188 269.520507812 l 1,68,-1
EndSplineSet
Validated: 3073
EndChar

StartChar: Circle02
Encoding: 554 129282 7
Width: 1000
Flags: W
LayerCount: 2
Fore
SplineSet
500 774.619140625 m 128,-1,1
 596.4921875 774.619140625 596.4921875 774.619140625 684.37890625 737.006835938 c 128,-1,2
 772.266601562 699.39453125 772.266601562 699.39453125 835.831054688 635.831054688 c 128,-1,3
 899.39453125 572.266601562 899.39453125 572.266601562 937.006835938 484.37890625 c 128,-1,4
 974.619140625 396.4921875 974.619140625 396.4921875 974.619140625 300 c 128,-1,5
 974.619140625 203.5078125 974.619140625 203.5078125 937.006835938 115.62109375 c 128,-1,6
 899.39453125 27.7333984375 899.39453125 27.7333984375 835.831054688 -35.8310546875 c 128,-1,7
 772.266601562 -99.39453125 772.266601562 -99.39453125 684.37890625 -137.006835938 c 128,-1,8
 596.4921875 -174.619140625 596.4921875 -174.619140625 500 -174.619140625 c 128,-1,9
 403.5078125 -174.619140625 403.5078125 -174.619140625 315.62109375 -137.006835938 c 128,-1,10
 227.733398438 -99.39453125 227.733398438 -99.39453125 164.168945312 -35.8310546875 c 128,-1,11
 100.60546875 27.7333984375 100.60546875 27.7333984375 62.9931640625 115.62109375 c 128,-1,12
 25.3798828125 203.5078125 25.3798828125 203.5078125 25.3798828125 300 c 128,-1,13
 25.3798828125 396.4921875 25.3798828125 396.4921875 62.9931640625 484.37890625 c 128,-1,14
 100.60546875 572.266601562 100.60546875 572.266601562 164.168945312 635.831054688 c 128,-1,15
 227.733398438 699.39453125 227.733398438 699.39453125 315.62109375 737.006835938 c 128,-1,0
 403.5078125 774.619140625 403.5078125 774.619140625 500 774.619140625 c 128,-1,1
716.694335938 679.37109375 m 1,16,17
 622.392578125 647.28515625 622.392578125 647.28515625 580.391601562 568.796875 c 0,18,19
 542.860351562 498.659179688 542.860351562 498.659179688 533.181640625 398.041015625 c 1,20,-1
 530.479492188 330.479492188 l 1,21,-1
 598.051757812 333.18359375 l 1,22,23
 764.661132812 349.211914062 764.661132812 349.211914062 835.15625 435.17578125 c 0,24,25
 863.319335938 469.518554688 863.319335938 469.518554688 879.37109375 516.694335938 c 1,26,27
 820.225585938 620.225585938 820.225585938 620.225585938 716.694335938 679.37109375 c 1,16,17
284.489257812 678.95703125 m 1,28,29
 180.354492188 619.645507812 180.354492188 619.645507812 121.04296875 515.510742188 c 1,30,31
 153.325195312 421.885742188 153.325195312 421.885742188 231.65234375 380.140625 c 0,32,33
 301.661132812 342.829101562 301.661132812 342.829101562 401.955078125 333.181640625 c 1,34,-1
 469.522460938 330.479492188 l 1,35,-1
 466.818359375 398.044921875 l 1,36,37
 450.845703125 564.091796875 450.845703125 564.091796875 365.436523438 634.634765625 c 0,38,39
 331.328125 662.806640625 331.328125 662.806640625 284.489257812 678.95703125 c 1,28,29
469.520507812 269.520507812 m 1,40,-1
 401.944335938 266.81640625 l 1,41,42
 235.90234375 250.841796875 235.90234375 250.841796875 165.36328125 165.434570312 c 0,43,44
 137.192382812 131.326171875 137.192382812 131.326171875 121.04296875 84.4892578125 c 1,45,46
 180.354492188 -19.6455078125 180.354492188 -19.6455078125 284.489257812 -78.95703125 c 1,47,48
 378.114257812 -46.6748046875 378.114257812 -46.6748046875 419.859375 31.65234375 c 0,49,50
 457.170898438 101.661132812 457.170898438 101.661132812 466.818359375 201.955078125 c 1,51,-1
 469.520507812 269.520507812 l 1,40,-1
530.479492188 269.520507812 m 1,52,-1
 533.18359375 201.947265625 l 1,53,54
 549.211914062 35.3388671875 549.211914062 35.3388671875 635.17578125 -35.15625 c 0,55,56
 669.518554688 -63.3193359375 669.518554688 -63.3193359375 716.694335938 -79.37109375 c 1,57,58
 820.225585938 -20.2255859375 820.225585938 -20.2255859375 879.37109375 83.3056640625 c 1,59,60
 847.286132812 177.607421875 847.286132812 177.607421875 768.797851562 219.608398438 c 0,61,62
 698.662109375 257.139648438 698.662109375 257.139648438 598.044921875 266.818359375 c 1,63,-1
 530.479492188 269.520507812 l 1,52,-1
EndSplineSet
Validated: 3073
EndChar

StartChar: Circle03
Encoding: 555 129283 8
Width: 754
Flags: W
LayerCount: 2
Fore
SplineSet
493.009765625 774.619140625 m 1,0,-1
 493.009765625 718 l 1,1,2
 320.110351562 718 320.110351562 718 197.559570312 595.450195312 c 128,-1,3
 75.009765625 472.900390625 75.009765625 472.900390625 75.009765625 300 c 128,-1,4
 75.009765625 127.099609375 75.009765625 127.099609375 197.559570312 4.5498046875 c 128,-1,5
 320.110351562 -118 320.110351562 -118 493.009765625 -118 c 1,6,-1
 493.009765625 -174.619140625 l 1,7,8
 396.518554688 -174.619140625 396.518554688 -174.619140625 308.630859375 -137.006835938 c 128,-1,9
 220.743164062 -99.39453125 220.743164062 -99.39453125 157.1796875 -35.8310546875 c 128,-1,10
 93.615234375 27.7333984375 93.615234375 27.7333984375 56.0029296875 115.62109375 c 128,-1,11
 18.390625 203.5078125 18.390625 203.5078125 18.390625 300 c 128,-1,12
 18.390625 396.4921875 18.390625 396.4921875 56.0029296875 484.37890625 c 128,-1,13
 93.615234375 572.266601562 93.615234375 572.266601562 157.1796875 635.831054688 c 128,-1,14
 220.743164062 699.39453125 220.743164062 699.39453125 308.630859375 737.006835938 c 128,-1,15
 396.518554688 774.619140625 396.518554688 774.619140625 493.009765625 774.619140625 c 1,0,-1
284.009765625 471 m 128,-1,17
 284.009765625 502.349609375 284.009765625 502.349609375 306.334960938 524.674804688 c 128,-1,18
 328.66015625 547 328.66015625 547 360.009765625 547 c 128,-1,19
 391.360351562 547 391.360351562 547 413.684570312 524.674804688 c 128,-1,20
 436.009765625 502.349609375 436.009765625 502.349609375 436.009765625 471 c 128,-1,21
 436.009765625 439.650390625 436.009765625 439.650390625 413.684570312 417.325195312 c 128,-1,22
 391.360351562 395 391.360351562 395 360.009765625 395 c 128,-1,23
 328.66015625 395 328.66015625 395 306.334960938 417.325195312 c 128,-1,16
 284.009765625 439.650390625 284.009765625 439.650390625 284.009765625 471 c 128,-1,17
360.009765625 53 m 128,-1,25
 328.66015625 53 328.66015625 53 306.334960938 75.3251953125 c 128,-1,26
 284.009765625 97.650390625 284.009765625 97.650390625 284.009765625 129 c 128,-1,27
 284.009765625 160.349609375 284.009765625 160.349609375 306.334960938 182.674804688 c 128,-1,28
 328.66015625 205 328.66015625 205 360.009765625 205 c 128,-1,29
 391.360351562 205 391.360351562 205 413.684570312 182.674804688 c 128,-1,30
 436.009765625 160.349609375 436.009765625 160.349609375 436.009765625 129 c 128,-1,31
 436.009765625 97.650390625 436.009765625 97.650390625 413.684570312 75.3251953125 c 128,-1,24
 391.360351562 53 391.360351562 53 360.009765625 53 c 128,-1,25
702.009765625 129 m 128,-1,33
 702.009765625 97.650390625 702.009765625 97.650390625 679.684570312 75.3251953125 c 128,-1,34
 657.360351562 53 657.360351562 53 626.009765625 53 c 128,-1,35
 594.66015625 53 594.66015625 53 572.334960938 75.3251953125 c 128,-1,36
 550.009765625 97.650390625 550.009765625 97.650390625 550.009765625 129 c 128,-1,37
 550.009765625 160.349609375 550.009765625 160.349609375 572.334960938 182.674804688 c 128,-1,38
 594.66015625 205 594.66015625 205 626.009765625 205 c 128,-1,39
 657.360351562 205 657.360351562 205 679.684570312 182.674804688 c 128,-1,32
 702.009765625 160.349609375 702.009765625 160.349609375 702.009765625 129 c 128,-1,33
626.009765625 547 m 128,-1,41
 657.360351562 547 657.360351562 547 679.684570312 524.674804688 c 128,-1,42
 702.009765625 502.349609375 702.009765625 502.349609375 702.009765625 471 c 128,-1,43
 702.009765625 439.650390625 702.009765625 439.650390625 679.684570312 417.325195312 c 128,-1,44
 657.360351562 395 657.360351562 395 626.009765625 395 c 128,-1,45
 594.66015625 395 594.66015625 395 572.334960938 417.325195312 c 128,-1,46
 550.009765625 439.650390625 550.009765625 439.650390625 550.009765625 471 c 128,-1,47
 550.009765625 502.349609375 550.009765625 502.349609375 572.334960938 524.674804688 c 128,-1,40
 594.66015625 547 594.66015625 547 626.009765625 547 c 128,-1,41
EndSplineSet
Validated: 3073
EndChar

StartChar: Circle04
Encoding: 556 129284 9
Width: 754
Flags: W
LayerCount: 2
Fore
SplineSet
493.009765625 774.619140625 m 1,0,-1
 493.009765625 718 l 1,1,2
 320.110351562 718 320.110351562 718 197.559570312 595.450195312 c 128,-1,3
 75.009765625 472.900390625 75.009765625 472.900390625 75.009765625 300 c 128,-1,4
 75.009765625 127.099609375 75.009765625 127.099609375 197.559570312 4.5498046875 c 128,-1,5
 320.110351562 -118 320.110351562 -118 493.009765625 -118 c 1,6,-1
 493.009765625 -174.619140625 l 1,7,8
 396.518554688 -174.619140625 396.518554688 -174.619140625 308.630859375 -137.006835938 c 128,-1,9
 220.743164062 -99.39453125 220.743164062 -99.39453125 157.1796875 -35.8310546875 c 128,-1,10
 93.615234375 27.7333984375 93.615234375 27.7333984375 56.0029296875 115.62109375 c 128,-1,11
 18.390625 203.5078125 18.390625 203.5078125 18.390625 300 c 128,-1,12
 18.390625 396.4921875 18.390625 396.4921875 56.0029296875 484.37890625 c 128,-1,13
 93.615234375 572.266601562 93.615234375 572.266601562 157.1796875 635.831054688 c 128,-1,14
 220.743164062 699.39453125 220.743164062 699.39453125 308.630859375 737.006835938 c 128,-1,15
 396.518554688 774.619140625 396.518554688 774.619140625 493.009765625 774.619140625 c 1,0,-1
284.009765625 471 m 128,-1,17
 284.009765625 502.349609375 284.009765625 502.349609375 306.334960938 524.674804688 c 128,-1,18
 328.66015625 547 328.66015625 547 360.009765625 547 c 128,-1,19
 391.360351562 547 391.360351562 547 413.684570312 524.674804688 c 128,-1,20
 436.009765625 502.349609375 436.009765625 502.349609375 436.009765625 471 c 128,-1,21
 436.009765625 439.650390625 436.009765625 439.650390625 413.684570312 417.325195312 c 128,-1,22
 391.360351562 395 391.360351562 395 360.009765625 395 c 128,-1,23
 328.66015625 395 328.66015625 395 306.334960938 417.325195312 c 128,-1,16
 284.009765625 439.650390625 284.009765625 439.650390625 284.009765625 471 c 128,-1,17
360.009765625 53 m 128,-1,25
 328.66015625 53 328.66015625 53 306.334960938 75.3251953125 c 128,-1,26
 284.009765625 97.650390625 284.009765625 97.650390625 284.009765625 129 c 128,-1,27
 284.009765625 160.349609375 284.009765625 160.349609375 306.334960938 182.674804688 c 128,-1,28
 328.66015625 205 328.66015625 205 360.009765625 205 c 128,-1,29
 391.360351562 205 391.360351562 205 413.684570312 182.674804688 c 128,-1,30
 436.009765625 160.349609375 436.009765625 160.349609375 436.009765625 129 c 128,-1,31
 436.009765625 97.650390625 436.009765625 97.650390625 413.684570312 75.3251953125 c 128,-1,24
 391.360351562 53 391.360351562 53 360.009765625 53 c 128,-1,25
626.009765625 376 m 128,-1,33
 657.360351562 376 657.360351562 376 679.684570312 353.674804688 c 128,-1,34
 702.009765625 331.349609375 702.009765625 331.349609375 702.009765625 300 c 128,-1,35
 702.009765625 268.650390625 702.009765625 268.650390625 679.684570312 246.325195312 c 128,-1,36
 657.360351562 224 657.360351562 224 626.009765625 224 c 128,-1,37
 594.66015625 224 594.66015625 224 572.334960938 246.325195312 c 128,-1,38
 550.009765625 268.650390625 550.009765625 268.650390625 550.009765625 300 c 128,-1,39
 550.009765625 331.349609375 550.009765625 331.349609375 572.334960938 353.674804688 c 128,-1,32
 594.66015625 376 594.66015625 376 626.009765625 376 c 128,-1,33
EndSplineSet
Validated: 3073
EndChar

StartChar: Circle05
Encoding: 557 129285 10
Width: 528
Flags: W
LayerCount: 2
Fore
SplineSet
493.009765625 774.619140625 m 1,0,-1
 493.009765625 718 l 1,1,2
 320.110351562 718 320.110351562 718 197.559570312 595.450195312 c 128,-1,3
 75.009765625 472.900390625 75.009765625 472.900390625 75.009765625 300 c 128,-1,4
 75.009765625 127.099609375 75.009765625 127.099609375 197.559570312 4.5498046875 c 128,-1,5
 320.110351562 -118 320.110351562 -118 493.009765625 -118 c 1,6,-1
 493.009765625 -174.619140625 l 1,7,8
 396.518554688 -174.619140625 396.518554688 -174.619140625 308.630859375 -137.006835938 c 128,-1,9
 220.743164062 -99.39453125 220.743164062 -99.39453125 157.1796875 -35.8310546875 c 128,-1,10
 93.615234375 27.7333984375 93.615234375 27.7333984375 56.0029296875 115.62109375 c 128,-1,11
 18.390625 203.5078125 18.390625 203.5078125 18.390625 300 c 128,-1,12
 18.390625 396.4921875 18.390625 396.4921875 56.0029296875 484.37890625 c 128,-1,13
 93.615234375 572.266601562 93.615234375 572.266601562 157.1796875 635.831054688 c 128,-1,14
 220.743164062 699.39453125 220.743164062 699.39453125 308.630859375 737.006835938 c 128,-1,15
 396.518554688 774.619140625 396.518554688 774.619140625 493.009765625 774.619140625 c 1,0,-1
284.009765625 471 m 128,-1,17
 284.009765625 502.349609375 284.009765625 502.349609375 306.334960938 524.674804688 c 128,-1,18
 328.66015625 547 328.66015625 547 360.009765625 547 c 128,-1,19
 391.360351562 547 391.360351562 547 413.684570312 524.674804688 c 128,-1,20
 436.009765625 502.349609375 436.009765625 502.349609375 436.009765625 471 c 128,-1,21
 436.009765625 439.650390625 436.009765625 439.650390625 413.684570312 417.325195312 c 128,-1,22
 391.360351562 395 391.360351562 395 360.009765625 395 c 128,-1,23
 328.66015625 395 328.66015625 395 306.334960938 417.325195312 c 128,-1,16
 284.009765625 439.650390625 284.009765625 439.650390625 284.009765625 471 c 128,-1,17
360.009765625 53 m 128,-1,25
 328.66015625 53 328.66015625 53 306.334960938 75.3251953125 c 128,-1,26
 284.009765625 97.650390625 284.009765625 97.650390625 284.009765625 129 c 128,-1,27
 284.009765625 160.349609375 284.009765625 160.349609375 306.334960938 182.674804688 c 128,-1,28
 328.66015625 205 328.66015625 205 360.009765625 205 c 128,-1,29
 391.360351562 205 391.360351562 205 413.684570312 182.674804688 c 128,-1,30
 436.009765625 160.349609375 436.009765625 160.349609375 436.009765625 129 c 128,-1,31
 436.009765625 97.650390625 436.009765625 97.650390625 413.684570312 75.3251953125 c 128,-1,24
 391.360351562 53 391.360351562 53 360.009765625 53 c 128,-1,25
EndSplineSet
Validated: 3073
EndChar

StartChar: NameMe.183
Encoding: 558 129286 11
Width: 528
Flags: W
LayerCount: 2
Fore
SplineSet
487.509765625 774.619140625 m 1,0,-1
 487.509765625 718 l 1,1,2
 314.610351562 718 314.610351562 718 192.059570312 595.450195312 c 128,-1,3
 69.509765625 472.900390625 69.509765625 472.900390625 69.509765625 300 c 128,-1,4
 69.509765625 127.099609375 69.509765625 127.099609375 192.059570312 4.5498046875 c 128,-1,5
 314.610351562 -118 314.610351562 -118 487.509765625 -118 c 1,6,-1
 487.509765625 -174.619140625 l 1,7,8
 391.018554688 -174.619140625 391.018554688 -174.619140625 303.130859375 -137.006835938 c 128,-1,9
 215.243164062 -99.39453125 215.243164062 -99.39453125 151.6796875 -35.8310546875 c 128,-1,10
 88.115234375 27.7333984375 88.115234375 27.7333984375 50.5029296875 115.62109375 c 128,-1,11
 12.890625 203.5078125 12.890625 203.5078125 12.890625 300 c 128,-1,12
 12.890625 396.4921875 12.890625 396.4921875 50.5029296875 484.37890625 c 128,-1,13
 88.115234375 572.266601562 88.115234375 572.266601562 151.6796875 635.831054688 c 128,-1,14
 215.243164062 699.39453125 215.243164062 699.39453125 303.130859375 737.006835938 c 128,-1,15
 391.018554688 774.619140625 391.018554688 774.619140625 487.509765625 774.619140625 c 1,0,-1
278.509765625 300 m 128,-1,17
 278.509765625 331.349609375 278.509765625 331.349609375 300.834960938 353.674804688 c 128,-1,18
 323.16015625 376 323.16015625 376 354.509765625 376 c 128,-1,19
 385.860351562 376 385.860351562 376 408.184570312 353.674804688 c 128,-1,20
 430.509765625 331.349609375 430.509765625 331.349609375 430.509765625 300 c 128,-1,21
 430.509765625 268.650390625 430.509765625 268.650390625 408.184570312 246.325195312 c 128,-1,22
 385.860351562 224 385.860351562 224 354.509765625 224 c 128,-1,23
 323.16015625 224 323.16015625 224 300.834960938 246.325195312 c 128,-1,16
 278.509765625 268.650390625 278.509765625 268.650390625 278.509765625 300 c 128,-1,17
EndSplineSet
Validated: 3073
EndChar

StartChar: Circle07
Encoding: 559 129287 12
Width: 528
Flags: W
LayerCount: 2
Fore
SplineSet
487.509765625 774.619140625 m 1,0,-1
 487.509765625 718 l 1,1,2
 314.610351562 718 314.610351562 718 192.059570312 595.450195312 c 128,-1,3
 69.509765625 472.900390625 69.509765625 472.900390625 69.509765625 300 c 128,-1,4
 69.509765625 127.099609375 69.509765625 127.099609375 192.059570312 4.5498046875 c 128,-1,5
 314.610351562 -118 314.610351562 -118 487.509765625 -118 c 1,6,-1
 487.509765625 -174.619140625 l 1,7,8
 391.018554688 -174.619140625 391.018554688 -174.619140625 303.130859375 -137.006835938 c 128,-1,9
 215.243164062 -99.39453125 215.243164062 -99.39453125 151.6796875 -35.8310546875 c 128,-1,10
 88.115234375 27.7333984375 88.115234375 27.7333984375 50.5029296875 115.62109375 c 128,-1,11
 12.890625 203.5078125 12.890625 203.5078125 12.890625 300 c 128,-1,12
 12.890625 396.4921875 12.890625 396.4921875 50.5029296875 484.37890625 c 128,-1,13
 88.115234375 572.266601562 88.115234375 572.266601562 151.6796875 635.831054688 c 128,-1,14
 215.243164062 699.39453125 215.243164062 699.39453125 303.130859375 737.006835938 c 128,-1,15
 391.018554688 774.619140625 391.018554688 774.619140625 487.509765625 774.619140625 c 1,0,-1
EndSplineSet
Validated: 3073
EndChar

StartChar: Hook08
Encoding: 560 129288 14
Width: 692
Flags: W
LayerCount: 2
Fore
SplineSet
656 483.416992188 m 4,0,1
 656 304.205078125 656 304.205078125 502.991210938 127.94921875 c 132,-1,2
 349.982421875 -48.306640625 349.982421875 -48.306640625 95.751953125 -190.137695312 c 4,3,4
 86.3349609375 -195.391601562 86.3349609375 -195.391601562 75.6826171875 -195.391601562 c 132,-1,5
 65.03125 -195.391601562 65.03125 -195.391601562 54.369140625 -184.729492188 c 132,-1,6
 43.7080078125 -174.068359375 43.7080078125 -174.068359375 43.7080078125 -159.563476562 c 4,7,8
 43.7080078125 -139.083007812 43.7080078125 -139.083007812 61.5439453125 -129.049804688 c 4,9,10
 304.465820312 7.59375 304.465820312 7.59375 444.740234375 169.184570312 c 132,-1,11
 585.013671875 330.774414062 585.013671875 330.774414062 585.013671875 483.416992188 c 4,12,13
 585.013671875 585.567382812 585.013671875 585.567382812 534.49609375 654.751953125 c 4,14,15
 511.276367188 686.551757812 511.276367188 686.551757812 471.125976562 705.534179688 c 132,-1,16
 430.975585938 724.517578125 430.975585938 724.517578125 374.119140625 724.517578125 c 132,-1,17
 317.263671875 724.517578125 317.263671875 724.517578125 269.549804688 686.258789062 c 132,-1,18
 221.836914062 648.000976562 221.836914062 648.000976562 197.37109375 588.370117188 c 132,-1,19
 172.90625 528.73828125 172.90625 528.73828125 172.90625 469.280273438 c 132,-1,20
 172.90625 409.823242188 172.90625 409.823242188 189.076171875 366.494140625 c 4,21,22
 191.684570312 359.504882812 191.684570312 359.504882812 191.684570312 349.810546875 c 132,-1,23
 191.684570312 340.1171875 191.684570312 340.1171875 183.668945312 332.102539062 c 4,24,25
 170.048828125 318.481445312 170.048828125 318.481445312 155.649414062 318.481445312 c 132,-1,26
 141.250976562 318.481445312 141.250976562 318.481445312 133.234375 326.498046875 c 132,-1,27
 125.21875 334.513671875 125.21875 334.513671875 122.573242188 341.602539062 c 4,28,29
 101.919921875 396.9453125 101.919921875 396.9453125 101.919921875 469.861328125 c 132,-1,30
 101.919921875 542.77734375 101.919921875 542.77734375 132.495117188 617.333984375 c 132,-1,31
 163.0703125 691.890625 163.0703125 691.890625 227.670898438 743.697265625 c 132,-1,32
 292.270507812 795.502929688 292.270507812 795.502929688 369.635742188 795.502929688 c 4,33,34
 519.641601562 795.502929688 519.641601562 795.502929688 590.983398438 697.7734375 c 4,35,36
 656 608.709960938 656 608.709960938 656 483.416992188 c 4,0,1
EndSplineSet
Validated: 3073
EndChar

StartChar: HookDot
Encoding: 566 -1 15
Width: 692
Flags: W
HStem: 406.571 156.123<323.513 431.033>
VStem: 299.212 156.123<430.873 538.392>
LayerCount: 2
Fore
SplineSet
299.211914062 484.6328125 m 132,-1,1
 299.211914062 516.966796875 299.211914062 516.966796875 322.075195312 539.830078125 c 132,-1,2
 344.939453125 562.694335938 344.939453125 562.694335938 377.2734375 562.694335938 c 132,-1,3
 409.607421875 562.694335938 409.607421875 562.694335938 432.471679688 539.830078125 c 132,-1,4
 455.334960938 516.966796875 455.334960938 516.966796875 455.334960938 484.6328125 c 132,-1,5
 455.334960938 452.297851562 455.334960938 452.297851562 432.471679688 429.434570312 c 132,-1,6
 409.607421875 406.571289062 409.607421875 406.571289062 377.2734375 406.571289062 c 132,-1,7
 344.939453125 406.571289062 344.939453125 406.571289062 322.075195312 429.434570312 c 132,-1,0
 299.211914062 452.297851562 299.211914062 452.297851562 299.211914062 484.6328125 c 132,-1,1
EndSplineSet
Validated: 3073
EndChar

StartChar: HookNotch
Encoding: 567 -1 16
Width: 692
Flags: W
HStem: -161.422 257.023
VStem: 171.372 204.159
LayerCount: 2
Fore
SplineSet
369.681640625 -120.015625 m 6,0,1
 375.53125 -127.915039062 375.53125 -127.915039062 375.53125 -136.09375 c 132,-1,2
 375.53125 -144.272460938 375.53125 -144.272460938 366.956054688 -152.84765625 c 132,-1,3
 358.380859375 -161.421875 358.380859375 -161.421875 348.874023438 -161.421875 c 4,4,5
 336.876953125 -161.421875 336.876953125 -161.421875 328.661132812 -150.327148438 c 6,6,-1
 177.221679688 54.19140625 l 6,7,8
 171.372070312 62.0908203125 171.372070312 62.0908203125 171.372070312 70.26953125 c 132,-1,9
 171.372070312 78.4482421875 171.372070312 78.4482421875 179.94921875 87.0244140625 c 132,-1,10
 188.526367188 95.6015625 188.526367188 95.6015625 198.029296875 95.6015625 c 4,11,12
 210.025390625 95.6015625 210.025390625 95.6015625 218.2421875 84.50390625 c 6,13,-1
 369.681640625 -120.015625 l 6,0,1
EndSplineSet
Validated: 3073
EndChar

StartChar: TotoPA
Encoding: 470 123536 19
Width: 618
Flags: W
HStem: 92 110<109.131 188.644> 468 105<217.378 409.593>
VStem: 519 55<210.166 375.868>
LayerCount: 2
Fore
SplineSet
291 31 m 0,0,1
 292.9995 35.00005 292.9995 35.00005 296 42 c 0,2,3
 297.9995 48 297.9995 48 301 54 c 1,4,5
 386.0005 90 386.0005 90 453 153 c 0,6,7
 519 216 519 216 519 295 c 0,8,9
 519 371.9995 519 371.9995 459 420 c 0,10,11
 400.0005 468 400.0005 468 318 468 c 0,12,13
 274.0005 468 274.0005 468 239 455 c 0,14,15
 204.0005 443 204.0005 443 178 422 c 0,16,17
 130 383 130 383 113 322 c 0,18,19
 96.9995 260.9995 96.9995 260.9995 114 202 c 1,20,-1
 148 202 l 1,21,-1
 187 202 l 1,22,23
 214 155.0005 214 155.0005 196 124 c 0,24,25
 176.9995 92.0005 176.9995 92.0005 141 92 c 0,26,27
 123 92 123 92 108 102 c 0,28,29
 94.00005 111 94.00005 111 82 127 c 0,30,31
 61 155.9995 61 155.9995 51 200 c 0,32,33
 40.99995 245 40.99995 245 41 286 c 0,34,35
 41 358 41 358 70 422 c 0,36,37
 100 486.9995 100 486.9995 154 527 c 0,38,39
 184 548 184 548 220 561 c 0,40,41
 256 573 256 573 299 573 c 0,42,43
 348.0005 573 348.0005 573 388 560 c 0,44,45
 428.0005 546.0005 428.0005 546.0005 459 523 c 0,46,47
 517.0005 481 517.0005 481 545 412 c 0,48,49
 573.9995 344.0005 573.9995 344.0005 574 271 c 0,50,51
 574 164.9995 574 164.9995 527 104 c 0,52,53
 479 42.00005 479 42.00005 401 -5 c 1,54,55
 423.9995 -32 423.9995 -32 463 -77 c 0,56,57
 502 -123.0005 502 -123.0005 526 -150 c 1,58,59
 524.9995 -168 524.9995 -168 523 -200 c 0,60,61
 521.0005 -231.0005 521.0005 -231.0005 520 -250 c 0,62,63
 515.9995 -251.9995 515.9995 -251.9995 509 -255 c 0,64,65
 501.9995 -259.0005 501.9995 -259.0005 497 -261 c 1,66,67
 471.9995 -226.0005 471.9995 -226.0005 434 -172 c 128,-1,68
 396.0005 -118 396.0005 -118 360 -66 c 0,69,70
 340.0005 -37.99995 340.0005 -37.99995 322 -13 c 128,-1,71
 304 12.000005 304 12.000005 291 31 c 0,0,1
319 350 m 1,72,73
 329.9995 336.9995 329.9995 336.9995 346 316 c 0,74,75
 361 296.0005 361 296.0005 375 277 c 1,76,77
 355.0005 263.9995 355.0005 263.9995 337 248 c 0,78,79
 317.9995 231.9995 317.9995 231.9995 301 213 c 1,80,-1
 293 213 l 1,81,-1
 285 213 l 1,82,83
 274.9995 225 274.9995 225 260 245 c 0,84,85
 243.9995 264.9995 243.9995 264.9995 234 277 c 1,86,87
 253.0005 298 253.0005 298 275 317 c 0,88,89
 296 335 296 335 319 350 c 1,72,73
EndSplineSet
Validated: 19489
EndChar

StartChar: TotoBA
Encoding: 471 123537 20
Width: 588
Flags: W
HStem: 1 106<79 80 152 279.986> 475 105<247.883 413.054>
VStem: 80 86<-191 -1.87549> 80 72<-191 0> 80 62<110 356.219> 493 57<244.742 403.031>
LayerCount: 2
Fore
SplineSet
145 110 m 1,0,1
 275.0005 119 275.0005 119 350 151 c 128,-1,2
 425 182.9995 425 182.9995 459 226 c 0,3,4
 477 248.0005 477 248.0005 485 273 c 0,5,6
 492.9995 297 492.9995 297 493 321 c 0,7,8
 493 394.0005 493 394.0005 444 435 c 0,9,10
 394.0005 475.0005 394.0005 475.0005 334 475 c 0,11,12
 250 475 250 475 196 412 c 0,13,14
 142 350.0005 142 350.0005 142 222 c 0,15,16
 142 200 142 200 143 171 c 128,-1,17
 144 142 144 142 145 110 c 1,0,1
80 -191 m 1,18,-1
 80 -95 l 1,19,-1
 80 1 l 1,20,-1
 79 1 l 1,21,-1
 39 41 l 1,22,-1
 -1 81 l 1,23,-1
 -1 93 l 2,24,25
 -1 100.99995 -1 100.99995 0 107 c 1,26,27
 21 105.9995 21 105.9995 41 106 c 128,-1,28
 61 106 61 106 80 107 c 1,29,-1
 80 175 l 1,30,-1
 80 253 l 2,31,32
 80 406 80 406 142 493 c 128,-1,33
 203.9995 580 203.9995 580 316 580 c 0,34,35
 359.0005 580 359.0005 580 394 567 c 0,36,37
 428.9995 553.0005 428.9995 553.0005 456 531 c 0,38,39
 505.0005 489 505.0005 489 528 425 c 0,40,41
 550.0005 360.9995 550.0005 360.9995 550 302 c 0,42,43
 550 237.0005 550 237.0005 518 170 c 0,44,45
 486.0005 102.0005 486.0005 102.0005 403 57 c 0,46,47
 358 31.99995 358 31.99995 296 17 c 128,-1,48
 234.0005 2 234.0005 2 152 0 c 1,49,50
 155 -60 155 -60 159 -122 c 0,51,52
 163.0005 -185 163.0005 -185 166 -242 c 1,53,54
 162 -245 162 -245 155 -249 c 128,-1,55
 147.9995 -253.0005 147.9995 -253.0005 144 -255 c 1,56,-1
 112 -223 l 1,57,-1
 80 -191 l 1,18,-1
EndSplineSet
Validated: 19489
EndChar

StartChar: TotoTA
Encoding: 472 123538 21
Width: 504
Flags: W
HStem: 149 91<153.094 220 263 343.991> 477 97<176.164 358.715>
VStem: 45 55<286.053 407.125> 220 73<7.64281 137.3> 415 55<305.367 430.297>
LayerCount: 2
Fore
SplineSet
269 477 m 0,0,1
 192.9995 477 192.9995 477 147 435 c 0,2,3
 100.0005 394.0005 100.0005 394.0005 100 344 c 0,4,5
 100 294.9995 100 294.9995 143 267 c 0,6,7
 186.0005 240 186.0005 240 246 240 c 0,8,9
 322.9995 240 322.9995 240 369 279 c 0,10,11
 415.0005 319.0005 415.0005 319.0005 415 373 c 0,12,13
 415 422.0005 415 422.0005 372 449 c 0,14,15
 328.9995 477.0005 328.9995 477.0005 269 477 c 0,0,1
273 -23 m 1,16,17
 262.9995 -12.99995 262.9995 -12.99995 246 3 c 0,18,19
 229.9995 19.99995 229.9995 19.99995 220 30 c 1,20,-1
 220 86 l 1,21,-1
 220 149 l 1,22,23
 131.0005 162.9995 131.0005 162.9995 88 226 c 0,24,25
 44.99995 290.0005 44.99995 290.0005 45 364 c 0,26,27
 45 449.0005 45 449.0005 101 511 c 0,28,29
 156.0005 574 156.0005 574 253 574 c 0,30,31
 362.9995 574 362.9995 574 416 506 c 0,32,33
 470 438.9995 470 438.9995 470 356 c 0,34,35
 470 270.9995 470 270.9995 414 208 c 0,36,37
 358.9995 145 358.9995 145 263 145 c 1,38,39
 269 140.0005 269 140.0005 278 130 c 0,40,41
 288.0005 121 288.0005 121 293 115 c 1,42,-1
 293 51 l 1,43,-1
 293 -13 l 1,44,-1
 283 -18 l 1,45,-1
 273 -23 l 1,16,17
EndSplineSet
Validated: 19489
EndChar

StartChar: TotoDA
Encoding: 473 123539 22
Width: 546
Flags: W
HStem: -107 95<165.549 352.353> 224 95<184.248 228 304 370.906> 478 100<100 228 274 424>
VStem: 55 55<32.9702 155.715> 228 76<315.484 448> 424 55<54.9758 179.03>
LayerCount: 2
Fore
SplineSet
273 -107 m 0,0,1
 160.9995 -107 160.9995 -107 108 -39 c 128,-1,2
 55.00005 28.999995 55.00005 28.999995 55 112 c 0,3,4
 55 188.0005 55 188.0005 101 248 c 128,-1,5
 147.0005 308 147.0005 308 228 319 c 1,6,-1
 228 399 l 1,7,-1
 228 478 l 1,8,-1
 164 478 l 1,9,-1
 100 478 l 1,10,-1
 60 518 l 1,11,-1
 20 558 l 1,12,13
 21.99995 562.0005 21.99995 562.0005 26 568 c 128,-1,14
 30.00005 574 30.00005 574 32 578 c 1,15,-1
 92 578 l 1,16,-1
 163 578 l 1,17,-1
 304 578 l 1,18,-1
 424 578 l 1,19,-1
 464 538 l 1,20,-1
 504 498 l 1,21,22
 502.0005 493.9995 502.0005 493.9995 498 488 c 128,-1,23
 493.9995 482 493.9995 482 492 478 c 1,24,-1
 383 478 l 1,25,-1
 274 478 l 1,26,-1
 289 463 l 1,27,-1
 304 448 l 1,28,-1
 304 387 l 1,29,-1
 304 319 l 1,30,31
 392.9995 305.0005 392.9995 305.0005 436 241 c 0,32,33
 479.0005 178 479.0005 178 479 103 c 0,34,35
 479 19 479 19 424 -44 c 128,-1,36
 368.9995 -107 368.9995 -107 273 -107 c 0,0,1
278 224 m 0,37,38
 201.9995 224 201.9995 224 156 183 c 0,39,40
 109.9995 141 109.9995 141 110 91 c 0,41,42
 110 41.99995 110 41.99995 153 15 c 128,-1,43
 196.0005 -12 196.0005 -12 256 -12 c 0,44,45
 332.0005 -12 332.0005 -12 378 27 c 0,46,47
 424.0005 67.00005 424.0005 67.00005 424 121 c 0,48,49
 424 170.0005 424 170.0005 381 197 c 128,-1,50
 337.9995 224 337.9995 224 278 224 c 0,37,38
EndSplineSet
Validated: 19489
EndChar

StartChar: TotoKA
Encoding: 474 123540 23
Width: 567
Flags: W
HStem: 471 105<226.477 395.988>
VStem: 61 86<-195 5.02878> 61 64<-147.119 358.007> 475 56<214.272 398.677>
LayerCount: 2
Fore
SplineSet
147 -246 m 1,0,1
 142.9995 -247.9995 142.9995 -247.9995 136 -252 c 128,-1,2
 128.9995 -256.0005 128.9995 -256.0005 125 -259 c 1,3,-1
 93 -227 l 1,4,-1
 61 -195 l 1,5,-1
 61 13 l 1,6,-1
 61 249 l 2,7,8
 61 403.0005 61 403.0005 124 490 c 0,9,10
 185.9995 575.9995 185.9995 575.9995 297 576 c 0,11,12
 340.9995 576 340.9995 576 376 563 c 128,-1,13
 410.9995 549.9995 410.9995 549.9995 437 527 c 0,14,15
 486.9995 483.9995 486.9995 483.9995 509 419 c 128,-1,16
 531.0005 354.0005 531.0005 354.0005 531 291 c 0,17,18
 531 231 531 231 506 149 c 0,19,20
 480.9995 66.00005 480.9995 66.00005 410 -3 c 1,21,22
 387.0005 15 387.0005 15 366 37 c 0,23,24
 343.9995 58 343.9995 58 330 77 c 1,25,26
 385.9995 114.0005 385.9995 114.0005 431 175 c 0,27,28
 474.9995 236.9995 474.9995 236.9995 475 314 c 0,29,30
 475 390.0005 475 390.0005 425 431 c 0,31,32
 375.9995 471.0005 375.9995 471.0005 315 471 c 0,33,34
 231 471 231 471 177 409 c 0,35,36
 123 346 123 346 123 218 c 0,37,38
 123 192.0005 123 192.0005 125 156 c 0,39,40
 126.0005 121.0005 126.0005 121.0005 128 81 c 0,41,42
 132.0005 4.99995 132.0005 4.99995 138 -81 c 0,43,44
 142.9995 -166.9995 142.9995 -166.9995 147 -246 c 1,0,1
EndSplineSet
Validated: 19489
EndChar

StartChar: TotoGA
Encoding: 475 123541 24
Width: 453
Flags: W
HStem: -258 93<115.129 302.708> 15 89<146.614 192 260 341.231> 211 91<115.129 192 233 302.708> 482 92<147.65 340.672>
VStem: 24 55<-137.65 -41.9871 330.546 425.052> 192 68<103.615 203.947> 373 55<-106.202 -13.3096 361.446 453.761>
CounterMasks: 1 0e
LayerCount: 2
Fore
SplineSet
24 -79 m 0,0,1
 24 -11.00005 24 -11.00005 68 41 c 0,2,3
 113 92 113 92 192 104 c 1,4,-1
 192 154 l 1,5,-1
 192 211 l 1,6,7
 102 218.0005 102 218.0005 63 270 c 128,-1,8
 24 322.0005 24 322.0005 24 388 c 0,9,10
 24 464.9995 24 464.9995 79 519 c 0,11,12
 134.9995 574.0005 134.9995 574.0005 232 574 c 0,13,14
 338.0005 574 338.0005 574 383 519 c 0,15,16
 428 465 428 465 428 396 c 0,17,18
 428 321 428 321 376 268 c 0,19,20
 323.9995 214 323.9995 214 233 210 c 1,21,22
 237.9995 204 237.9995 204 246 195 c 0,23,24
 255 184.9995 255 184.9995 260 180 c 1,25,-1
 260 145 l 1,26,-1
 260 106 l 1,27,28
 350 98.0005 350 98.0005 389 45 c 0,29,30
 428 -7.00005 428 -7.00005 428 -71 c 0,31,32
 428 -149 428 -149 372 -203 c 0,33,34
 316.9995 -258.0005 316.9995 -258.0005 219 -258 c 0,35,36
 114 -258 114 -258 69 -204 c 0,37,38
 24 -148.9995 24 -148.9995 24 -79 c 0,0,1
202 302 m 0,39,40
 277 302 277 302 325 337 c 0,41,42
 373 373 373 373 373 411 c 0,43,44
 373 444 373 444 338 463 c 128,-1,45
 303.0005 482.0005 303.0005 482.0005 249 482 c 0,46,47
 174 482 174 482 126 448 c 0,48,49
 79.00005 413.9995 79.00005 413.9995 79 374 c 0,50,51
 79 339.9995 79 339.9995 114 321 c 0,52,53
 150 301.9995 150 301.9995 202 302 c 0,39,40
202 -165 m 0,54,55
 277 -165 277 -165 325 -130 c 0,56,57
 373 -94 373 -94 373 -56 c 0,58,59
 373 -23 373 -23 338 -4 c 128,-1,60
 303.0005 15.000005 303.0005 15.000005 249 15 c 0,61,62
 174 15 174 15 126 -19 c 0,63,64
 79.00005 -53.00005 79.00005 -53.00005 79 -93 c 0,65,66
 79 -127.9995 79 -127.9995 114 -147 c 0,67,68
 150 -165 150 -165 202 -165 c 0,54,55
EndSplineSet
Validated: 19489
EndChar

StartChar: TotoMA
Encoding: 476 123542 25
Width: 528
Flags: W
HStem: 459 100<160 424.581>
VStem: 94 80<53 387.558> 94 73<69.4023 458.06> 415 82<53 424.952> 420 77<80.8657 459>
LayerCount: 2
Fore
SplineSet
474 -11 m 1,0,1
 462 1 462 1 443 21 c 2,2,-1
 411 53 l 1,3,4
 413 102 413 102 415 177 c 0,5,6
 418 252 418 252 420 324 c 0,7,8
 421.9995 363 421.9995 363 423 398 c 128,-1,9
 424 433 424 433 425 459 c 1,10,-1
 385 459 l 1,11,-1
 337 459 l 1,12,-1
 241 459 l 1,13,-1
 160 459 l 1,14,15
 161.9995 429 161.9995 429 163 390 c 0,16,17
 165 351 165 351 167 307 c 0,18,19
 170 226 170 226 174 142 c 128,-1,20
 178.0005 58 178.0005 58 180 2 c 1,21,22
 175.9995 5.0000000007e-07 175.9995 5.0000000007e-07 169 -4 c 128,-1,23
 161.9995 -8.000005 161.9995 -8.000005 157 -11 c 1,24,25
 145 1 145 1 126 21 c 2,26,-1
 94 53 l 1,27,-1
 94 177 l 1,28,-1
 94 324 l 1,29,-1
 94 398 l 1,30,-1
 94 459 l 1,31,-1
 54 499 l 1,32,-1
 14 539 l 1,33,34
 15.99995 543.0005 15.99995 543.0005 20 549 c 0,35,36
 24.00005 556.0005 24.00005 556.0005 26 559 c 2,37,-1
 146 559 l 1,38,-1
 287 559 l 1,39,-1
 358 559 l 1,40,-1
 417 559 l 1,41,42
 432 545.0005 432 545.0005 457 521 c 0,43,44
 482.0005 495.9995 482.0005 495.9995 497 482 c 1,45,-1
 497 409 l 1,46,-1
 497 322 l 1,47,-1
 497 149 l 1,48,-1
 497 2 l 1,49,50
 492.9995 5.0000000007e-07 492.9995 5.0000000007e-07 486 -4 c 128,-1,51
 478.9995 -8.000005 478.9995 -8.000005 474 -11 c 1,0,1
EndSplineSet
Validated: 19457
EndChar

StartChar: TotoNA
Encoding: 477 123543 26
Width: 865
Flags: W
HStem: 1 96<149.728 298.234 549.622 698.546> 336 95<168.869 318 569.766 717.895>
VStem: 51 55<138.529 271.695> 361 55<162.94 294.241> 453 53<140.219 270.656> 762 56<161.469 293.731>
LayerCount: 2
Fore
SplineSet
658 719 m 1,0,1
 662 716 662 716 669 713 c 0,2,3
 676.0005 708.9995 676.0005 708.9995 680 706 c 0,4,5
 681.0005 688 681.0005 688 683 657 c 128,-1,6
 684.9995 625.9995 684.9995 625.9995 686 607 c 1,7,8
 669.0005 596.0005 669.0005 596.0005 647 582 c 128,-1,9
 624.9995 568.0005 624.9995 568.0005 600 552 c 0,10,11
 555 523.0005 555 523.0005 508 492 c 0,12,13
 460 462 460 462 429 441 c 1,14,-1
 418 441 l 1,15,-1
 406 441 l 1,16,17
 404.9995 453 404.9995 453 403 471 c 0,18,19
 400 490.0005 400 490.0005 399 501 c 1,20,21
 457.0005 555 457.0005 555 522 609 c 128,-1,22
 586.9995 663 586.9995 663 658 719 c 1,0,1
639 431 m 0,23,24
 643.0005 431 643.0005 431 648 430 c 0,25,26
 736.0005 428.0005 736.0005 428.0005 776 369 c 0,27,28
 818 307.0005 818 307.0005 818 226 c 0,29,30
 818 134.9995 818 134.9995 770 68 c 128,-1,31
 722 0.99995 722 0.99995 633 1 c 0,32,33
 538.9995 1 538.9995 1 496 62 c 128,-1,34
 452.9995 123.0005 452.9995 123.0005 453 207 c 0,35,36
 453 295.9995 453 295.9995 502 363 c 0,37,38
 551.0005 430.9995 551.0005 430.9995 639 431 c 0,23,24
236 431 m 0,39,40
 330.9995 431 330.9995 431 374 369 c 0,41,42
 416 307.0005 416 307.0005 416 226 c 0,43,44
 416 134.9995 416 134.9995 368 68 c 0,45,46
 318.9995 0.99995 318.9995 0.99995 231 1 c 0,47,48
 136.0005 1 136.0005 1 93 63 c 0,49,50
 51 124.0005 51 124.0005 51 207 c 0,51,52
 51 297 51 297 100 364 c 0,53,54
 148 431.0005 148 431.0005 236 431 c 0,39,40
222 97 m 0,55,56
 285 97 285 97 323 140 c 0,57,58
 360.9995 183.9995 360.9995 183.9995 361 231 c 0,59,60
 361 276 361 276 329 306 c 0,61,62
 296 336 296 336 246 336 c 0,63,64
 183 336 183 336 144 294 c 0,65,66
 106.0005 250.9995 106.0005 250.9995 106 202 c 0,67,68
 106 155.9995 106 155.9995 139 127 c 0,69,70
 172 97 172 97 222 97 c 0,55,56
622 97 m 0,71,72
 685 97 685 97 724 140 c 0,73,74
 761.9995 183.0005 761.9995 183.0005 762 231 c 0,75,76
 762 276 762 276 729 306 c 0,77,78
 697.0005 336 697.0005 336 646 336 c 0,79,80
 583 336 583 336 545 293 c 0,81,82
 506 251 506 251 506 202 c 0,83,84
 506 155.9995 506 155.9995 540 126 c 0,85,86
 573 97.0005 573 97.0005 622 97 c 0,71,72
EndSplineSet
Validated: 19489
EndChar

StartChar: TotoNGA
Encoding: 478 123544 27
Width: 495
Flags: W
HStem: 2 95<147.549 334.353> 333 98<165.73 350.496>
VStem: 37 55<141.97 264.143> 406 55<163.976 286.517>
LayerCount: 2
Fore
SplineSet
367 713 m 0,0,1
 371.0005 711.0005 371.0005 711.0005 377 707 c 0,2,3
 383 704 383 704 387 701 c 0,4,5
 388.0005 683 388.0005 683 390 652 c 0,6,7
 391.0005 620.9995 391.0005 620.9995 393 602 c 1,8,9
 366 588.0005 366 588.0005 325 565 c 0,10,11
 285 543 285 543 246 521 c 0,12,13
 225 510 225 510 206 499 c 0,14,15
 186.9995 488.9995 186.9995 488.9995 173 481 c 1,16,-1
 161 481 l 1,17,-1
 150 481 l 1,18,19
 148 493 148 493 146 514 c 0,20,21
 144.0005 533.9995 144.0005 533.9995 143 546 c 1,22,23
 192 587 192 587 249 628 c 0,24,25
 306 670 306 670 367 713 c 0,0,1
255 2 m 0,26,27
 142.9995 2 142.9995 2 90 70 c 128,-1,28
 37.00005 137.9995 37.00005 137.9995 37 221 c 0,29,30
 37 305 37 305 92 368 c 0,31,32
 147.9995 431 147.9995 431 244 431 c 0,33,34
 277 431 277 431 305 425 c 0,35,36
 371 410 371 410 408 363 c 0,37,38
 460.9995 295.0005 460.9995 295.0005 461 212 c 0,39,40
 461 128 461 128 406 65 c 128,-1,41
 350.9995 2 350.9995 2 255 2 c 0,26,27
260 333 m 0,42,43
 183.9995 333 183.9995 333 138 292 c 0,44,45
 91.9995 250 91.9995 250 92 200 c 0,46,47
 92 150.9995 92 150.9995 135 124 c 128,-1,48
 178.0005 97 178.0005 97 238 97 c 0,49,50
 314.0005 97 314.0005 97 360 136 c 0,51,52
 406.0005 176.0005 406.0005 176.0005 406 230 c 0,53,54
 406 279.0005 406 279.0005 363 306 c 128,-1,55
 319.9995 333 319.9995 333 260 333 c 0,42,43
EndSplineSet
Validated: 19489
EndChar

StartChar: TotoSA
Encoding: 479 123545 28
Width: 659
Flags: W
HStem: 1 95<79.7896 177.646 444.221 546.753>
VStem: 2 47<131.762 170.999> 270 127<331.317 524.854>
LayerCount: 2
Fore
SplineSet
328 185 m 1,0,1
 294 107 294 107 247 54 c 128,-1,2
 200 1 200 1 143 1 c 0,3,4
 118 1 118 1 98 10 c 0,5,6
 78 20 78 20 62 35 c 0,7,8
 34 63 34 63 21 101 c 0,9,10
 7 139 7 139 2 164 c 1,11,12
 11 167 11 167 24 171 c 128,-1,13
 37 175 37 175 49 179 c 1,14,15
 56 156 56 156 74 126 c 128,-1,16
 92 96 92 96 126 96 c 0,17,18
 159 96 159 96 189 129 c 0,19,20
 219 163 219 163 244 208 c 0,21,22
 257 233 257 233 268 259 c 0,23,24
 280 284 280 284 288 308 c 1,25,26
 279 346 279 346 274 380 c 0,27,28
 270 413 270 413 270 437 c 0,29,30
 270 480 270 480 279 517 c 0,31,32
 287 554 287 554 295 571 c 0,33,34
 299 573 299 573 306 577 c 128,-1,35
 313 581 313 581 317 583 c 1,36,37
 332 568 332 568 355 546 c 0,38,39
 377 523 377 523 397 503 c 1,40,41
 397 450 397 450 387 388 c 0,42,43
 376 325 376 325 357 264 c 1,44,45
 369 232 369 232 389 193 c 128,-1,46
 409 154 409 154 434 128 c 0,47,48
 448 113 448 113 462 104 c 0,49,50
 477 96 477 96 492 96 c 0,51,52
 509 96 509 96 522 102 c 0,53,54
 536 108 536 108 546 117 c 0,55,56
 565 134 565 134 576 158 c 0,57,58
 586 181 586 181 592 194 c 1,59,-1
 602 194 l 1,60,-1
 612 194 l 1,61,62
 619 182 619 182 631 166 c 0,63,64
 642 149 642 149 652 134 c 1,65,66
 649 124 649 124 636 92 c 0,67,68
 624 60 624 60 595 34 c 0,69,70
 580 19 580 19 560 10 c 128,-1,71
 540 1 540 1 514 1 c 0,72,73
 452 1 452 1 406 56 c 0,74,75
 359 111 359 111 328 185 c 1,0,1
EndSplineSet
Validated: 3073
EndChar

StartChar: TotoCHA
Encoding: 480 123546 29
Width: 482
Flags: W
VStem: 357 76<129 436>
LayerCount: 2
Fore
SplineSet
5 318 m 1,0,1
 99.00005 370.9995 99.00005 370.9995 188 438 c 128,-1,2
 276.9995 505.0005 276.9995 505.0005 357 569 c 1,3,-1
 369 569 l 1,4,-1
 380 569 l 1,5,6
 390.0005 558.9995 390.0005 558.9995 407 543 c 0,7,8
 423.0005 526.0005 423.0005 526.0005 433 516 c 1,9,-1
 433 439 l 1,10,-1
 433 346 l 1,11,-1
 433 162 l 1,12,-1
 433 6 l 1,13,14
 428.9995 4.000005 428.9995 4.000005 423 0 c 0,15,16
 415.9995 -3 415.9995 -3 410 -7 c 1,17,18
 338 53 338 53 254 110 c 128,-1,19
 170 167 170 167 78 218 c 1,20,21
 64.99995 233 64.99995 233 42 258 c 128,-1,22
 19.00005 283.0005 19.00005 283.0005 5 298 c 1,23,-1
 5 308 l 1,24,-1
 5 318 l 1,0,1
129 274 m 1,25,26
 199.0005 233.9995 199.0005 233.9995 243 205 c 128,-1,27
 286.9995 176.0005 286.9995 176.0005 347 127 c 0,28,29
 349 128 349 128 352 129 c 0,30,31
 355 129 355 129 357 130 c 2,32,-1
 357 177 l 1,33,-1
 357 232 l 1,34,-1
 357 343 l 1,35,-1
 357 436 l 1,36,-1
 353 438 l 2,37,38
 350 438 350 438 347 439 c 0,39,40
 297.9995 398.0005 297.9995 398.0005 242 359 c 128,-1,41
 186.0005 320 186.0005 320 129 284 c 1,42,-1
 129 280 l 1,43,-1
 129 274 l 1,25,26
EndSplineSet
Validated: 19457
EndChar

StartChar: TotoYA
Encoding: 481 123547 30
Width: 589
Flags: W
HStem: 476 100<164 338 407 487>
LayerCount: 2
Fore
SplineSet
81 218 m 1,0,1
 73.00005 234.0005 73.00005 234.0005 60 262 c 0,2,3
 46.00005 289 46.00005 289 38 306 c 1,4,-1
 44 315 l 2,5,6
 47 321 47 321 51 326 c 1,7,8
 108 297.9995 108 297.9995 154 245 c 0,9,10
 199 192.9995 199 192.9995 225 142 c 1,11,-1
 229 142 l 1,12,-1
 233 142 l 1,13,14
 252.0005 224.9995 252.0005 224.9995 278 309 c 0,15,16
 305 393 305 393 338 476 c 1,17,-1
 251 476 l 1,18,-1
 164 476 l 1,19,-1
 124 516 l 1,20,-1
 84 556 l 2,21,22
 85.99995 559 85.99995 559 90 566 c 0,23,24
 94.00005 572 94.00005 572 96 576 c 1,25,-1
 155 576 l 1,26,-1
 226 576 l 1,27,-1
 367 576 l 1,28,-1
 487 576 l 1,29,-1
 527 536 l 1,30,-1
 567 496 l 1,31,32
 564 492 564 492 560 486 c 0,33,34
 555.9995 478.9995 555.9995 478.9995 554 476 c 2,35,-1
 481 476 l 1,36,-1
 407 476 l 1,37,38
 410 470 410 470 415 461 c 0,39,40
 419 453 419 453 423 446 c 1,41,42
 373.9995 333.0005 373.9995 333.0005 338 219 c 128,-1,43
 302 105 302 105 281 -7 c 0,44,45
 276.9995 -10 276.9995 -10 271 -14 c 128,-1,46
 265 -18.00005 265 -18.00005 261 -20 c 1,47,48
 228 47.00005 228 47.00005 176 117 c 0,49,50
 123.0005 186 123.0005 186 81 218 c 1,0,1
EndSplineSet
Validated: 19457
EndChar

StartChar: TotoWA
Encoding: 482 123548 31
Width: 612
Flags: W
HStem: 99 110<107.261 186.996> 474 105<213.21 409.643>
VStem: 39 65<209.969 364.437> 517 55<216.402 384.119>
LayerCount: 2
Fore
SplineSet
289 38 m 1,0,-1
 294 48 l 2,1,2
 297 54 297 54 299 60 c 1,3,4
 384.9995 96 384.9995 96 451 159 c 128,-1,5
 517 222 517 222 517 301 c 0,6,7
 517 379 517 379 458 426 c 0,8,9
 398 474 398 474 316 474 c 0,10,11
 235 474 235 474 184 434 c 128,-1,12
 133 393.9995 133 393.9995 114 337 c 0,13,14
 103.9995 307 103.9995 307 104 274 c 0,15,16
 102.9995 239.9995 102.9995 239.9995 112 209 c 1,17,-1
 146 209 l 1,18,-1
 185 209 l 1,19,20
 213.0005 161 213.0005 161 194 130 c 128,-1,21
 174.9995 98.9995 174.9995 98.9995 140 99 c 0,22,23
 105.9995 99 105.9995 99 84 129 c 128,-1,24
 61.99995 159 61.99995 159 51 200 c 0,25,26
 45 223 45 223 42 246 c 0,27,28
 39 270 39 270 39 292 c 0,29,30
 39 331 39 331 48 368 c 0,31,32
 55.99995 405.9995 55.99995 405.9995 73 438 c 0,33,34
 104.00005 499.9995 104.00005 499.9995 161 539 c 0,35,36
 218 579.0005 218 579.0005 297 579 c 0,37,38
 388.0005 579 388.0005 579 448 536 c 0,39,40
 509.0005 492.9995 509.0005 492.9995 539 429 c 0,41,42
 555.9995 394.0005 555.9995 394.0005 564 355 c 0,43,44
 571.9995 317.0005 571.9995 317.0005 572 278 c 0,45,46
 572 171.0005 572 171.0005 525 110 c 128,-1,47
 478.0005 48.99995 478.0005 48.99995 399 1 c 1,48,49
 423 -26 423 -26 462 -71 c 128,-1,50
 501 -116 501 -116 524 -143 c 1,51,52
 522.9995 -162.0005 522.9995 -162.0005 521 -193 c 0,53,54
 519.0005 -224.9995 519.0005 -224.9995 518 -243 c 0,55,56
 514 -246 514 -246 507 -249 c 0,57,58
 499.9995 -253.0005 499.9995 -253.0005 496 -255 c 1,59,60
 482.0005 -235.9995 482.0005 -235.9995 464 -211 c 0,61,62
 447.0005 -185.9995 447.0005 -185.9995 427 -158 c 0,63,64
 389.9995 -105.9995 389.9995 -105.9995 352 -52 c 128,-1,65
 314.0005 2 314.0005 2 289 38 c 1,0,-1
221 -86 m 1,66,-1
 231 -86 l 1,67,-1
 241 -86 l 1,68,69
 260.0005 -110 260.0005 -110 290 -146 c 128,-1,70
 320 -182 320 -182 348 -216 c 0,71,72
 363 -235.0005 363 -235.0005 377 -252 c 0,73,74
 390.9995 -268.0005 390.9995 -268.0005 402 -281 c 1,75,76
 400 -300 400 -300 398 -331 c 128,-1,77
 396 -362 396 -362 394 -381 c 0,78,79
 389.9995 -382.9995 389.9995 -382.9995 384 -387 c 0,80,81
 376.9995 -390 376.9995 -390 372 -393 c 1,82,83
 328 -331 328 -331 288 -269 c 0,84,85
 249 -207.0005 249 -207.0005 213 -146 c 1,86,87
 215 -135 215 -135 217 -116 c 0,88,89
 219 -98 219 -98 221 -86 c 1,66,-1
EndSplineSet
Validated: 19489
EndChar

StartChar: TotoJA
Encoding: 483 123549 32
Width: 574
Flags: W
HStem: -254 92<121.847 305.692> -234 95<488.027 594.879> 29 92<153.95 312.866> 198 93<124.705 309.47> 482 92<159.738 348.857>
VStem: 34 55<-132.201 -27.4781 321.642 421.616> 383 55<354.212 452.374>
LayerCount: 2
Fore
SplineSet
243 574 m 0,0,1
 348 574 348 574 393 518 c 128,-1,2
 438 462.0005 438 462.0005 438 391 c 0,3,4
 438 311.0005 438 311.0005 383 255 c 0,5,6
 327.0005 198 327.0005 198 229 198 c 0,7,8
 124 198 124 198 79 254 c 128,-1,9
 34 309.9995 34 309.9995 34 383 c 0,10,11
 34 462.0005 34 462.0005 90 518 c 0,12,13
 145.0005 573.9995 145.0005 573.9995 243 574 c 0,0,1
213 291 m 0,14,15
 288 291 288 291 335 329 c 0,16,17
 383 366.0005 383 366.0005 383 406 c 0,18,19
 383 442 383 442 348 462 c 128,-1,20
 313.0005 481.9995 313.0005 481.9995 259 482 c 0,21,22
 184 482 184 482 137 446 c 0,23,24
 89 411.0005 89 411.0005 89 368 c 0,25,26
 89 332 89 332 125 311 c 0,27,28
 159.9995 291.0005 159.9995 291.0005 213 291 c 0,14,15
376 -69 m 1,29,30
 352 -28.99995 352 -28.99995 322 0 c 0,31,32
 290.9995 28.99995 290.9995 28.99995 239 29 c 0,33,34
 176 29 176 29 133 -6 c 0,35,36
 89.0005 -40.99995 89.0005 -40.99995 89 -85 c 0,37,38
 89 -122.0005 89 -122.0005 124 -142 c 128,-1,39
 158.9995 -161.9995 158.9995 -161.9995 213 -162 c 0,40,41
 276 -160.9995 276 -160.9995 319 -133 c 0,42,43
 362.0005 -104.0005 362.0005 -104.0005 376 -69 c 1,29,30
412 -133 m 1,44,45
 395.0005 -185.9995 395.0005 -185.9995 349 -220 c 0,46,47
 304 -254.0005 304 -254.0005 229 -254 c 0,48,49
 124 -254 124 -254 79 -198 c 128,-1,50
 34 -142.0005 34 -142.0005 34 -70 c 0,51,52
 34 9.00005 34 9.00005 86 65 c 128,-1,53
 138.0005 120.9995 138.0005 120.9995 235 121 c 2,54,-1
 237 121 l 2,55,56
 289.0005 121 289.0005 121 322 100 c 0,57,58
 356.9995 79 356.9995 79 381 48 c 0,59,60
 409.9995 10.99995 409.9995 10.99995 430 -32 c 0,61,62
 449.0005 -75.00005 449.0005 -75.00005 474 -104 c 0,63,64
 487.9995 -120.0005 487.9995 -120.0005 504 -129 c 0,65,66
 520.0005 -139.0005 520.0005 -139.0005 542 -139 c 0,67,68
 558.0005 -139 558.0005 -139 571 -133 c 128,-1,69
 584.0005 -127 584.0005 -127 595 -117 c 0,70,71
 614.0005 -100.0005 614.0005 -100.0005 625 -77 c 128,-1,72
 635.9995 -54.00005 635.9995 -54.00005 642 -41 c 1,73,-1
 652 -41 l 1,74,-1
 662 -41 l 1,75,76
 669.0005 -51.99995 669.0005 -51.99995 680 -69 c 0,77,78
 692 -85.99995 692 -85.99995 702 -101 c 1,79,80
 699 -110 699 -110 686 -142 c 0,81,82
 672.0005 -173.9995 672.0005 -173.9995 642 -201 c 0,83,84
 625.0005 -214.9995 625.0005 -214.9995 603 -224 c 0,85,86
 582 -234.0005 582 -234.0005 554 -234 c 0,87,88
 498.9995 -234 498.9995 -234 467 -203 c 0,89,90
 435.9995 -173 435.9995 -173 412 -133 c 1,44,45
EndSplineSet
Validated: 19489
EndChar

StartChar: TotoHA
Encoding: 484 123550 33
Width: 536
Flags: W
HStem: -12 110<111.913 191.833> 471 105<186.138 362.857>
VStem: 31 65<101.613 365.203> 424 76<24.6428 397.238>
LayerCount: 2
Fore
SplineSet
96 251 m 0,0,1
 96 215 96 215 100 176 c 0,2,3
 104.9995 137 104.9995 137 118 98 c 1,4,-1
 152 98 l 1,5,-1
 191 98 l 1,6,7
 218 51.00005 218 51.00005 199 20 c 0,8,9
 181 -11.999995 181 -11.999995 145 -12 c 0,10,11
 112 -12 112 -12 86 26 c 0,12,13
 60.99995 63.99995 60.99995 63.99995 47 123 c 0,14,15
 39.00005 154.0005 39.00005 154.0005 35 189 c 0,16,17
 30.99995 225 30.99995 225 31 261 c 0,18,19
 31 301.9995 31 301.9995 37 342 c 128,-1,20
 43 382.0005 43 382.0005 56 418 c 0,21,22
 81.00005 485.0005 81.00005 485.0005 133 531 c 0,23,24
 185.9995 576 185.9995 576 274 576 c 0,25,26
 392.0005 576 392.0005 576 446 498 c 0,27,28
 500 418.9995 500 418.9995 500 292 c 2,29,-1
 500 249 l 1,30,-1
 500 197 l 1,31,-1
 500 93 l 1,32,-1
 500 6 l 1,33,34
 495.9995 3 495.9995 3 488 0 c 0,35,36
 480.9995 -4.000005 480.9995 -4.000005 477 -7 c 1,37,-1
 450 20 l 2,38,39
 433.9995 36.99995 433.9995 36.99995 424 47 c 1,40,-1
 424 147 l 1,41,-1
 424 261 l 2,42,43
 424 364.0005 424 364.0005 393 418 c 0,44,45
 361.0005 470.9995 361.0005 470.9995 279 471 c 0,46,47
 184.0005 471 184.0005 471 140 406 c 128,-1,48
 96.0005 341.0005 96.0005 341.0005 96 251 c 0,0,1
EndSplineSet
Validated: 19489
EndChar

StartChar: TotoRA
Encoding: 485 123551 34
Width: 449
Flags: W
LayerCount: 2
Fore
SplineSet
384 -3 m 1,0,1
 319.9995 54 319.9995 54 243 112 c 0,2,3
 165 170.9995 165 170.9995 74 222 c 1,4,5
 60.99995 237 60.99995 237 38 262 c 128,-1,6
 15.00005 287.0005 15.00005 287.0005 1 302 c 1,7,-1
 1 312 l 1,8,-1
 1 322 l 1,9,10
 95.00005 374.0005 95.00005 374.0005 186 438 c 128,-1,11
 277.0005 502.0005 277.0005 502.0005 347 573 c 1,12,-1
 358 573 l 1,13,-1
 369 573 l 1,14,15
 381 562.0005 381 562.0005 398 545 c 0,16,17
 414.0005 528.0005 414.0005 528.0005 429 513 c 1,18,19
 405 489 405 489 378 465 c 0,20,21
 350 441 350 441 322 419 c 0,22,23
 269.0005 377 269.0005 377 217 344 c 0,24,25
 166 309.9995 166 309.9995 130 288 c 1,26,-1
 130 284 l 1,27,-1
 130 278 l 1,28,29
 197.9995 237.9995 197.9995 237.9995 280 170 c 0,30,31
 362.9995 102.0005 362.9995 102.0005 423 43 c 1,32,33
 415.9995 34 415.9995 34 405 21 c 0,34,35
 394.0005 9 394.0005 9 384 -3 c 1,0,1
EndSplineSet
Validated: 3073
EndChar

StartChar: TotoLA
Encoding: 486 123552 35
Width: 608
Flags: W
HStem: 96 110<110.469 189.704> 472 105<217.321 412.476>
VStem: 520 55<215.188 380.062>
LayerCount: 2
Fore
SplineSet
292 35 m 1,0,1
 293.9995 39.99995 293.9995 39.99995 297 46 c 128,-1,2
 300 52 300 52 302 58 c 1,3,4
 387.9995 94 387.9995 94 454 157 c 128,-1,5
 520 220 520 220 520 299 c 0,6,7
 520 375.9995 520 375.9995 461 424 c 0,8,9
 401 472 401 472 319 472 c 0,10,11
 275.0005 472 275.0005 472 240 460 c 0,12,13
 205.0005 446.9995 205.0005 446.9995 179 426 c 0,14,15
 131 387 131 387 115 326 c 0,16,17
 98.9995 266 98.9995 266 115 206 c 1,18,-1
 150 206 l 1,19,-1
 188 206 l 1,20,21
 216.0005 159.0005 216.0005 159.0005 197 128 c 0,22,23
 177.9995 96.0005 177.9995 96.0005 143 96 c 0,24,25
 125 96 125 96 110 106 c 0,26,27
 95 115 95 115 84 131 c 0,28,29
 63 159.9995 63 159.9995 52 204 c 0,30,31
 41.99995 249 41.99995 249 42 290 c 0,32,33
 42 362 42 362 72 426 c 0,34,35
 100.99995 490.9995 100.99995 490.9995 156 531 c 0,36,37
 184.9995 553.0005 184.9995 553.0005 221 565 c 0,38,39
 258.0005 577 258.0005 577 300 577 c 0,40,41
 349.0005 577 349.0005 577 389 564 c 128,-1,42
 429.0005 550.9995 429.0005 550.9995 461 528 c 0,43,44
 519.0005 484.9995 519.0005 484.9995 547 417 c 0,45,46
 575.0005 348 575.0005 348 575 275 c 0,47,48
 575 168.9995 575 168.9995 528 108 c 0,49,50
 481.0005 46.00005 481.0005 46.00005 402 -1 c 1,51,52
 426 -28 426 -28 465 -73 c 0,53,54
 504 -119.0005 504 -119.0005 527 -146 c 1,55,56
 525.9995 -164 525.9995 -164 524 -196 c 0,57,58
 522.0005 -227.0005 522.0005 -227.0005 521 -246 c 0,59,60
 516.9995 -247.9995 516.9995 -247.9995 510 -251 c 0,61,62
 502.9995 -255.0005 502.9995 -255.0005 499 -257 c 1,63,64
 485.0005 -237.9995 485.0005 -237.9995 468 -213 c 0,65,66
 450 -187.9995 450 -187.9995 430 -160 c 0,67,68
 394 -107.9995 394 -107.9995 356 -54 c 128,-1,69
 318.0005 0 318.0005 0 292 35 c 1,0,1
EndSplineSet
Validated: 19489
EndChar

StartChar: TotoI
Encoding: 487 123553 36
Width: 406
Flags: W
HStem: 476 96<90.5957 237.51>
VStem: 308 57<355.365 428.031> 319 57<87.3118 167.087>
LayerCount: 2
Fore
SplineSet
291 -259 m 1,0,1
 273 -238 273 -238 250 -211 c 128,-1,2
 227.0005 -184 227.0005 -184 201 -154 c 0,3,4
 154.0005 -98.0005 154.0005 -98.0005 104 -40 c 0,5,6
 54.99995 18.000005 54.99995 18.000005 22 56 c 1,7,8
 25 60.00005 25 60.00005 28 65 c 0,9,10
 32.00005 71 32.00005 71 35 76 c 1,11,12
 74 65.00005 74 65.00005 111 61 c 0,13,14
 148.0005 56.00005 148.0005 56.00005 181 57 c 0,15,16
 242.0005 58.99995 242.0005 58.99995 281 77 c 0,17,18
 318.9995 95 318.9995 95 319 125 c 0,19,20
 319 158 319 158 272 186 c 0,21,22
 224 214.0005 224 214.0005 145 222 c 1,23,24
 131.0005 237 131.0005 237 108 262 c 0,25,26
 84 287.0005 84 287.0005 70 302 c 0,27,28
 71.99995 305 71.99995 305 75 309 c 0,29,30
 78 313.9995 78 313.9995 80 317 c 0,31,32
 97 316 97 316 122 315 c 0,33,34
 147.0005 313.0005 147.0005 313.0005 169 312 c 0,35,36
 196 313.0005 196 313.0005 228 324 c 128,-1,37
 259.9995 334.9995 259.9995 334.9995 282 352 c 0,38,39
 294 361 294 361 301 371 c 128,-1,40
 308 381 308 381 308 391 c 0,41,42
 308 421 308 421 255 449 c 0,43,44
 202.0005 476 202.0005 476 111 476 c 1,45,46
 97.0005 491 97.0005 491 74 516 c 0,47,48
 50 541.0005 50 541.0005 36 556 c 0,49,50
 37.99995 559 37.99995 559 41 564 c 0,51,52
 44 568.0005 44 568.0005 46 571 c 0,53,54
 67 572.9995 67 572.9995 89 573 c 0,55,56
 105 573 105 573 122 572 c 0,57,58
 161 570.0005 161 570.0005 197 562 c 0,59,60
 266 547 266 547 315 506 c 0,61,62
 364.9995 465.0005 364.9995 465.0005 365 390 c 0,63,64
 365 346.9995 365 346.9995 343 313 c 0,65,66
 320.9995 280 320.9995 280 276 260 c 1,67,68
 331.0005 233 331.0005 233 354 192 c 0,69,70
 376.0005 150 376.0005 150 376 112 c 0,71,72
 376 37 376 37 313 -1 c 0,73,74
 248.9995 -38.99995 248.9995 -38.99995 173 -25 c 1,75,76
 200 -49 200 -49 246 -90 c 0,77,78
 291 -130.9995 291 -130.9995 318 -156 c 1,79,80
 317 -173 317 -173 316 -201 c 0,81,82
 314.0005 -229.0005 314.0005 -229.0005 313 -246 c 0,83,84
 308.9995 -247.9995 308.9995 -247.9995 302 -252 c 128,-1,85
 294.9995 -256.0005 294.9995 -256.0005 291 -259 c 1,0,1
EndSplineSet
Validated: 19489
EndChar

StartChar: TotoIbr
Encoding: 488 123554 37
Width: 405
Flags: W
HStem: 477 96<91.989 237.206>
VStem: 309 57<356.32 428.445> 320 57<87.8885 168.004>
LayerCount: 2
Fore
SplineSet
292 -258 m 1,0,1
 274 -237 274 -237 251 -210 c 128,-1,2
 228.0005 -183 228.0005 -183 202 -153 c 0,3,4
 155.0005 -97.0005 155.0005 -97.0005 105 -39 c 0,5,6
 55.99995 18 55.99995 18 23 57 c 1,7,-1
 29 66 l 2,8,9
 32 72 32 72 36 77 c 1,10,11
 75 66.00005 75 66.00005 112 61 c 0,12,13
 149.0005 56.99995 149.0005 56.99995 182 58 c 0,14,15
 243.0005 59.00005 243.0005 59.00005 281 78 c 0,16,17
 320 96 320 96 320 126 c 0,18,19
 320 159 320 159 273 187 c 0,20,21
 225 215.0005 225 215.0005 146 223 c 1,22,23
 132.0005 238 132.0005 238 109 263 c 0,24,25
 85 288.0005 85 288.0005 71 303 c 0,26,27
 72.99995 306 72.99995 306 76 310 c 0,28,29
 79 314.9995 79 314.9995 81 318 c 0,30,31
 97.99995 316.9995 97.99995 316.9995 123 315 c 0,32,33
 148 314 148 314 170 313 c 0,34,35
 197 314.0005 197 314.0005 229 325 c 128,-1,36
 260.9995 335.9995 260.9995 335.9995 283 353 c 0,37,38
 295 360.9995 295 360.9995 302 371 c 0,39,40
 309.0005 381.9995 309.0005 381.9995 309 392 c 0,41,42
 309 422 309 422 256 450 c 0,43,44
 202 477 202 477 112 477 c 1,45,46
 98.0005 492 98.0005 492 75 517 c 0,47,48
 51 542.0005 51 542.0005 37 557 c 0,49,50
 39 560 39 560 42 564 c 128,-1,51
 45 568 45 568 47 572 c 0,52,53
 83 575 83 575 122 573 c 128,-1,54
 161 571.0005 161 571.0005 198 563 c 0,55,56
 267 546.9995 267 546.9995 316 507 c 0,57,58
 365.9995 466.0005 365.9995 466.0005 366 391 c 0,59,60
 366 347.9995 366 347.9995 343 314 c 0,61,62
 320.9995 279.9995 320.9995 279.9995 277 261 c 1,63,64
 332.0005 234 332.0005 234 354 192 c 0,65,66
 376.9995 151.0005 376.9995 151.0005 377 113 c 0,67,68
 377 36.99995 377 36.99995 313 0 c 0,69,70
 250 -37.99995 250 -37.99995 174 -24 c 1,71,72
 201 -48 201 -48 246 -90 c 0,73,74
 292.0005 -130.9995 292.0005 -130.9995 319 -155 c 1,75,76
 318 -172 318 -172 317 -200 c 0,77,78
 315.0005 -228.0005 315.0005 -228.0005 314 -245 c 0,79,80
 310 -248 310 -248 303 -252 c 0,81,82
 296 -255 296 -255 292 -258 c 1,0,1
48 -88 m 1,83,-1
 58 -88 l 1,84,-1
 68 -88 l 1,85,86
 87.00005 -113.0005 87.00005 -113.0005 116 -149 c 0,87,88
 146 -186.0005 146 -186.0005 174 -221 c 0,89,90
 189 -240.0005 189 -240.0005 202 -257 c 0,91,92
 215.9995 -275 215.9995 -275 227 -288 c 1,93,94
 225.9995 -306 225.9995 -306 224 -335 c 0,95,96
 222.0005 -365 222.0005 -365 222 -383 c 1,97,98
 217.9995 -384.9995 217.9995 -384.9995 212 -389 c 2,99,-1
 202 -395 l 1,100,101
 157 -333 157 -333 117 -271 c 128,-1,102
 76.99995 -209.0005 76.99995 -209.0005 41 -148 c 1,103,104
 42.00005 -137.0005 42.00005 -137.0005 44 -118 c 0,105,106
 47 -100 47 -100 48 -88 c 1,83,-1
EndSplineSet
Validated: 19489
EndChar

StartChar: TotoIU
Encoding: 489 123555 38
Width: 573
Flags: W
HStem: 2 106<183.03 373.284> 481 106<194.105 387.214>
VStem: 17 57<192.886 364.25> 497 56<228.67 395.984>
LayerCount: 2
Fore
SplineSet
278 587 m 0,0,1
 327.0005 587 327.0005 587 367 573 c 0,2,3
 407.0005 559.9995 407.0005 559.9995 438 536 c 0,4,5
 496.9995 492.0005 496.9995 492.0005 525 422 c 0,6,7
 553.0005 353 553.0005 353 553 280 c 0,8,9
 553 164.0005 553 164.0005 483 83 c 0,10,11
 414 2 414 2 292 2 c 0,12,13
 242.9995 2 242.9995 2 203 16 c 0,14,15
 162.9995 29.00005 162.9995 29.00005 132 53 c 0,16,17
 73.99995 96.99995 73.99995 96.99995 45 166 c 0,18,19
 16.99995 236.0005 16.99995 236.0005 17 308 c 0,20,21
 17 425 17 425 87 506 c 128,-1,22
 157.0005 587 157.0005 587 278 587 c 0,0,1
268 108 m 0,23,24
 371.0005 108 371.0005 108 434 172 c 128,-1,25
 497 236.0005 497 236.0005 497 315 c 0,26,27
 497 391.0005 497 391.0005 439 436 c 0,28,29
 382 481 382 481 302 481 c 0,30,31
 198.9995 481 198.9995 481 136 419 c 0,32,33
 74.00005 357.9995 74.00005 357.9995 74 274 c 0,34,35
 74 197.9995 74 197.9995 131 153 c 0,36,37
 189.0005 108 189.0005 108 268 108 c 0,23,24
297 364 m 1,38,39
 307.0005 350.9995 307.0005 350.9995 323 330 c 0,40,41
 339.0005 310.0005 339.0005 310.0005 353 291 c 1,42,43
 333.0005 277.9995 333.0005 277.9995 314 262 c 0,44,45
 296 246 296 246 279 227 c 1,46,-1
 271 227 l 1,47,-1
 262 227 l 1,48,49
 253 239 253 239 237 259 c 128,-1,50
 220.9995 278.9995 220.9995 278.9995 212 291 c 1,51,52
 231.0005 313.0005 231.0005 313.0005 252 331 c 128,-1,53
 273 349 273 349 297 364 c 1,38,39
EndSplineSet
Validated: 19489
EndChar

StartChar: TotoIUbr
Encoding: 490 123556 39
Width: 574
Flags: W
HStem: 1 106<183.187 372.089> 480 106<193.789 390.487>
VStem: 17 56<192.32 362.772> 496 57<227.813 396.558>
LayerCount: 2
Fore
SplineSet
278 586 m 0,0,1
 369.0005 586 369.0005 586 429 542 c 128,-1,2
 489 498.0005 489 498.0005 520 432 c 0,3,4
 536.0005 397.0005 536.0005 397.0005 545 358 c 0,5,6
 553 319 553 319 553 280 c 0,7,8
 553 163 553 163 483 82 c 0,9,10
 436.9995 29.99995 436.9995 29.99995 370 11 c 0,11,12
 334 0.999995 334 0.999995 292 1 c 0,13,14
 242.9995 1 242.9995 1 203 15 c 0,15,16
 162.0005 28.99995 162.0005 28.99995 131 52 c 0,17,18
 72.99995 95.99995 72.99995 95.99995 45 166 c 128,-1,19
 16.99995 236.0005 16.99995 236.0005 17 308 c 0,20,21
 17 423.9995 17 423.9995 87 505 c 0,22,23
 156 586 156 586 278 586 c 0,0,1
268 107 m 0,24,25
 371.0005 107 371.0005 107 433 172 c 0,26,27
 496 236.0005 496 236.0005 496 314 c 0,28,29
 496 390.9995 496 390.9995 439 436 c 0,30,31
 380.9995 479.9995 380.9995 479.9995 301 480 c 0,32,33
 199 480 199 480 136 419 c 0,34,35
 73 357.0005 73 357.0005 73 273 c 0,36,37
 73 196.9995 73 196.9995 131 152 c 0,38,39
 188 107 188 107 268 107 c 0,24,25
296 364 m 1,40,41
 306.9995 350.0005 306.9995 350.0005 323 330 c 0,42,43
 338 309 338 309 352 291 c 1,44,45
 332.0005 277.0005 332.0005 277.0005 314 261 c 0,46,47
 294.9995 244.9995 294.9995 244.9995 279 226 c 1,48,-1
 270 226 l 1,49,-1
 262 226 l 1,50,51
 251.9995 239.0005 251.9995 239.0005 237 259 c 0,52,53
 220.9995 278.9995 220.9995 278.9995 211 291 c 1,54,55
 230.0005 312 230.0005 312 252 330 c 0,56,57
 273 349.0005 273 349.0005 296 364 c 1,40,41
211 -59 m 1,58,-1
 221 -59 l 1,59,-1
 231 -59 l 1,60,61
 262.9995 -78.00005 262.9995 -78.00005 311 -108 c 0,62,63
 359 -136.9995 359 -136.9995 405 -165 c 0,64,65
 429 -180 429 -180 452 -194 c 0,66,67
 474.0005 -207.9995 474.0005 -207.9995 491 -218 c 1,68,69
 489.9995 -237.0005 489.9995 -237.0005 487 -268 c 0,70,71
 485.0005 -299.0005 485.0005 -299.0005 484 -318 c 0,72,73
 479.9995 -319.9995 479.9995 -319.9995 473 -324 c 0,74,75
 467 -327 467 -327 461 -331 c 1,76,77
 390.0005 -277 390.0005 -277 326 -224 c 0,78,79
 261.9995 -170 261.9995 -170 204 -119 c 1,80,81
 205.0005 -108.0005 205.0005 -108.0005 207 -89 c 0,82,83
 210 -69.99995 210 -69.99995 211 -59 c 1,58,-1
EndSplineSet
Validated: 19489
EndChar

StartChar: TotoU
Encoding: 491 123557 40
Width: 540
Flags: W
HStem: 1 105<178.681 354.038> 478 110<349.004 430.499>
VStem: 42 76<178.967 530> 445 65<211.602 476.812>
LayerCount: 2
Fore
SplineSet
445 326 m 0,0,1
 445 362 445 362 441 401 c 128,-1,2
 437 440 437 440 424 478 c 1,3,-1
 389 478 l 1,4,-1
 351 478 l 1,5,6
 322.9995 526 322.9995 526 342 557 c 128,-1,7
 361.0005 588.0005 361.0005 588.0005 396 588 c 0,8,9
 414 588 414 588 430 577 c 0,10,11
 446.0005 565 446.0005 565 459 545 c 0,12,13
 483 507.0005 483 507.0005 497 445 c 0,14,15
 510.0005 383.0005 510.0005 383.0005 510 315 c 0,16,17
 510 275 510 275 504 235 c 128,-1,18
 498 194.9995 498 194.9995 485 159 c 0,19,20
 459.9995 91.0005 459.9995 91.0005 408 46 c 128,-1,21
 355.9995 1 355.9995 1 267 1 c 0,22,23
 150 1 150 1 96 79 c 128,-1,24
 42 157 42 157 42 284 c 2,25,-1
 42 372 l 1,26,-1
 42 475 l 1,27,-1
 42 527 l 1,28,-1
 42 571 l 1,29,30
 46.00005 572.9995 46.00005 572.9995 53 577 c 128,-1,31
 60.00005 581.0005 60.00005 581.0005 64 583 c 1,32,33
 74.00005 572.9995 74.00005 572.9995 91 557 c 2,34,-1
 118 530 l 1,35,-1
 118 429 l 1,36,-1
 118 316 l 2,37,38
 118 212.0005 118 212.0005 149 159 c 128,-1,39
 180.0005 106.0005 180.0005 106.0005 262 106 c 0,40,41
 356.9995 106 356.9995 106 401 171 c 0,42,43
 444.9995 235.0005 444.9995 235.0005 445 326 c 0,0,1
292 388 m 1,44,45
 302.0005 374.9995 302.0005 374.9995 318 354 c 0,46,47
 334.0005 334.0005 334.0005 334.0005 348 315 c 1,48,49
 327 301.9995 327 301.9995 309 286 c 128,-1,50
 291 270 291 270 274 251 c 1,51,-1
 265 251 l 1,52,-1
 257 251 l 1,53,54
 248 263 248 263 232 283 c 128,-1,55
 215.9995 302.9995 215.9995 302.9995 207 315 c 1,56,57
 226.0005 336 226.0005 336 247 355 c 0,58,59
 268 373 268 373 292 388 c 1,44,45
EndSplineSet
Validated: 19489
EndChar

StartChar: TotoE
Encoding: 492 123558 41
Width: 531
Flags: W
HStem: 2 98<169.883 347.367> 335 97<173.562 329.852>
VStem: 40 55<142.419 267.381> 429 61<170.558 293.375>
LayerCount: 2
Fore
SplineSet
40 224 m 0,0,1
 40 312.0005 40 312.0005 96 372 c 0,2,3
 153 432 153 432 238 432 c 0,4,5
 283 432 283 432 320 415 c 0,6,7
 356 398.9995 356 398.9995 380 375 c 1,8,9
 351.0005 424.0005 351.0005 424.0005 292 486 c 0,10,11
 233.9995 547.9995 233.9995 547.9995 180 599 c 1,12,13
 181.0005 615.9995 181.0005 615.9995 183 644 c 0,14,15
 186 672.9995 186 672.9995 187 689 c 0,16,17
 191 692 191 692 198 695 c 0,18,19
 204 699 204 699 210 702 c 1,20,21
 327 601.9995 327 601.9995 409 479 c 0,22,23
 490 359 490 359 490 229 c 2,24,-1
 490 222 l 2,25,26
 488.9995 181.0005 488.9995 181.0005 478 148 c 0,27,28
 467.9995 115 467.9995 115 451 90 c 0,29,30
 419.0005 43.99995 419.0005 43.99995 370 23 c 128,-1,31
 320.9995 2 320.9995 2 273 2 c 0,32,33
 234 2 234 2 201 12 c 128,-1,34
 168 22.00005 168 22.00005 141 39 c 0,35,36
 91.9995 70.99995 91.9995 70.99995 66 122 c 0,37,38
 40.00005 171.9995 40.00005 171.9995 40 224 c 0,0,1
243 100 m 0,39,40
 325.9995 100 325.9995 100 377 140 c 0,41,42
 429.0005 180.0005 429.0005 180.0005 429 234 c 0,43,44
 429 283.9995 429 283.9995 387 310 c 0,45,46
 346.0005 335.0005 346.0005 335.0005 281 335 c 0,47,48
 197 335 197 335 146 297 c 128,-1,49
 95 259.0005 95 259.0005 95 201 c 0,50,51
 95 151.9995 95 151.9995 136 126 c 128,-1,52
 176.9995 100.0005 176.9995 100.0005 243 100 c 0,39,40
EndSplineSet
Validated: 19489
EndChar

StartChar: TotoEbr
Encoding: 493 123559 42
Width: 536
Flags: W
HStem: 2 97<165.008 343.594> 334 97<168.562 325.499>
VStem: 35 55<141.419 266.381> 424 61<168.977 292.375>
LayerCount: 2
Fore
SplineSet
35 223 m 0,0,1
 35 311.0005 35 311.0005 91 371 c 0,2,3
 148 431 148 431 233 431 c 0,4,5
 279.0005 431 279.0005 431 315 415 c 0,6,7
 351 398.0005 351 398.0005 375 375 c 1,8,9
 346.0005 424.0005 346.0005 424.0005 287 486 c 0,10,11
 228.9995 547.9995 228.9995 547.9995 175 599 c 1,12,13
 176.0005 615.9995 176.0005 615.9995 179 644 c 0,14,15
 180.9995 672.0005 180.9995 672.0005 182 689 c 0,16,17
 186.0005 690.9995 186.0005 690.9995 193 695 c 2,18,-1
 205 701 l 1,19,20
 323.0005 602 323.0005 602 405 478 c 0,21,22
 484.9995 358 484.9995 358 485 228 c 2,23,-1
 485 222 l 2,24,25
 483.9995 180 483.9995 180 474 148 c 0,26,27
 463.0005 115 463.0005 115 446 90 c 0,28,29
 414.0005 43.00005 414.0005 43.00005 365 23 c 0,30,31
 344 12.99995 344 12.99995 323 8 c 0,32,33
 294.9995 2 294.9995 2 268 2 c 0,34,35
 229 2 229 2 196 12 c 128,-1,36
 163 22.00005 163 22.00005 137 39 c 0,37,38
 87.0005 70.99995 87.0005 70.99995 61 121 c 128,-1,39
 35.00005 170.9995 35.00005 170.9995 35 223 c 0,0,1
238 99 m 0,40,41
 320.9995 99 320.9995 99 373 139 c 0,42,43
 424 179.0005 424 179.0005 424 234 c 0,44,45
 424 283.9995 424 283.9995 383 309 c 128,-1,46
 342.0005 334.0005 342.0005 334.0005 276 334 c 0,47,48
 192 334 192 334 141 296 c 128,-1,49
 90 258.0005 90 258.0005 90 200 c 0,50,51
 90 150.9995 90 150.9995 131 125 c 128,-1,52
 171.9995 99.0005 171.9995 99.0005 238 99 c 0,40,41
156 -64 m 1,53,-1
 166 -64 l 1,54,-1
 176 -64 l 1,55,56
 192.9995 -74.99995 192.9995 -74.99995 215 -88 c 0,57,58
 237.9995 -101.99995 237.9995 -101.99995 262 -117 c 0,59,60
 308.0005 -145.0005 308.0005 -145.0005 356 -175 c 0,61,62
 404 -203.9995 404 -203.9995 436 -223 c 1,63,64
 434 -242 434 -242 432 -273 c 128,-1,65
 430 -304 430 -304 428 -323 c 0,66,67
 423.9995 -326 423.9995 -326 418 -329 c 0,68,69
 410.9995 -333.0005 410.9995 -333.0005 406 -336 c 1,70,71
 335 -282 335 -282 270 -229 c 0,72,73
 205.9995 -176.0005 205.9995 -176.0005 148 -124 c 1,74,75
 150 -113 150 -113 152 -94 c 128,-1,76
 154 -75 154 -75 156 -64 c 1,53,-1
EndSplineSet
Validated: 19489
EndChar

StartChar: TotoEO
Encoding: 494 123560 43
Width: 574
Flags: W
HStem: -11 105<185.188 377.738> 469 105<193.913 375.435>
VStem: 488 55<205.797 382.146>
LayerCount: 2
Fore
SplineSet
543 269 m 0,0,1
 543 153.9995 543 153.9995 476 71 c 0,2,3
 410 -11.00005 410 -11.00005 296 -11 c 0,4,5
 218 -11 218 -11 151 27 c 0,6,7
 83.9995 66 83.9995 66 35 132 c 1,8,9
 41 139.0005 41 139.0005 51 149 c 128,-1,10
 61 159 61 159 70 169 c 1,11,12
 119.0005 131.9995 119.0005 131.9995 166 113 c 0,13,14
 214 93.9995 214 93.9995 270 94 c 0,15,16
 376.9995 94 376.9995 94 432 156 c 0,17,18
 487.9995 217.9995 487.9995 217.9995 488 296 c 0,19,20
 488 375.9995 488 375.9995 433 422 c 0,21,22
 377.9995 468.9995 377.9995 468.9995 297 469 c 0,23,24
 244.0005 469 244.0005 469 202 451 c 0,25,26
 161 433 161 433 120 403 c 1,27,-1
 80 443 l 1,28,-1
 40 483 l 1,29,-1
 40 493 l 1,30,-1
 40 505 l 1,31,32
 92.00005 541 92.00005 541 148 557 c 0,33,34
 203.0005 573.9995 203.0005 573.9995 263 574 c 0,35,36
 312.9995 574 312.9995 574 354 560 c 0,37,38
 394.9995 546.9995 394.9995 546.9995 427 524 c 0,39,40
 485.9995 480.9995 485.9995 480.9995 514 412 c 0,41,42
 542.9995 343 542.9995 343 543 269 c 0,0,1
EndSplineSet
Validated: 19489
EndChar

StartChar: TotoEObr
Encoding: 495 123561 44
Width: 574
Flags: W
HStem: -10 105<179.83 371.141> 470 105<187.913 373.177>
VStem: 482 55<206.797 383.723>
LayerCount: 2
Fore
SplineSet
537 270 m 0,0,1
 537 154.9995 537 154.9995 471 72 c 0,2,3
 424.0005 15 424.0005 15 354 -3 c 0,4,5
 324 -10.000005 324 -10.000005 290 -10 c 0,6,7
 212 -10 212 -10 145 29 c 0,8,9
 77.9995 66.99995 77.9995 66.99995 29 133 c 1,10,11
 35 140.0005 35 140.0005 45 150 c 0,12,13
 55.00005 160.9995 55.00005 160.9995 64 170 c 1,14,15
 113.00005 132.9995 113.00005 132.9995 160 114 c 0,16,17
 208 94.9995 208 94.9995 264 95 c 0,18,19
 370.9995 95 370.9995 95 426 157 c 0,20,21
 481.9995 218.9995 481.9995 218.9995 482 297 c 0,22,23
 482 376.9995 482 376.9995 427 423 c 0,24,25
 371.9995 469.9995 371.9995 469.9995 291 470 c 0,26,27
 238.0005 470 238.0005 470 196 452 c 0,28,29
 155 434 155 434 114 404 c 1,30,-1
 74 444 l 1,31,-1
 34 484 l 1,32,-1
 34 494 l 1,33,-1
 34 506 l 1,34,35
 86.00005 542 86.00005 542 142 558 c 0,36,37
 197.0005 574.9995 197.0005 574.9995 257 575 c 0,38,39
 350 575 350 575 412 532 c 0,40,41
 473.0005 488.9995 473.0005 488.9995 504 424 c 0,42,43
 520.0005 388 520.0005 388 528 349 c 0,44,45
 537 310 537 310 537 270 c 0,0,1
188 -70 m 1,46,-1
 198 -70 l 1,47,-1
 208 -70 l 1,48,49
 239.0005 -89.99995 239.0005 -89.99995 287 -119 c 128,-1,50
 335 -147.9995 335 -147.9995 381 -176 c 0,51,52
 406 -191 406 -191 428 -205 c 0,53,54
 450.9995 -218.9995 450.9995 -218.9995 468 -229 c 1,55,56
 466 -248 466 -248 464 -279 c 128,-1,57
 462 -310 462 -310 460 -329 c 0,58,59
 455.9995 -332 455.9995 -332 450 -335 c 0,60,61
 442.9995 -339.0005 442.9995 -339.0005 438 -342 c 1,62,63
 366 -288 366 -288 302 -235 c 128,-1,64
 237.9995 -182.0005 237.9995 -182.0005 180 -130 c 1,65,66
 182 -119 182 -119 184 -100 c 128,-1,67
 186 -81 186 -81 188 -70 c 1,46,-1
EndSplineSet
Validated: 19489
EndChar

StartChar: TotoO
Encoding: 496 123562 45
Width: 540
Flags: W
HStem: 144 97<149.286 333.116> 476 98<177.268 373.732>
VStem: 42 55<282.426 406.548> 431 61<310.877 433.339>
LayerCount: 2
Fore
SplineSet
190 -113 m 0,0,1
 188 -97 188 -97 186 -71 c 0,2,3
 184 -46 184 -46 182 -23 c 1,4,5
 236 26.99995 236 26.99995 295 89 c 0,6,7
 353.0005 152 353.0005 152 383 201 c 1,8,9
 359 177 359 177 322 160 c 0,10,11
 286 143.9995 286 143.9995 240 144 c 0,12,13
 154.9995 144 154.9995 144 99 204 c 0,14,15
 42 264 42 264 42 352 c 0,16,17
 42 380 42 380 50 408 c 0,18,19
 57.00005 436.0005 57.00005 436.0005 72 462 c 0,20,21
 100.00005 508.9995 100.00005 508.9995 152 541 c 0,22,23
 203 574 203 574 276 574 c 0,24,25
 301.0005 574 301.0005 574 328 568 c 128,-1,26
 355 562 355 562 380 549 c 0,27,28
 425 526.0005 425 526.0005 458 479 c 0,29,30
 491 431 491 431 492 354 c 2,31,-1
 492 347 l 2,32,33
 492 218 492 218 412 97 c 0,34,35
 329.9995 -26 329.9995 -26 212 -126 c 1,36,37
 207.9995 -124.0005 207.9995 -124.0005 201 -120 c 128,-1,38
 193.9995 -115.9995 193.9995 -115.9995 190 -113 c 0,0,1
283 476 m 0,39,40
 199 476 199 476 148 436 c 128,-1,41
 97 395.9995 97 395.9995 97 342 c 0,42,43
 97 291 97 291 138 266 c 128,-1,44
 178.9995 240.9995 178.9995 240.9995 245 241 c 0,45,46
 329 241 329 241 380 279 c 128,-1,47
 431 316.9995 431 316.9995 431 375 c 0,48,49
 431 424.0005 431 424.0005 390 450 c 128,-1,50
 349.0005 475.9995 349.0005 475.9995 283 476 c 0,39,40
EndSplineSet
Validated: 19489
EndChar

StartChar: TotoAE
Encoding: 497 123563 46
Width: 574
Flags: W
HStem: 223 100<159.723 406>
VStem: 77 76<17.6428 252 323 513> 436 76<40 223 293 513>
LayerCount: 2
Fore
SplineSet
436 40 m 1,0,-1
 436 131 l 1,1,-1
 436 223 l 1,2,-1
 398 223 l 1,3,-1
 352 223 l 1,4,-1
 260 223 l 1,5,-1
 183 223 l 1,6,7
 177 227.9995 177 227.9995 168 237 c 0,8,9
 157.9995 246 157.9995 246 153 252 c 1,10,-1
 153 214 l 1,11,-1
 153 168 l 1,12,-1
 153 76 l 1,13,-1
 153 -1 l 1,14,15
 148.0005 -2.999995 148.0005 -2.999995 141 -7 c 128,-1,16
 133.9995 -11.000005 133.9995 -11.000005 130 -14 c 1,17,-1
 103 13 l 2,18,19
 86.99995 29.99995 86.99995 29.99995 77 40 c 1,20,-1
 77 118 l 1,21,-1
 77 211 l 1,22,-1
 77 397 l 1,23,-1
 77 554 l 1,24,25
 81.00005 555.9995 81.00005 555.9995 88 560 c 128,-1,26
 95.00005 564.0005 95.00005 564.0005 99 566 c 1,27,28
 109.0005 555.9995 109.0005 555.9995 126 540 c 2,29,-1
 153 513 l 1,30,-1
 153 418 l 1,31,-1
 153 323 l 1,32,-1
 230 323 l 1,33,-1
 322 323 l 1,34,-1
 368 323 l 1,35,-1
 406 323 l 1,36,-1
 421 308 l 2,37,38
 431.0005 299 431.0005 299 436 293 c 1,39,-1
 436 333 l 1,40,-1
 436 380 l 1,41,-1
 436 474 l 1,42,-1
 436 554 l 1,43,44
 440.0005 555.9995 440.0005 555.9995 447 560 c 128,-1,45
 454.0005 564.0005 454.0005 564.0005 459 566 c 1,46,-1
 485 540 l 1,47,-1
 512 513 l 1,48,-1
 512 435 l 1,49,-1
 512 342 l 1,50,-1
 512 156 l 1,51,-1
 512 -1 l 1,52,53
 507.9995 -2.999995 507.9995 -2.999995 501 -7 c 128,-1,54
 493.9995 -11.000005 493.9995 -11.000005 490 -14 c 1,55,-1
 463 13 l 1,56,-1
 436 40 l 1,0,-1
EndSplineSet
Validated: 19457
EndChar

StartChar: TotoAEbr
Encoding: 498 123564 47
Width: 574
Flags: W
HStem: 222 100<185 430.3>
VStem: 79 76<39 251 322 512> 438 76<17.8535 222 292 512>
LayerCount: 2
Fore
SplineSet
438 39 m 1,0,-1
 438 131 l 1,1,-1
 438 222 l 1,2,-1
 400 222 l 1,3,-1
 354 222 l 1,4,-1
 262 222 l 1,5,-1
 185 222 l 1,6,-1
 170 237 l 2,7,8
 159.9995 246 159.9995 246 155 251 c 1,9,-1
 155 213 l 1,10,-1
 155 167 l 1,11,-1
 155 76 l 1,12,-1
 155 -2 l 1,13,14
 150.0005 -3.999995 150.0005 -3.999995 143 -8 c 128,-1,15
 135.9995 -12.00005 135.9995 -12.00005 132 -14 c 1,16,-1
 105 13 l 1,17,-1
 79 39 l 1,18,-1
 79 117 l 1,19,-1
 79 210 l 1,20,-1
 79 396 l 1,21,-1
 79 553 l 1,22,23
 83 556 83 556 90 560 c 0,24,25
 97.00005 563 97.00005 563 101 566 c 1,26,-1
 128 539 l 1,27,-1
 155 512 l 1,28,-1
 155 417 l 1,29,-1
 155 322 l 1,30,-1
 193 322 l 1,31,-1
 239 322 l 1,32,-1
 330 322 l 1,33,-1
 408 322 l 1,34,35
 414 317.0005 414 317.0005 423 307 c 0,36,37
 433.0005 298 433.0005 298 438 292 c 1,38,-1
 438 332 l 1,39,-1
 438 379 l 1,40,-1
 438 474 l 1,41,-1
 438 553 l 1,42,43
 442 556 442 556 449 560 c 0,44,45
 456.0005 563 456.0005 563 461 566 c 1,46,47
 471.0005 555.9995 471.0005 555.9995 487 539 c 2,48,-1
 514 512 l 1,49,-1
 514 435 l 1,50,-1
 514 341 l 1,51,-1
 514 156 l 1,52,-1
 514 -2 l 1,53,54
 509.9995 -3.999995 509.9995 -3.999995 503 -8 c 128,-1,55
 495.9995 -12.00005 495.9995 -12.00005 492 -14 c 1,56,-1
 465 13 l 2,57,58
 448.0005 29.00005 448.0005 29.00005 438 39 c 1,0,-1
261 53 m 1,59,-1
 271 53 l 1,60,-1
 281 53 l 1,61,62
 302 27.99995 302 27.99995 333 -10 c 0,63,64
 364.0005 -49 364.0005 -49 394 -85 c 0,65,66
 410.0005 -104.99995 410.0005 -104.99995 425 -123 c 0,67,68
 438.9995 -141 438.9995 -141 450 -154 c 1,69,70
 448.9995 -173.0005 448.9995 -173.0005 446 -204 c 0,71,72
 444.0005 -235.0005 444.0005 -235.0005 443 -254 c 1,73,-1
 433 -259 l 2,74,75
 428 -262 428 -262 423 -264 c 1,76,77
 376 -199 376 -199 334 -134 c 0,78,79
 292 -69.99995 292 -69.99995 254 -7 c 1,80,81
 255.0005 3.9999995 255.0005 3.9999995 257 23 c 0,82,83
 260 42.00005 260 42.00005 261 53 c 1,59,-1
EndSplineSet
Validated: 19457
EndChar

StartChar: TotoA
Encoding: 499 123565 48
Width: 610
Flags: W
HStem: 1 21G<67 106 506.5 530>
LayerCount: 2
Fore
SplineSet
574 35 m 1,0,1
 563.9995 27.99995 563.9995 27.99995 550 19 c 0,2,3
 536.0005 8.99995 536.0005 8.99995 524 1 c 1,4,5
 489.0005 59.00005 489.0005 59.00005 450 135 c 0,6,7
 411 210 411 210 377 284 c 0,8,9
 359 324.0005 359 324.0005 343 362 c 128,-1,10
 326.9995 399.9995 326.9995 399.9995 315 433 c 1,11,-1
 310 433 l 1,12,-1
 305 433 l 1,13,14
 285.9995 383.0005 285.9995 383.0005 254 310 c 0,15,16
 221 236.9995 221 236.9995 182 160 c 0,17,18
 161 119 161 119 139 78 c 0,19,20
 117 38 117 38 95 1 c 1,21,-1
 84 1 l 1,22,-1
 73 1 l 1,23,24
 61 11.999995 61 11.999995 44 29 c 0,25,26
 27.99995 45.99995 27.99995 45.99995 13 61 c 1,27,28
 82 172 82 172 146 301 c 128,-1,29
 210.0005 430 210.0005 430 260 569 c 0,30,31
 264.0005 570.9995 264.0005 570.9995 271 575 c 128,-1,32
 278.0005 579.0005 278.0005 579.0005 282 581 c 1,33,34
 297 567.0005 297 567.0005 323 544 c 0,35,36
 348.0005 521.0005 348.0005 521.0005 363 508 c 1,37,38
 408 371.9995 408 371.9995 464 252 c 0,39,40
 519.9995 133.0005 519.9995 133.0005 574 35 c 1,0,1
EndSplineSet
Validated: 19457
EndChar

StartChar: TotoTONE
Encoding: 500 123566 49
Width: 0
GlyphClass: 4
Flags: W
HStem: 614 272
VStem: -400 284
LayerCount: 2
Fore
SplineSet
-146 886 m 1,0,1
 -141.9995 884.0005 -141.9995 884.0005 -135 880 c 128,-1,2
 -127.9995 875.9995 -127.9995 875.9995 -123 873 c 1,3,4
 -121.9995 855 -121.9995 855 -120 823 c 0,5,6
 -117 791.9995 -117 791.9995 -116 773 c 1,7,8
 -132.9995 762.9995 -132.9995 762.9995 -155 749 c 0,9,10
 -177.9995 735.9995 -177.9995 735.9995 -202 720 c 0,11,12
 -249 692 -249 692 -296 663 c 0,13,14
 -344 634.0005 -344 634.0005 -376 614 c 1,15,-1
 -386 614 l 1,16,-1
 -396 614 l 1,17,18
 -397.0005 626 -397.0005 626 -400 644 c 0,19,20
 -401.9995 663.0005 -401.9995 663.0005 -403 674 c 1,21,22
 -344.9995 726.0005 -344.9995 726.0005 -281 779 c 128,-1,23
 -216.9995 831.9995 -216.9995 831.9995 -146 886 c 1,0,1
EndSplineSet
Validated: 19457
EndChar

StartChar: TeluNUKTA
Encoding: 30 3132 50
Width: 0
Flags: W
HStem: -304 44<-357.743 -254.84> -120 44<-357.485 -255.098>
VStem: -420 46<-242.089 -137.911> -238 46<-242.089 -138.518>
AnchorPoint: "NandLt" 32 1 basechar 0
LayerCount: 2
Fore
SplineSet
-420 -190 m 128,-1,1
 -420 -141 -420 -141 -389.5 -108.5 c 128,-1,2
 -359 -76 -359 -76 -306 -76 c 0,3,4
 -254 -76 -254 -76 -223 -108.5 c 128,-1,5
 -192 -141 -192 -141 -192 -190 c 128,-1,6
 -192 -239 -192 -239 -223 -271.5 c 128,-1,7
 -254 -304 -254 -304 -306 -304 c 0,8,9
 -359 -304 -359 -304 -389.5 -271.5 c 128,-1,0
 -420 -239 -420 -239 -420 -190 c 128,-1,1
-374 -190 m 128,-1,11
 -374 -220 -374 -220 -357.5 -240 c 128,-1,12
 -341 -260 -341 -260 -306 -260 c 0,13,14
 -272 -260 -272 -260 -255 -240 c 128,-1,15
 -238 -220 -238 -220 -238 -190 c 128,-1,16
 -238 -160 -238 -160 -255.5 -140 c 128,-1,17
 -273 -120 -273 -120 -306 -120 c 0,18,19
 -340 -120 -340 -120 -357 -140 c 128,-1,10
 -374 -160 -374 -160 -374 -190 c 128,-1,11
EndSplineSet
Validated: 19457
EndChar

StartChar: TeluNAKA
Encoding: 31 3165 51
Width: 684
Flags: W
HStem: -0.00488281 50<125.974 400> 167.758 51.1152<129.237 400> 355.798 51.3525<136.922 400> 569.97 50<133.241 670>
VStem: 51.7383 50<73.4601 142.602 245.079 326.371 442.546 539.757>
LayerCount: 2
Fore
SplineSet
51.73828125 283.514648438 m 0,0,1
 51.73828125 316.565634243 51.73828125 316.565634243 71.228563199 342.326806134 c 128,-1,2
 90.7188451479 368.087978025 90.7188451479 368.087978025 115.852052853 382.934735558 c 1,3,4
 51.73828125 426.891467233 51.73828125 426.891467233 51.73828125 491.341796875 c 0,5,6
 51.73828125 527.21543312 51.73828125 527.21543312 72.8615313585 556.955871412 c 128,-1,7
 93.984781467 586.696309703 93.984781467 586.696309703 127.680300055 603.333018133 c 128,-1,8
 161.375818642 619.969726562 161.375818642 619.969726562 200 619.969726562 c 2,9,-1
 670 619.969726562 l 1,10,-1
 670 569.969726562 l 1,11,-1
 200 569.969726562 l 2,12,13
 173.365091629 569.969726562 173.365091629 569.969726562 150.285557815 558.55068607 c 128,-1,14
 127.206024 547.131645578 127.206024 547.131645578 114.472152625 529.204062318 c 128,-1,15
 101.73828125 511.276479059 101.73828125 511.276479059 101.73828125 487.74196374 c 128,-1,16
 101.73828125 464.207448421 101.73828125 464.207448421 129.705667874 435.678919523 c 128,-1,17
 157.673054498 407.150390625 157.673054498 407.150390625 200 407.150390625 c 2,18,-1
 400 407.150390625 l 1,19,-1
 400 355.797851562 l 1,20,-1
 200 355.797851562 l 2,21,22
 173.672165506 355.797851562 173.672165506 355.797851562 150.313511732 344.460710781 c 128,-1,23
 126.954857957 333.123569999 126.954857957 333.123569999 114.346569604 316.4587387 c 128,-1,24
 101.73828125 299.793907401 101.73828125 299.793907401 101.73828125 284.152886086 c 128,-1,25
 101.73828125 268.511864772 101.73828125 268.511864772 114.346272629 253.798751734 c 128,-1,26
 126.954264008 239.085638696 126.954264008 239.085638696 150.804519941 228.979342786 c 128,-1,27
 174.654775874 218.873046875 174.654775874 218.873046875 200 218.873046875 c 2,28,-1
 400 218.873046875 l 1,29,-1
 400 167.7578125 l 1,30,-1
 200 167.7578125 l 2,31,32
 173.092743839 167.7578125 173.092743839 167.7578125 149.427976643 157.61072481 c 128,-1,33
 125.763209447 147.46363712 125.763209447 147.46363712 113.750745348 133.359357192 c 128,-1,34
 101.73828125 119.255077264 101.73828125 119.255077264 101.73828125 106.873830851 c 128,-1,35
 101.73828125 94.4925844389 101.73828125 94.4925844389 113.897655743 81.6164330392 c 128,-1,36
 126.057030236 68.7402816396 126.057030236 68.7402816396 150.228171786 59.3676994136 c 128,-1,37
 174.399313337 49.9951171875 174.399313337 49.9951171875 200 49.9951171875 c 2,38,-1
 400 49.9951171875 l 1,39,-1
 400 -0.0048828125 l 1,40,-1
 200 -0.0048828125 l 2,41,42
 122.218223748 -0.0048828125 122.218223748 -0.0048828125 74.9678312825 50.0305745361 c 0,43,44
 51.73828125 74.6293365618 51.73828125 74.6293365618 51.73828125 106.138904989 c 128,-1,45
 51.73828125 137.648473416 51.73828125 137.648473416 70.4902723504 159.666153027 c 128,-1,46
 89.2422634508 181.683832638 89.2422634508 181.683832638 109.363181535 193.635509583 c 1,47,48
 51.73828125 228.539370802 51.73828125 228.539370802 51.73828125 283.514648438 c 0,0,1
EndSplineSet
Validated: 19457
EndChar

StartChar: uniFBC2
Encoding: 117 64450 52
Width: 238
Flags: W
LayerCount: 2
Fore
SplineSet
28 727 m 1,0,-1
 14 737 l 1,1,2
 30.99995 762.0005 30.99995 762.0005 44 775 c 128,-1,3
 57.00005 788.0005 57.00005 788.0005 73 788 c 0,4,5
 77.99995 788 77.99995 788 90 782 c 1,6,7
 112.0005 813.9995 112.0005 813.9995 129.5 826 c 128,-1,8
 147.0005 838 147.0005 838 168 838 c 0,9,10
 184.9995 838 184.9995 838 198 821.5 c 128,-1,11
 211.0005 805 211.0005 805 211 780 c 0,12,13
 211 766.9995 211 766.9995 203 746 c 1,14,15
 186.0005 734 186.0005 734 172.5 730.5 c 128,-1,16
 159 727.0005 159 727.0005 141 727 c 0,17,18
 121.9995 727 121.9995 727 105 732 c 128,-1,19
 88.00005 736.9995 88.00005 736.9995 62 750 c 1,20,21
 42.99995 742.0005 42.99995 742.0005 28 727 c 1,0,-1
141 767 m 0,22,23
 162 767 162 767 170 768.5 c 128,-1,24
 177.9995 770 177.9995 770 194 777 c 1,25,26
 183.0005 799.9995 183.0005 799.9995 161 800 c 0,27,28
 150 800 150 800 139 795 c 128,-1,29
 128.0005 790.0005 128.0005 790.0005 108 773 c 1,30,31
 129 767 129 767 141 767 c 0,22,23
EndSplineSet
Validated: 3105
EndChar

StartChar: uni1AC1
Encoding: 33 6849 53
Width: 0
Flags: W
HStem: 653.5 236
VStem: -593 54<705.571 836.72>
LayerCount: 2
Fore
SplineSet
-494 653.5 m 1,0,1
 -534.000976562 662.5 -534.000976562 662.5 -563.5 688.5 c 128,-1,2
 -593.000976562 714.499023438 -593.000976562 714.499023438 -593 770.5 c 0,3,4
 -593 825.500976562 -593 825.500976562 -563.5 853.5 c 128,-1,5
 -533.999023438 881.500976562 -533.999023438 881.500976562 -494 889.5 c 1,6,-1
 -494 850.5 l 1,7,8
 -516.999023438 843.499023438 -516.999023438 843.499023438 -528 822 c 128,-1,9
 -538.999023438 800.500976562 -538.999023438 800.500976562 -539 770.5 c 128,-1,10
 -539 740.5 -539 740.5 -528 720 c 128,-1,11
 -517.000976562 699.499023438 -517.000976562 699.499023438 -494 692.5 c 1,12,-1
 -494 653.5 l 1,0,1
EndSplineSet
Validated: 19489
EndChar

StartChar: uni1AC2
Encoding: 34 6850 54
Width: 0
Flags: W
HStem: 653.5 236
VStem: -74 54<706.984 837.466>
LayerCount: 2
Fore
SplineSet
-119 692.5 m 1,0,1
 -96 700.499023438 -96 700.499023438 -85 721.5 c 128,-1,2
 -74 742.5 -74 742.5 -74 772.5 c 128,-1,3
 -74 802.5 -74 802.5 -85 823 c 128,-1,4
 -96 843.500976562 -96 843.500976562 -119 850.5 c 1,5,-1
 -119 889.5 l 1,6,7
 -78 880.5 -78 880.5 -49 854.5 c 128,-1,8
 -20 828.500976562 -20 828.500976562 -20 772.5 c 0,9,10
 -20 717.499023438 -20 717.499023438 -49 689.5 c 128,-1,11
 -78 661.499023438 -78 661.499023438 -119 653.5 c 1,12,-1
 -119 692.5 l 1,0,1
EndSplineSet
Validated: 19457
EndChar

StartChar: uni1AC5
Encoding: 37 6853 57
Width: 0
Flags: W
HStem: 652 28<-539 -491 -110 -62> 866 28<-539 -491 -110 -62>
VStem: -595 104<652 680 866 894> -595 56<680 866> -110 104<655 683 869 897> -62 56<683 869>
LayerCount: 2
Fore
SplineSet
-62 869 m 5,0,-1
 -110 869 l 5,1,-1
 -110 897 l 5,2,-1
 -6 897 l 5,3,-1
 -6 655 l 5,4,-1
 -110 655 l 5,5,-1
 -110 683 l 5,6,-1
 -62 683 l 5,7,-1
 -62 869 l 5,0,-1
-539 866 m 1,8,-1
 -539 680 l 1,9,-1
 -491 680 l 1,10,-1
 -491 652 l 1,11,-1
 -595 652 l 1,12,-1
 -595 894 l 1,13,-1
 -491 894 l 1,14,-1
 -491 866 l 1,15,-1
 -539 866 l 1,8,-1
EndSplineSet
Validated: 19457
EndChar

StartChar: uni20E7
Encoding: 74 8423 58
Width: 0
Flags: W
HStem: 760 60<-673 123>
VStem: 123 60<-144 760>
LayerCount: 2
Fore
SplineSet
123 760 m 5,0,-1
 -673 760 l 5,1,-1
 -673 820 l 5,2,-1
 183 820 l 5,3,-1
 183 -144 l 5,4,-1
 123 -144 l 5,5,-1
 123 760 l 5,0,-1
EndSplineSet
Validated: 19457
EndChar

StartChar: uni1AC6
Encoding: 38 6854 60
Width: 0
Flags: W
HStem: 736.2 24.7998<-418 -371 -333.5 -275 -237 -180.5> 837.8 24.8008<-402 -346.5 -309.5 -250.5 -213 -164.5>
VStem: -418 253.5
LayerCount: 2
Fore
SplineSet
-390 655.400390625 m 5,0,-1
 -371 736.200195312 l 5,1,-1
 -418 736.200195312 l 5,2,-1
 -418 761 l 5,3,-1
 -365 761 l 5,4,-1
 -346.5 837.799804688 l 5,5,-1
 -402 837.799804688 l 5,6,-1
 -402 862.600585938 l 5,7,-1
 -341 862.600585938 l 5,8,-1
 -323 941 l 5,9,-1
 -291 941 l 5,10,-1
 -309.5 862.600585938 l 5,11,-1
 -244.5 862.600585938 l 5,12,-1
 -226 941 l 5,13,-1
 -194.5 941 l 5,14,-1
 -213 862.600585938 l 5,15,-1
 -164.5 862.600585938 l 5,16,-1
 -164.5 837.799804688 l 5,17,-1
 -219 837.799804688 l 5,18,-1
 -237 761 l 5,19,-1
 -180.5 761 l 5,20,-1
 -180.5 736.200195312 l 5,21,-1
 -243.5 736.200195312 l 5,22,-1
 -262 655.400390625 l 5,23,-1
 -293.5 655.400390625 l 5,24,-1
 -275 736.200195312 l 5,25,-1
 -339.5 736.200195312 l 5,26,-1
 -358.5 655.400390625 l 5,27,-1
 -390 655.400390625 l 5,0,-1
-333.5 761 m 5,28,-1
 -268.5 761 l 5,29,-1
 -250.5 837.799804688 l 5,30,-1
 -315 837.799804688 l 5,31,-1
 -333.5 761 l 5,28,-1
EndSplineSet
Validated: 19457
EndChar

StartChar: uni1AC7
Encoding: 39 6855 61
Width: 0
Flags: W
HStem: 726 48<-407.276 -333.873 -271.593 -190.511>
VStem: -458 42<789.475 844> -323 40<789.99 844> -180 42<789.475 844>
LayerCount: 2
Fore
SplineSet
-375 726 m 4,0,1
 -409.999023438 726 -409.999023438 726 -427.5 741.5 c 132,-1,2
 -445.000976562 756.999023438 -445.000976562 756.999023438 -451 783.5 c 132,-1,3
 -457 810.000976562 -457 810.000976562 -458 844 c 5,4,-1
 -416 844 l 5,5,6
 -414.999023438 804 -414.999023438 804 -406 789 c 132,-1,7
 -397 774 -397 774 -375 774 c 4,8,9
 -347 774 -347 774 -335.5 789.5 c 132,-1,10
 -324 804.999023438 -324 804.999023438 -323 844 c 5,11,-1
 -283 844 l 5,12,13
 -281 805 -281 805 -270 789.5 c 132,-1,14
 -259 774.000976562 -259 774.000976562 -231 774 c 132,-1,15
 -203 774 -203 774 -192 789 c 132,-1,16
 -181.000976562 804 -181.000976562 804 -180 844 c 5,17,-1
 -138 844 l 5,18,19
 -139.000976562 793 -139.000976562 793 -158.5 759.5 c 132,-1,20
 -178 726.000976562 -178 726.000976562 -231 726 c 4,21,22
 -260 726 -260 726 -277.5 737 c 132,-1,23
 -295 747.999023438 -295 747.999023438 -303 767 c 5,24,25
 -311 747.999023438 -311 747.999023438 -328.5 737 c 132,-1,26
 -346 726.000976562 -346 726.000976562 -375 726 c 4,0,1
EndSplineSet
Validated: 19457
EndChar

StartChar: uni1AC8
Encoding: 40 6856 62
Width: 0
Flags: W
HStem: 749 53<-399 -330 -276 -207>
VStem: -330 53<679 749 802 872>
LayerCount: 2
Fore
SplineSet
-330 679 m 1,0,-1
 -330 749 l 1,1,-1
 -399 749 l 1,2,-1
 -399 802 l 1,3,-1
 -329 802 l 1,4,-1
 -329 872 l 1,5,-1
 -276 872 l 1,6,-1
 -276 802 l 1,7,-1
 -207 802 l 1,8,-1
 -207 749 l 1,9,-1
 -277 749 l 1,10,-1
 -277 679 l 1,11,-1
 -330 679 l 1,0,-1
EndSplineSet
Validated: 19457
EndChar

StartChar: uni1ACB
Encoding: 43 6859 65
Width: 0
Flags: W
HStem: 606 160
LayerCount: 2
Fore
SplineSet
-163 619 m 1,0,1
 -142 650.999023438 -142 650.999023438 -118 691.5 c 128,-1,2
 -94 732 -94 732 -78 766 c 1,3,-1
 29 766 l 1,4,-1
 29 756 l 1,5,6
 18.9990234375 739.000976562 18.9990234375 739.000976562 -6.5 710 c 128,-1,7
 -32.005859375 680.994140625 -32.005859375 680.994140625 -61.5 652.5 c 128,-1,8
 -91.0009765625 624 -91.0009765625 624 -114 606 c 1,9,-1
 -163 606 l 1,10,-1
 -163 619 l 1,0,1
-343 619 m 1,11,12
 -322 650.999023438 -322 650.999023438 -298 691.5 c 128,-1,13
 -274 732 -274 732 -258 766 c 1,14,-1
 -151 766 l 1,15,-1
 -151 756 l 1,16,17
 -161.000976562 739.000976562 -161.000976562 739.000976562 -186.5 710 c 128,-1,18
 -212.005859375 680.994140625 -212.005859375 680.994140625 -241.5 652.5 c 128,-1,19
 -271.000976562 624 -271.000976562 624 -294 606 c 1,20,-1
 -343 606 l 1,21,-1
 -343 619 l 1,11,12
-523 619 m 1,22,23
 -502 650.999023438 -502 650.999023438 -478 691.5 c 128,-1,24
 -454 732 -454 732 -438 766 c 1,25,-1
 -331 766 l 1,26,-1
 -331 756 l 1,27,28
 -341 739.000976562 -341 739.000976562 -367 710 c 128,-1,29
 -393.002929688 680.997070312 -393.002929688 680.997070312 -422 652.5 c 128,-1,30
 -451 624 -451 624 -474 606 c 1,31,-1
 -523 606 l 1,32,-1
 -523 619 l 1,22,23
EndSplineSet
Validated: 19457
EndChar

StartChar: uni1ACC
Encoding: 44 6860 66
Width: 0
Flags: W
HStem: 625.6 21.6006<-336.994 -255.917> 793.2 22<-337.773 -287.697> 901.2 34.7998<-365.81 -251.5>
VStem: -414.5 55<662.297 778.677> -403 26<868.8 876> -234 55<662.297 778.486>
LayerCount: 2
Fore
SplineSet
-297.5 625.599609375 m 0,0,1
 -352 625.599609375 -352 625.599609375 -383.25 648.799804688 c 128,-1,2
 -414.5 672 -414.5 672 -414.5 721.200195312 c 0,3,4
 -414.5 768.799804688 -414.5 768.799804688 -385 791.799804688 c 128,-1,5
 -355.5 814.799804688 -355.5 814.799804688 -299.5 815.200195312 c 2,6,-1
 -293.5 815.200195312 l 1,7,-1
 -287.5 815.200195312 l 1,8,-1
 -321.5 838 l 1,9,-1
 -321.5 856 l 1,10,-1
 -251.5 901.200195312 l 1,11,-1
 -342.5 901.200195312 l 2,12,13
 -360 901.200195312 -360 901.200195312 -366 895.599609375 c 128,-1,14
 -372 890 -372 890 -375.5 876 c 2,15,-1
 -377 868.799804688 l 1,16,-1
 -403 868.799804688 l 1,17,-1
 -400 936 l 1,18,-1
 -195 936 l 1,19,-1
 -195 907.200195312 l 1,20,-1
 -288.5 846.399414062 l 1,21,-1
 -220.5 800.799804688 l 2,22,23
 -179 772.399414062 -179 772.399414062 -179 721.200195312 c 0,24,25
 -179 672 -179 672 -209 648.799804688 c 128,-1,26
 -239 625.599609375 -239 625.599609375 -297.5 625.599609375 c 0,0,1
-296.5 647.200195312 m 128,-1,28
 -262 647.200195312 -262 647.200195312 -248 665.599609375 c 128,-1,29
 -234 684 -234 684 -234 721.200195312 c 0,30,31
 -234 758 -234 758 -248.25 775.599609375 c 128,-1,32
 -262.5 793.200195312 -262.5 793.200195312 -297 793.200195312 c 128,-1,33
 -331.5 793.200195312 -331.5 793.200195312 -345.5 775.599609375 c 128,-1,34
 -359.5 758 -359.5 758 -359.5 721.200195312 c 0,35,36
 -359.5 684 -359.5 684 -345.25 665.599609375 c 128,-1,27
 -331 647.200195312 -331 647.200195312 -296.5 647.200195312 c 128,-1,28
EndSplineSet
Validated: 19457
EndChar

StartChar: uni1ACD
Encoding: 45 6861 67
Width: 0
Flags: W
HStem: 721.399 18<-182.459 -153> 917.8 18<-449.5 -420.361 -320.263 -274.362>
VStem: -408.5 55<625.399 902.632> -247 55<747.86 897.553>
LayerCount: 2
Fore
SplineSet
-408.5 891 m 2,0,1
 -408.5 908.200195312 -408.5 908.200195312 -420 913 c 128,-1,2
 -431.5 917.799804688 -431.5 917.799804688 -448 917.799804688 c 2,3,-1
 -449.5 917.799804688 l 1,4,-1
 -449.5 935.799804688 l 1,5,-1
 -362 935.799804688 l 1,6,-1
 -355.5 904.599609375 l 1,7,-1
 -353 904.599609375 l 1,8,9
 -337.5 927 -337.5 927 -318.5 933.599609375 c 128,-1,10
 -299.5 940.200195312 -299.5 940.200195312 -275.5 940.200195312 c 0,11,12
 -236.5 940.200195312 -236.5 940.200195312 -214.25 921.599609375 c 128,-1,13
 -192 903 -192 903 -192 862.200195312 c 2,14,-1
 -192 781 l 2,15,16
 -192 755.799804688 -192 755.799804688 -182.75 747.599609375 c 128,-1,17
 -173.5 739.399414062 -173.5 739.399414062 -155 739.399414062 c 2,18,-1
 -153 739.399414062 l 1,19,-1
 -153 721.399414062 l 1,20,-1
 -177 721.399414062 l 2,21,22
 -214.5 721.399414062 -214.5 721.399414062 -230.75 733 c 128,-1,23
 -247 744.599609375 -247 744.599609375 -247 774.200195312 c 2,24,-1
 -247 857.799804688 l 2,25,26
 -247 883.799804688 -247 883.799804688 -258.25 898 c 128,-1,27
 -269.5 912.200195312 -269.5 912.200195312 -298 912.200195312 c 0,28,29
 -319 912.200195312 -319 912.200195312 -331 903.200195312 c 128,-1,30
 -343 894.200195312 -343 894.200195312 -348.25 879.599609375 c 128,-1,31
 -353.5 865 -353.5 865 -353.5 848.200195312 c 2,32,-1
 -353.5 625.399414062 l 1,33,-1
 -408.5 625.399414062 l 1,34,-1
 -408.5 891 l 2,0,1
EndSplineSet
Validated: 19457
EndChar

StartChar: uni1ACE
Encoding: 46 6862 68
Width: 0
Flags: W
HStem: 626.6 27.2002<-320.759 -230.084> 821.399 23.6006<-421 -329.5 -304.678 -183.5>
VStem: -396 56.5<667.766 778.485>
LayerCount: 2
Fore
SplineSet
-289 626.599609375 m 0,0,1
 -319.5 626.599609375 -319.5 626.599609375 -343.75 635.599609375 c 128,-1,2
 -368 644.599609375 -368 644.599609375 -382 664.399414062 c 128,-1,3
 -396 684.200195312 -396 684.200195312 -396 715.799804688 c 0,4,5
 -396 737 -396 737 -386.75 756.799804688 c 128,-1,6
 -377.5 776.599609375 -377.5 776.599609375 -362.5 793.200195312 c 128,-1,7
 -347.5 809.799804688 -347.5 809.799804688 -329.5 821.399414062 c 1,8,-1
 -421 821.399414062 l 1,9,-1
 -421 845 l 1,10,-1
 -183.5 845 l 1,11,-1
 -183.5 821.399414062 l 1,12,-1
 -292.5 821.399414062 l 1,13,14
 -312 805.399414062 -312 805.399414062 -325.75 781.399414062 c 128,-1,15
 -339.5 757.399414062 -339.5 757.399414062 -339.5 719.799804688 c 0,16,17
 -339.5 687.399414062 -339.5 687.399414062 -324.5 670.599609375 c 128,-1,18
 -309.5 653.799804688 -309.5 653.799804688 -278.5 653.799804688 c 0,19,20
 -257 653.799804688 -257 653.799804688 -240 661.799804688 c 128,-1,21
 -223 669.799804688 -223 669.799804688 -214 682.200195312 c 1,22,23
 -205 677 -205 677 -205 665.799804688 c 0,24,25
 -205 656.599609375 -205 656.599609375 -214 647.599609375 c 128,-1,26
 -223 638.599609375 -223 638.599609375 -241.75 632.599609375 c 128,-1,27
 -260.5 626.599609375 -260.5 626.599609375 -289 626.599609375 c 0,0,1
EndSplineSet
Validated: 19457
EndChar

StartChar: uni1DFA
Encoding: 50 7674 69
Width: 0
Flags: W
HStem: -150 112<-522.53 -450.985>
VStem: -538 103<-135.559 -51.9257>
LayerCount: 2
Fore
SplineSet
-486 -38 m 0,0,1
 -466 -38 -466 -38 -450.5 -51.5 c 128,-1,2
 -435 -65 -435 -65 -435 -94 c 0,3,4
 -435 -122.000976562 -435 -122.000976562 -450.5 -136 c 128,-1,5
 -466 -149.999023438 -466 -149.999023438 -486 -150 c 0,6,7
 -508 -150 -508 -150 -523 -136 c 128,-1,8
 -538 -122.000976562 -538 -122.000976562 -538 -94 c 0,9,10
 -538 -65.0009765625 -538 -65.0009765625 -523 -51.5 c 128,-1,11
 -508 -38 -508 -38 -486 -38 c 0,0,1
EndSplineSet
Validated: 19457
EndChar

StartChar: uni1B4C
Encoding: 47 6988 70
Width: 879
VWidth: 1100
Flags: W
HStem: -252 74.8063<419.837 579.995> 37 39<432.671 574.52> 100 83<265.946 322> 293 39<546 697.881> 563 83<98.411 182.294 446.077 693.724>
VStem: 39 39<432.026 544.438> 199 39<214.601 529.989> 322 39<183 490.563> 382 41<-21.4084 24.5694> 591 42<-161.865 -100.624> 767 47.9995<380.498 503.304> 776 39<100 229.198>
LayerCount: 2
Fore
SplineSet
574.5 -235.5 m 128,-1,1
 546 -252 546 -252 507.500488281 -252 c 128,-1,2
 469.000976562 -252 469.000976562 -252 432.5 -236.5 c 128,-1,3
 396.000976562 -221.000976562 396.000976562 -221.000976562 367.5 -195.5 c 128,-1,4
 339 -170 339 -170 329 -140 c 1,5,-1
 347 -127 l 1,6,7
 365.714121124 -155.068440627 365.714121124 -155.068440627 439.5 -172 c 0,8,9
 484.747733029 -182.386506935 484.747733029 -182.386506935 518.873378233 -177.193741749 c 0,10,11
 591.001748047 -166.218251455 591.001748047 -166.218251455 591 -134 c 0,12,13
 591 -111.999023438 591 -111.999023438 570 -100.5 c 128,-1,14
 549 -88.9990234375 549 -88.9990234375 518 -82 c 128,-1,15
 487.00390625 -75.0009765625 487.00390625 -75.0009765625 455.5 -67 c 128,-1,16
 424 -59.0009765625 424 -59.0009765625 403 -45 c 128,-1,17
 382 -31.0009765625 382 -31.0009765625 382 1.49951171875 c 128,-1,18
 382 34 382 34 416.5 55 c 128,-1,19
 451 76 451 76 490.499511719 76 c 128,-1,20
 529.999023438 76 529.999023438 76 550.5 69 c 128,-1,21
 571.000976562 62 571.000976562 62 588 53 c 1,22,-1
 569 18 l 1,23,24
 540.000976562 37 540.000976562 37 499.099544271 37 c 128,-1,25
 458.198111979 37 458.198111979 37 435 22.5 c 0,26,27
 423 15 423 15 423 0.49951171875 c 128,-1,28
 423 -14.0009765625 423 -14.0009765625 444 -22 c 128,-1,29
 465 -29.9990234375 465 -29.9990234375 496.5 -37 c 128,-1,30
 528 -44.0009765625 528 -44.0009765625 559.5 -55 c 0,31,32
 633 -80.6643880208 633 -80.6643880208 633 -141 c 0,33,34
 633 -168 633 -168 618 -193.5 c 128,-1,0
 603 -219 603 -219 574.5 -235.5 c 128,-1,1
69 433.5 m 128,-1,36
 65 432 65 432 59.5 432 c 128,-1,37
 54 432 54 432 39 435 c 1,38,39
 39 518.684210526 39 518.684210526 50.5 559.842593544 c 128,-1,40
 62 601.000976562 62 601.000976562 82.5 623.5 c 128,-1,41
 103 646 103 646 139.5 646 c 0,42,43
 205.144334339 646 205.144334339 646 225 571 c 0,44,45
 238 521.887478299 238 521.887478299 238 419 c 2,46,-1
 238 304 l 2,47,48
 238 242.000976562 238 242.000976562 258.5 212.5 c 128,-1,49
 279.000976562 183 279.000976562 183 310 183 c 2,50,-1
 322 183 l 1,51,-1
 322 401 l 2,52,53
 322 570.075762149 322 570.075762149 441 622 c 0,54,55
 496.000976562 646 496.000976562 646 566.000976562 646 c 128,-1,56
 636.000976562 646 636.000976562 646 693 625 c 0,57,58
 815.001881032 580.051938567 815.001881032 580.051938567 815 451 c 0,59,60
 815 395.822443001 815 395.822443001 773 352 c 0,61,62
 750.000976562 328 750.000976562 328 710 312 c 1,63,64
 752 295.999023438 752 295.999023438 783.5 259.5 c 128,-1,65
 815 223.000976562 815 223.000976562 815 155 c 2,66,-1
 815 100 l 1,67,-1
 776 100 l 1,68,-1
 776 158 l 2,69,70
 776 207 776 207 753.5 234.5 c 0,71,72
 705.634663873 293 705.634663873 293 586 293 c 2,73,-1
 542 293 l 1,74,-1
 546 332 l 1,75,-1
 595 332 l 2,76,77
 693.449121129 332 693.449121129 332 740.5 375.5 c 0,78,79
 767.000976562 399.999023438 767.000976562 399.999023438 767.000488281 446.999023438 c 128,-1,80
 767 493.999023438 767 493.999023438 717 528.5 c 128,-1,81
 667.000976562 563 667.000976562 563 563 563 c 0,82,83
 433.058872768 563 433.058872768 563 387 501 c 0,84,85
 361.000976562 466.000976562 361.000976562 466.000976562 361 401 c 2,86,-1
 361 100 l 1,87,-1
 338 100 l 2,88,89
 246.267717634 100 246.267717634 100 218 168.5 c 0,90,91
 199 214.53500338 199 214.53500338 199 327 c 2,92,-1
 199 422 l 2,93,94
 199 498.999023438 199 498.999023438 187.5 531 c 128,-1,95
 175.999023438 562.999023438 175.999023438 562.999023438 143.499511719 562.999511719 c 128,-1,96
 111 563 111 563 98 546.5 c 128,-1,97
 85 530 85 530 82 501.5 c 128,-1,98
 79 473 79 473 78 436 c 1,99,35
 73 434.999023438 73 434.999023438 69 433.5 c 128,-1,36
EndSplineSet
Validated: 19489
Comment: "Y+-100 from actual position+AAoA(maybe move to UnicodiaKawiPatch?)"
EndChar

StartChar: uni1B7D
Encoding: 48 7037 71
Width: 1972
Flags: W
HStem: -10 83<98.4104 181.938 518.089 653.638 987.919 1072.59> 6.02344 83<1392.98 1477.65> 43.5762 83<1795.62 1880.29> 282.815 83<1567.74 1703.92> 363.549 83<1165.42 1301.23> 463 83<279.207 409.427 760.362 896.169>
VStem: 41 41<93.628 218.902> 199 39<91.2737 427.081> 443 39<108.919 422.589> 687 40<113.027 422.973> 932 39<91.3108 427.081> 1092 40.0605<93.665 322.773> 1339.06 37<108.555 321.553> 1895.7 41<147.204 328.482>
LayerCount: 2
Fore
SplineSet
340 546 m 0,0,1
 397 546 397 546 427.5 519.5 c 128,-1,2
 457.999511719 492.999511719 457.999511719 492.999511719 470 438.5 c 128,-1,3
 482 384.000488281 482 384.000488281 482 300 c 2,4,-1
 482 235 l 2,5,6
 482 170.999511719 482 170.999511719 491 135.5 c 128,-1,7
 500 99.9995117188 500 99.9995117188 522.5 86.5 c 128,-1,8
 545 73 545 73 585 73 c 0,9,10
 648 73 648 73 667.5 113 c 128,-1,11
 687 153.000488281 687 153.000488281 687 237 c 2,12,-1
 687 300 l 2,13,14
 687 424.999511719 687 424.999511719 716 485.5 c 128,-1,15
 744.999511719 545.999511719 744.999511719 545.999511719 830 546 c 0,16,17
 909.999511719 546 909.999511719 546 940.5 488.5 c 128,-1,18
 970.999511719 431.000488281 970.999511719 431.000488281 971 301 c 2,19,-1
 971 213.037109375 l 2,20,21
 971 137.036621094 971 137.036621094 983 105.037109375 c 128,-1,22
 995 73.0375976562 995 73.0375976562 1029 73.037109375 c 0,23,24
 1060.00048828 73.037109375 1060.00048828 73.037109375 1072.5 93.037109375 c 128,-1,25
 1084.99951172 113.036621094 1084.99951172 113.036621094 1088 145.037109375 c 0,26,27
 1091.16040517 178.747583426 1091.16040517 178.747583426 1092 214.037109375 c 0,28,29
 1094.24211412 308.269239004 1094.24211412 308.269239004 1121.06054688 386.048828125 c 1,30,31
 1150.06005859 446.548339844 1150.06005859 446.548339844 1235.06054688 446.548828125 c 0,32,33
 1315.06005859 446.548828125 1315.06005859 446.548828125 1345.56054688 389.048828125 c 1,34,35
 1360.38615113 347.080257661 1360.38615113 347.080257661 1366.84009023 315.549095045 c 128,-1,36
 1373.29402934 284.017932429 1373.29402934 284.017932429 1376.06054688 229.0234375 c 0,37,38
 1380.47674669 141.246596087 1380.47674669 141.246596087 1388.06054688 121.0234375 c 0,39,40
 1400.06054688 89.0239257812 1400.06054688 89.0239257812 1434.06054688 89.0234375 c 0,41,42
 1465.06103516 89.0234375 1465.06103516 89.0234375 1477.56054688 109.0234375 c 128,-1,43
 1490.02929303 128.973723601 1490.02929303 128.973723601 1493.06054688 161.0234375 c 0,44,45
 1502.32798415 259.009066696 1502.32798415 259.009066696 1523.703125 305.315429688 c 0,46,47
 1551.62899971 365.815429688 1551.62899971 365.815429688 1637.703125 365.815429688 c 0,48,49
 1721.27383623 365.815429688 1721.27383623 365.815429688 1748.203125 308.315429688 c 0,50,51
 1773.55264891 254.190125626 1773.55264891 254.190125626 1778.703125 202.159179688 c 0,52,53
 1780.50832688 183.923497256 1780.50832688 183.923497256 1781.63748178 176.950957098 c 128,-1,54
 1782.76663669 169.978416941 1782.76663669 169.978416941 1783.49613943 169.587510309 c 128,-1,55
 1784.22564217 169.196603677 1784.22564217 169.196603677 1786.23370371 167.168150702 c 128,-1,56
 1788.24176525 165.139697727 1788.24176525 165.139697727 1790.703125 158.576171875 c 0,57,58
 1802.703125 126.576660156 1802.703125 126.576660156 1836.703125 126.576171875 c 0,59,60
 1867.70361328 126.576171875 1867.70361328 126.576171875 1880.203125 146.576171875 c 128,-1,61
 1892.70263672 166.575683594 1892.70263672 166.575683594 1895.703125 198.576171875 c 0,62,63
 1896.53555947 207.45533738 1896.53555947 207.45533738 1899.703125 324.599609375 c 1,64,65
 1904.70263672 326.599121094 1904.70263672 326.599121094 1909.203125 327.599609375 c 128,-1,66
 1913.703125 328.600097656 1913.703125 328.600097656 1920.703125 328.599609375 c 128,-1,67
 1927.70361328 328.599609375 1927.70361328 328.599609375 1931.203125 328.099609375 c 128,-1,68
 1934.69990186 327.600488024 1934.69990186 327.600488024 1938.703125 325.599609375 c 1,69,70
 1938.703125 242.584963084 1938.703125 242.584963084 1936.703125 204.576171875 c 128,-1,71
 1934.70361328 166.576660156 1934.70361328 166.576660156 1925.203125 129.576171875 c 128,-1,72
 1915.70361328 92.5756835938 1915.70361328 92.5756835938 1895.203125 68.076171875 c 128,-1,73
 1874.70263672 43.5766601562 1874.70263672 43.5766601562 1837.703125 43.576171875 c 0,74,75
 1801.703125 43.576171875 1801.703125 43.576171875 1781.703125 64.076171875 c 128,-1,76
 1761.54011283 84.7442562008 1761.54011283 84.7442562008 1752.703125 118.576171875 c 0,77,78
 1746.66670752 141.687353069 1746.66670752 141.687353069 1742.06807441 168.586498207 c 128,-1,79
 1737.46944129 195.485643346 1737.46944129 195.485643346 1730.703125 220.815429688 c 0,80,81
 1721.2850258 256.072284489 1721.2850258 256.072284489 1699.703125 269.315429688 c 0,82,83
 1677.70263672 282.815429688 1677.70263672 282.815429688 1636.703125 282.815429688 c 0,84,85
 1573.4375468 282.815429688 1573.4375468 282.815429688 1554.203125 242.815429688 c 0,86,87
 1540.23225932 213.76075268 1540.23225932 213.76075268 1533.90937679 162.355825956 c 128,-1,88
 1527.58649426 110.950899231 1527.58649426 110.950899231 1522.56054688 92.0234375 c 0,89,90
 1512.58394083 54.4527882612 1512.58394083 54.4527882612 1492.56054688 30.5234375 c 0,91,92
 1472.06005859 6.02392578125 1472.06005859 6.02392578125 1435.06054688 6.0234375 c 0,93,94
 1399.06054688 6.0234375 1399.06054688 6.0234375 1379.06054688 26.5234375 c 128,-1,95
 1359.06103516 47.0239257812 1359.06103516 47.0239257812 1350.06054688 81.0234375 c 128,-1,96
 1341.06054688 115.023925781 1341.06054688 115.023925781 1339.06054688 154.5234375 c 128,-1,97
 1337.06103516 194.022949219 1337.06103516 194.022949219 1337.06054688 233.0234375 c 0,98,99
 1337.06054688 267.321388354 1337.06054688 267.321388354 1328.06054688 301.548828125 c 0,100,101
 1318.81761379 336.698197009 1318.81761379 336.698197009 1297.06054688 350.048828125 c 0,102,103
 1275.06005859 363.548828125 1275.06005859 363.548828125 1234.06054688 363.548828125 c 0,104,105
 1171.06054688 363.548828125 1171.06054688 363.548828125 1151.56054688 323.548828125 c 0,106,107
 1131.71629944 282.842182635 1131.71629944 282.842182635 1132.06054688 199.548828125 c 0,108,109
 1132.17927405 170.794591356 1132.17927405 170.794591356 1127.98242188 137.908203125 c 0,110,111
 1122.64159687 96.0635380776 1122.64159687 96.0635380776 1117.5 76.037109375 c 0,112,113
 1108.00048828 39.0366210938 1108.00048828 39.0366210938 1087.5 14.537109375 c 128,-1,114
 1066.99951172 -9.96240234375 1066.99951172 -9.96240234375 1030 -9.962890625 c 0,115,116
 994 -9.962890625 994 -9.962890625 974 10.537109375 c 128,-1,117
 954.000488281 31.0375976562 954.000488281 31.0375976562 945 65.037109375 c 128,-1,118
 936 99.0375976562 936 99.0375976562 934 138.537109375 c 128,-1,119
 932.000488281 178.036621094 932.000488281 178.036621094 932 217.037109375 c 2,120,-1
 932 301 l 2,121,122
 932 365.999511719 932 365.999511719 923 401 c 128,-1,123
 914 435.999511719 914 435.999511719 892 449.5 c 128,-1,124
 869.999511719 463 869.999511719 463 829 463 c 0,125,126
 766 463 766 463 746.5 423 c 128,-1,127
 727 382.999511719 727 382.999511719 727 299 c 2,128,-1
 727 236 l 2,129,130
 727 111.000488281 727 111.000488281 698 50.5 c 128,-1,131
 669.000488281 -9.99951171875 669.000488281 -9.99951171875 584 -10 c 0,132,133
 504.000488281 -10 504.000488281 -10 473.5 47.5 c 128,-1,134
 443.000488281 104.999511719 443.000488281 104.999511719 443 235 c 2,135,-1
 443 299 l 2,136,137
 443 383 443 383 423.5 423 c 128,-1,138
 404 463.000488281 404 463.000488281 341 463 c 0,139,140
 300.999511719 463 300.999511719 463 278.5 449.5 c 128,-1,141
 256 436 256 436 247 401 c 128,-1,142
 238 366.000488281 238 366.000488281 238 301 c 2,143,-1
 238 217 l 2,144,145
 238 178 238 178 236 138.5 c 128,-1,146
 234.000488281 99.0004882812 234.000488281 99.0004882812 225 65 c 128,-1,147
 216 30.9995117188 216 30.9995117188 196 10.5 c 128,-1,148
 176.000488281 -10.0004882812 176.000488281 -10.0004882812 140 -10 c 0,149,150
 102.999511719 -10 102.999511719 -10 82.5 15 c 128,-1,151
 61.9995117188 40.0004882812 61.9995117188 40.0004882812 52.5 77 c 128,-1,152
 43.0004882812 114.000488281 43.0004882812 114.000488281 41 152 c 128,-1,153
 39.0004882812 189.999511719 39.0004882812 189.999511719 39 216 c 1,154,155
 44 217 44 217 47 218 c 128,-1,156
 50 219.000488281 50 219.000488281 57 219 c 0,157,158
 64.9995117188 219 64.9995117188 219 69 218 c 128,-1,159
 73.0004882812 216.999511719 73.0004882812 216.999511719 78 215 c 1,160,161
 79.0004882812 177.999511719 79.0004882812 177.999511719 82 145.5 c 128,-1,162
 85 112.999511719 85 112.999511719 98 93 c 128,-1,163
 111.000488281 73.0004882812 111.000488281 73.0004882812 141 73 c 0,164,165
 175.999511719 73 175.999511719 73 187.5 105.5 c 128,-1,166
 199.000488281 138.000488281 199.000488281 138.000488281 199 214 c 2,167,-1
 199 301 l 2,168,169
 199 431.000488281 199 431.000488281 229 488.5 c 128,-1,170
 259 545.999511719 259 545.999511719 340 546 c 0,0,1
EndSplineSet
Validated: 19489
EndChar

StartChar: uni1B7E
Encoding: 49 7038 72
Width: 2547
VWidth: 1150
Flags: W
HStem: -292 83<382.163 520.174 781.163 912.069> -242.023 39<1125.3 1167.19> -142 83<603.221 698.373> -121.34 39<1357.69 1394.79> -49 73<719.52 837.386> 45.1172 39<1589.89 1626.99> 133.164 51.5137<1937.69 2041.72> 164.256 53.6035<2353.76 2431.12> 201 73<857.367 951> 303 83<261.104 322> 384.939 55.6895<2167.81 2258.87> 410.653 61.9443<1737.07 1820.4> 546.684 83<1449.62 1507.55> 628.059 83<1217.43 1275.35> 708 83<990 1047.92> 717 83<96.4826 182.784 403.104 536.889 655.349 789.891>
VStem: 39 39<586.018 699.457> 199 39<412.068 699.742> 283 49<-151.885 65.4627> 322 39<386 666.396> 579 34<612 667.421> 639 18<107.041 128.667> 830 39<303 666.875> 951 39<-162.39 192 273 708> 1076 39<-196.846 114 222 671.38> 1178.43 39<-195.708 -90.8984 -60.1355 44.8228 90.9961 628.059> 1303.43 39<-71.0334 591.439> 1410.62 39<-68.8537 546.684> 1535.62 39<95.4239 510.064> 1642.82 39<97.6033 311.571> 2477.45 38.9277<299.522 393.293>
LayerCount: 2
Fore
SplineSet
1781.71484375 472.59765625 m 0,0,1
 1808.35546875 472.9765625 1808.35546875 472.9765625 1828.28515625 455.28125 c 0,2,3
 1844.07519531 441.262695312 1844.07519531 441.262695312 1855.734375 414.947265625 c 0,4,5
 1866.1328125 391.48046875 1866.1328125 391.48046875 1886.46289062 308.76953125 c 0,6,7
 1891.37792969 289.08984375 1891.37792969 289.08984375 1898.58105469 270.55859375 c 128,-1,8
 1905.78320312 252.028320312 1905.78320312 252.028320312 1917.66796875 231.083984375 c 128,-1,9
 1929.55175781 210.139648438 1929.55175781 210.139648438 1947.54394531 197.408203125 c 128,-1,10
 1965.53613281 184.677734375 1965.53613281 184.677734375 1986.79785156 184.677734375 c 0,11,12
 2025.39355469 184.677734375 2025.39355469 184.677734375 2048.91992188 213.9296875 c 128,-1,13
 2072.44726562 243.180664062 2072.44726562 243.180664062 2089.46289062 292.83203125 c 0,14,15
 2115.83398438 366.135742188 2115.83398438 366.135742188 2129.65234375 389.013671875 c 0,16,17
 2160.82910156 440.62890625 2160.82910156 440.62890625 2209.78320312 440.62890625 c 128,-1,18
 2258.81347656 440.62890625 2258.81347656 440.62890625 2288.8359375 394.7109375 c 0,19,20
 2305.9921875 368.47265625 2305.9921875 368.47265625 2324.40820312 308.134765625 c 0,21,22
 2330.18359375 289.205078125 2330.18359375 289.205078125 2333.88378906 279.231445312 c 128,-1,23
 2337.58300781 269.258789062 2337.58300781 269.258789062 2346.09375 251.978515625 c 128,-1,24
 2354.60351562 234.698242188 2354.60351562 234.698242188 2366.31445312 226.279296875 c 128,-1,25
 2378.02539062 217.859375 2378.02539062 217.859375 2392.71582031 217.859375 c 0,26,27
 2405.14746094 217.859375 2405.14746094 217.859375 2415.76171875 224.396484375 c 128,-1,28
 2426.37597656 230.93359375 2426.37597656 230.93359375 2434.33496094 244.408203125 c 128,-1,29
 2442.29394531 257.8828125 2442.29394531 257.8828125 2448.17871094 270.560546875 c 128,-1,30
 2454.06347656 283.237304688 2454.06347656 283.237304688 2459.12597656 303.7265625 c 128,-1,31
 2464.1875 324.215820312 2464.1875 324.215820312 2466.78027344 336.024414062 c 128,-1,32
 2469.37304688 347.833984375 2469.37304688 347.833984375 2472.97460938 368.330078125 c 128,-1,33
 2476.57714844 388.826171875 2476.57714844 388.826171875 2477.453125 393.306640625 c 1,34,35
 2497.07128906 398.979492188 2497.07128906 398.979492188 2516.38085938 390.931640625 c 1,36,37
 2513.20117188 337.108398438 2513.20117188 337.108398438 2497.23242188 282.466796875 c 0,38,39
 2482.91210938 233.46484375 2482.91210938 233.46484375 2461.10351562 204.56640625 c 0,40,41
 2430.68164062 164.255859375 2430.68164062 164.255859375 2387.84765625 164.255859375 c 0,42,43
 2344.390625 164.255859375 2344.390625 164.255859375 2318.44140625 211.44921875 c 0,44,45
 2306.53515625 233.102539062 2306.53515625 233.102539062 2287.10742188 296.75 c 0,46,47
 2281.30761719 315.662109375 2281.30761719 315.662109375 2279.26464844 321.91796875 c 128,-1,48
 2277.22265625 328.172851562 2277.22265625 328.172851562 2270.02050781 343.967773438 c 128,-1,49
 2262.81835938 359.762695312 2262.81835938 359.762695312 2256.03222656 366.107421875 c 128,-1,50
 2249.24707031 372.453125 2249.24707031 372.453125 2237.06738281 378.696289062 c 128,-1,51
 2224.88671875 384.939453125 2224.88671875 384.939453125 2209.78320312 384.939453125 c 0,52,53
 2199.90039062 384.939453125 2199.90039062 384.939453125 2191.24902344 381.853515625 c 128,-1,54
 2182.59765625 378.768554688 2182.59765625 378.768554688 2174.99707031 370.744140625 c 128,-1,55
 2167.39550781 362.720703125 2167.39550781 362.720703125 2162.33007812 357.120117188 c 128,-1,56
 2157.26367188 351.520507812 2157.26367188 351.520507812 2150.78808594 337.916992188 c 128,-1,57
 2144.3125 324.314453125 2144.3125 324.314453125 2141.92480469 319.215820312 c 128,-1,58
 2139.53808594 314.116210938 2139.53808594 314.116210938 2133.28125 297.950195312 c 128,-1,59
 2127.02539062 281.784179688 2127.02539062 281.784179688 2126.16015625 279.630859375 c 0,60,61
 2101.81640625 211.9609375 2101.81640625 211.9609375 2078.90234375 182.013671875 c 0,62,63
 2040.98046875 132.452148438 2040.98046875 132.452148438 1982.15234375 133.1640625 c 0,64,65
 1922.25 133.890625 1922.25 133.890625 1887.82226562 190.423828125 c 0,66,67
 1873.80957031 214.029296875 1873.80957031 214.029296875 1859.08789062 277.559570312 c 0,68,69
 1858.52246094 280.000976562 1858.52246094 280.000976562 1857.39453125 284.891601562 c 0,70,71
 1852.5703125 305.80859375 1852.5703125 305.80859375 1849.84277344 316.510742188 c 128,-1,72
 1847.11523438 327.211914062 1847.11523438 327.211914062 1841.81835938 344.850585938 c 128,-1,73
 1836.52148438 362.489257812 1836.52148438 362.489257812 1831.28515625 371.818359375 c 128,-1,74
 1826.04882812 381.146484375 1826.04882812 381.146484375 1818.5703125 391.463867188 c 128,-1,75
 1811.09082031 401.78125 1811.09082031 401.78125 1801.47949219 406.216796875 c 128,-1,76
 1791.86816406 410.653320312 1791.86816406 410.653320312 1780.18164062 410.653320312 c 0,77,78
 1765.18359375 410.653320312 1765.18359375 410.653320312 1752.32617188 402.1640625 c 128,-1,79
 1739.46875 393.674804688 1739.46875 393.674804688 1730.55371094 381.849609375 c 128,-1,80
 1721.63867188 370.0234375 1721.63867188 370.0234375 1713.81152344 349.423828125 c 128,-1,81
 1705.984375 328.82421875 1705.984375 328.82421875 1701.50195312 312.89453125 c 128,-1,82
 1697.01953125 296.963867188 1697.01953125 296.963867188 1692.54199219 271.421875 c 0,83,84
 1691.03710938 265.866210938 1691.03710938 265.866210938 1681.82226562 197.384765625 c 1,85,86
 1681.82226562 134.384765625 1681.82226562 134.384765625 1665.25976562 93.744140625 c 0,87,88
 1656.55371094 72.3837890625 1656.55371094 72.3837890625 1643.95507812 60.158203125 c 0,89,90
 1628.45507812 45.1171875 1628.45507812 45.1171875 1609.21484375 45.1171875 c 0,91,92
 1572.62011719 45.1171875 1572.62011719 45.1171875 1552.86523438 90.376953125 c 0,93,94
 1535.625 129.876953125 1535.625 129.876953125 1535.625 197.384765625 c 2,95,-1
 1535.625 398.68359375 l 2,96,97
 1535.625 475.684570312 1535.625 475.684570312 1516.625 511.18359375 c 128,-1,98
 1497.625 546.68359375 1497.625 546.68359375 1462.625 546.68359375 c 2,99,-1
 1449.625 546.68359375 l 1,100,-1
 1449.625 30.927734375 l 2,101,102
 1449.625 -32.072265625 1449.625 -32.072265625 1433.0625 -72.712890625 c 0,103,104
 1424.35644531 -94.0732421875 1424.35644531 -94.0732421875 1411.7578125 -106.298828125 c 0,105,106
 1396.2578125 -121.33984375 1396.2578125 -121.33984375 1377.01757812 -121.33984375 c 0,107,108
 1340.42285156 -121.33984375 1340.42285156 -121.33984375 1320.66796875 -76.080078125 c 0,109,110
 1303.42773438 -36.58203125 1303.42773438 -36.58203125 1303.42773438 30.927734375 c 2,111,-1
 1303.42773438 480.05859375 l 2,112,113
 1303.42773438 557.05859375 1303.42773438 557.05859375 1284.42773438 592.55859375 c 128,-1,114
 1265.42773438 628.057617188 1265.42773438 628.057617188 1230.42773438 628.05859375 c 2,115,-1
 1217.42773438 628.05859375 l 1,116,-1
 1217.42773438 -1.779296875 l 1,117,118
 1233.21972656 -47.7470703125 1233.21972656 -47.7470703125 1243 -81 c 1,119,-1
 1217.42773438 -90.8984375 l 1,120,-1
 1217.42773438 -135.15234375 l 2,121,122
 1217.42773438 -170.084960938 1217.42773438 -170.084960938 1202.46875 -200.486328125 c 0,123,124
 1182.03027344 -242.0234375 1182.03027344 -242.0234375 1146.44140625 -242.0234375 c 0,125,126
 1110.38964844 -242.0234375 1110.38964844 -242.0234375 1090.8515625 -202.52734375 c 0,127,128
 1076 -172.5078125 1076 -172.5078125 1076 -136.52734375 c 2,129,-1
 1076 152 l 1,130,131
 1038 180 1038 180 990 192 c 1,132,-1
 990 -70 l 2,133,134
 990 -153 990 -153 970.5 -202 c 128,-1,135
 951 -251 951 -251 919 -271.5 c 128,-1,136
 887 -292 887 -292 848 -292 c 0,137,138
 813 -292 813 -292 790.5 -277 c 128,-1,139
 768 -262 768 -262 753 -239.5 c 128,-1,140
 738 -217 738 -217 724.5 -194.5 c 128,-1,141
 711 -172 711 -172 694 -157 c 128,-1,142
 677 -142 677 -142 650 -142 c 0,143,144
 624 -142 624 -142 607 -157 c 128,-1,145
 590 -172 590 -172 576.5 -194.5 c 128,-1,146
 563 -217 563 -217 548 -239.5 c 128,-1,147
 533 -262 533 -262 511 -277 c 128,-1,148
 489 -292 489 -292 454 -292 c 0,149,150
 389 -292 389 -292 351.5 -263 c 128,-1,151
 314 -234 314 -234 298.5 -186.5 c 128,-1,152
 283 -139 283 -139 283 -85 c 0,153,154
 283 -3 283 -3 304.5 65 c 128,-1,155
 326 133 326 133 359 193 c 1,156,-1
 400 185 l 1,157,158
 366 134 366 134 349 68 c 128,-1,159
 332 2 332 2 332 -58 c 0,160,161
 332 -121 332 -121 361.5 -165 c 128,-1,162
 391 -209 391 -209 458 -209 c 0,163,164
 492 -209 492 -209 514 -194 c 128,-1,165
 536 -179 536 -179 551.5 -156.5 c 128,-1,166
 567 -134 567 -134 580.5 -111.5 c 128,-1,167
 594 -89 594 -89 610 -74 c 128,-1,168
 626 -59 626 -59 651 -59 c 0,169,170
 675 -59 675 -59 691.5 -74 c 128,-1,171
 708 -89 708 -89 721 -111.5 c 128,-1,172
 734 -134 734 -134 749.5 -156.5 c 128,-1,173
 765 -179 765 -179 787.5 -194 c 128,-1,174
 810 -209 810 -209 844 -209 c 0,175,176
 872 -209 872 -209 896.5 -197.5 c 128,-1,177
 921 -186 921 -186 936 -155.5 c 128,-1,178
 951 -125 951 -125 951 -69 c 2,179,-1
 951 199 l 1,180,181
 942 200 942 200 932.5 200.5 c 128,-1,182
 922.991210938 201 922.991210938 201 912 201 c 0,183,184
 856 201 856 201 856 171 c 0,185,186
 856 157 856 157 866 140.5 c 128,-1,187
 876 124 876 124 885.5 103.5 c 128,-1,188
 895 83 895 83 895 56 c 0,189,190
 895 15 895 15 865 -17 c 128,-1,191
 835 -49 835 -49 781 -49 c 0,192,193
 745 -49 745 -49 714 -23 c 128,-1,194
 683 3 683 3 663 42.5 c 128,-1,195
 643 82 643 82 639 124 c 1,196,-1
 657 136 l 1,197,198
 671 76 671 76 705 50 c 128,-1,199
 739 24 739 24 782 24 c 0,200,201
 817 24 817 24 835 40.5 c 128,-1,202
 853 57 853 57 853 79 c 0,203,204
 853 97 853 97 843.5 113 c 128,-1,205
 833.989257812 129.01953125 833.989257812 129.01953125 824.5 147 c 128,-1,206
 815 165 815 165 815 186 c 0,207,208
 815 230 815 230 847 252 c 128,-1,209
 879 274 879 274 924 274 c 2,210,-1
 937.5 274 l 1,211,-1
 951 273 l 1,212,-1
 951 791 l 1,213,-1
 974 791 l 2,214,215
 1025 791 1025 791 1053.5 772.5 c 128,-1,216
 1082 754 1082 754 1095 722.5 c 128,-1,217
 1108 691 1108 691 1111.5 650 c 128,-1,218
 1115 609 1115 609 1115 564 c 2,219,-1
 1115 185 l 1,220,221
 1149.13378906 146.7890625 1149.13378906 146.7890625 1178.42773438 90.99609375 c 1,222,-1
 1178.42773438 711.05859375 l 1,223,-1
 1201.42773438 711.05859375 l 2,224,225
 1252.42773438 711.05859375 1252.42773438 711.05859375 1280.92773438 692.55859375 c 128,-1,226
 1309.42773438 674.057617188 1309.42773438 674.057617188 1322.42773438 642.55859375 c 128,-1,227
 1335.42773438 611.05859375 1335.42773438 611.05859375 1338.92773438 570.05859375 c 128,-1,228
 1342.42773438 529.057617188 1342.42773438 529.057617188 1342.42773438 484.05859375 c 2,229,-1
 1342.42773438 30.927734375 l 2,230,231
 1342.42773438 -28.439453125 1342.42773438 -28.439453125 1356.41210938 -60.478515625 c 0,232,233
 1365.95410156 -82.33984375 1365.95410156 -82.33984375 1377.01757812 -82.33984375 c 0,234,235
 1380.44824219 -82.33984375 1380.44824219 -82.33984375 1384.59765625 -78.3125 c 0,236,237
 1391.32910156 -71.779296875 1391.32910156 -71.779296875 1396.94726562 -57.994140625 c 0,238,239
 1410.625 -24.435546875 1410.625 -24.435546875 1410.625 30.927734375 c 2,240,-1
 1410.625 629.68359375 l 1,241,-1
 1433.625 629.68359375 l 2,242,243
 1484.625 629.68359375 1484.625 629.68359375 1513.125 611.18359375 c 128,-1,244
 1541.625 592.68359375 1541.625 592.68359375 1554.625 561.18359375 c 128,-1,245
 1567.625 529.68359375 1567.625 529.68359375 1571.125 488.68359375 c 128,-1,246
 1574.625 447.68359375 1574.625 447.68359375 1574.625 402.68359375 c 2,247,-1
 1574.625 197.384765625 l 2,248,249
 1574.625 138.018554688 1574.625 138.018554688 1588.609375 105.978515625 c 0,250,251
 1598.15136719 84.1171875 1598.15136719 84.1171875 1609.21484375 84.1171875 c 0,252,253
 1612.64550781 84.1171875 1612.64550781 84.1171875 1616.79492188 88.14453125 c 0,254,255
 1623.52832031 94.6806640625 1623.52832031 94.6806640625 1629.14453125 108.462890625 c 0,256,257
 1642.81738281 142.010742188 1642.81738281 142.010742188 1642.82226562 197.34375 c 0,258,259
 1642.69921875 198.232421875 1642.69921875 198.232421875 1642.87109375 199.326171875 c 0,260,261
 1646.01855469 264.23046875 1646.01855469 264.23046875 1663.16210938 330.0703125 c 0,262,263
 1678.47363281 388.879882812 1678.47363281 388.879882812 1702.00195312 423.595703125 c 0,264,265
 1734.75976562 471.931640625 1734.75976562 471.931640625 1781.71484375 472.59765625 c 0,0,1
1115 114 m 1,266,-1
 1115 -135.84765625 l 2,267,268
 1115.203125 -164.076171875 1115.203125 -164.076171875 1125.71679688 -185.05078125 c 0,269,270
 1134.72558594 -203.0234375 1134.72558594 -203.0234375 1146.44140625 -203.0234375 c 0,271,272
 1157.75488281 -203.0234375 1157.75488281 -203.0234375 1167.4765625 -183.267578125 c 0,273,274
 1178.42773438 -161.012695312 1178.42773438 -161.012695312 1178.42773438 -135.15234375 c 2,275,-1
 1178.42773438 2.34375 l 1,276,277
 1172.84570312 16.0048828125 1172.84570312 16.0048828125 1170 22.5 c 0,278,279
 1147 75 1147 75 1115 114 c 1,266,-1
990 708 m 1,280,-1
 990 265 l 1,281,282
 1015 259 1015 259 1036 247.5 c 128,-1,283
 1057 236 1057 236 1076 222 c 1,284,-1
 1076 560 l 2,285,286
 1076 637 1076 637 1057 672.5 c 128,-1,287
 1038 708 1038 708 1003 708 c 2,288,-1
 990 708 l 1,280,-1
140 800 m 0,289,290
 176 800 176 800 196 779.5 c 128,-1,291
 216 759 216 759 225 725 c 128,-1,292
 234 691 234 691 236 651.5 c 128,-1,293
 238 612 238 612 238 573 c 2,294,-1
 238 497 l 2,295,296
 238 435 238 435 258.5 410.5 c 128,-1,297
 279 386 279 386 310 386 c 2,298,-1
 322 386 l 1,299,-1
 322 555 l 2,300,301
 322 685 322 685 355.5 742.5 c 128,-1,302
 389 800 389 800 474 800 c 0,303,304
 521 800 521 800 550.5 774 c 128,-1,305
 580 748 580 748 596 699 c 1,306,307
 612 748 612 748 641.5 774 c 128,-1,308
 671 800 671 800 718 800 c 0,309,310
 803 800 803 800 836 742.5 c 128,-1,311
 869 685 869 685 869 555 c 2,312,-1
 869 303 l 1,313,-1
 830 303 l 1,314,-1
 830 555 l 2,315,316
 830 620 830 620 816.5 655 c 128,-1,317
 803 690 803 690 778 703.5 c 128,-1,318
 753 717 753 717 718 717 c 0,319,320
 681 717 681 717 649.5 691 c 128,-1,321
 618 665 618 665 613 612 c 1,322,-1
 579 612 l 1,323,324
 579 639 579 639 565 663 c 128,-1,325
 551 687 551 687 527 702 c 128,-1,326
 503 717 503 717 474 717 c 0,327,328
 440 717 440 717 414.5 703.5 c 128,-1,329
 389 690 389 690 375 655 c 128,-1,330
 361 620 361 620 361 555 c 2,331,-1
 361 303 l 1,332,-1
 338 303 l 2,333,334
 287 303 287 303 259 320 c 128,-1,335
 231 337 231 337 218 366.5 c 128,-1,336
 205 396 205 396 202 435.5 c 128,-1,337
 199 475 199 475 199 520 c 2,338,-1
 199 576 l 2,339,340
 199 653 199 653 187.5 685 c 128,-1,341
 176 717 176 717 141 717 c 0,342,343
 111 717 111 717 98 700.5 c 128,-1,344
 85 684 85 684 82 655.5 c 128,-1,345
 79 627 79 627 78 590 c 1,346,347
 73 589 73 589 69 587.5 c 128,-1,348
 65 586 65 586 57 586 c 0,349,350
 50 586 50 586 47 587 c 128,-1,351
 44 588 44 588 39 589 c 1,352,353
 39 615 39 615 41 651 c 128,-1,354
 43 687 43 687 52.5 721 c 128,-1,355
 62 755 62 755 82.5 777.5 c 128,-1,356
 103 800 103 800 140 800 c 0,289,290
EndSplineSet
Validated: 19489
Comment: "Y+-150 from actual position+AAoA(move to UnicodiaKawiPatch?)"
EndChar

StartChar: LeftSqBracket
Encoding: 1 91 73
Width: 360
Flags: W
HStem: -128 42<211.5 323> 718 42<211.5 323>
VStem: 100 98<-72.2523 704.252>
LayerCount: 2
Fore
SplineSet
100 -128 m 1,0,-1
 100 760 l 1,1,-1
 323 760 l 1,2,-1
 323 718 l 1,3,-1
 280 718 l 2,4,5
 246 718 246 718 222 705.5 c 128,-1,6
 198 693 198 693 198 646 c 2,7,-1
 198 -14 l 2,8,9
 198 -61 198 -61 222 -73.5 c 128,-1,10
 246 -86 246 -86 280 -86 c 2,11,-1
 323 -86 l 1,12,-1
 323 -128 l 1,13,-1
 100 -128 l 1,0,-1
EndSplineSet
Validated: 19457
EndChar

StartChar: RightSqBracket
Encoding: 2 93 74
Width: 360
Flags: W
HStem: -128 42<37 148.5> 718 42<37 148.5>
VStem: 162 98<-72.2523 704.252>
LayerCount: 2
Fore
SplineSet
37 -128 m 1,0,-1
 37 -86 l 1,1,-1
 80 -86 l 2,2,3
 114 -86 114 -86 138 -73.5 c 128,-1,4
 162 -61 162 -61 162 -14 c 2,5,-1
 162 646 l 2,6,7
 162 693 162 693 138 705.5 c 128,-1,8
 114 718 114 718 80 718 c 2,9,-1
 37 718 l 1,10,-1
 37 760 l 1,11,-1
 260 760 l 1,12,-1
 260 -128 l 1,13,-1
 37 -128 l 1,0,-1
EndSplineSet
Validated: 19457
EndChar

StartChar: NameMe.386
Encoding: 569 -1 75
Width: 0
Flags: W
HStem: 295 42<-2.45215 323>
VStem: -2.45215 325.452<295 337>
LayerCount: 2
Fore
SplineSet
-2.4521484375 295 m 1,0,-1
 -2.4521484375 337 l 1,1,-1
 323 337 l 1,2,-1
 323 295 l 1,3,-1
 -2.4521484375 295 l 1,0,-1
EndSplineSet
Validated: 19457
EndChar

StartChar: u1B11F
Encoding: 364 110879 76
Width: 1000
HStem: 329 45<348.345 622> 333 63<320.253 458.877> 626 61<617 795.627>
VStem: 126 66<63.3812 467.402> 171.5 69.5<-76.2623 24.7788> 595 65<-126.81 -60.6694> 622 66<66.3723 329 384 574.936>
LayerCount: 2
Fore
SplineSet
350 271 m 1,0,1
 360 268 360 268 357 262 c 128,-1,2
 354 256 354 256 352 252 c 0,3,4
 345 241 345 241 340.5 230 c 128,-1,5
 336 219 336 219 309 166 c 0,6,7
 258 65 258 65 241 2 c 0,8,9
 241 -2 241 -2 238 -11 c 0,10,11
 237 -15 237 -15 237 -19 c 0,12,13
 237 -29 237 -29 240 -43 c 0,14,15
 241 -48 241 -48 241 -53 c 0,16,17
 241 -66 241 -66 232 -72 c 1,18,19
 227 -81 227 -81 215 -82.5 c 128,-1,20
 203 -84 203 -84 191 -76.5 c 128,-1,21
 179 -69 179 -69 171.5 -48 c 128,-1,22
 164 -27 164 -27 145 43 c 1,23,24
 126 130 126 130 126 236 c 0,25,26
 126 415 126 415 179 649 c 1,27,28
 165 685 165 685 133 697 c 1,29,30
 133 706 133 706 140 705 c 0,31,32
 143 705 143 705 152 702.5 c 128,-1,33
 161 700 161 700 164 701 c 0,34,35
 194 695 194 695 217.5 673.5 c 128,-1,36
 241 652 241 652 246 623 c 0,37,38
 245 615 245 615 239 603 c 128,-1,39
 233 591 233 591 232 584 c 0,40,41
 192 390 192 390 192 238 c 0,42,43
 192 142 192 142 208 62 c 1,44,45
 260 155 260 155 350 271 c 1,0,1
768 687 m 1,46,47
 798 675 798 675 798 654 c 0,48,49
 798 647 798 647 793 639 c 0,50,51
 784 622 784 622 767 622 c 24,52,53
 767 622 767 622 686 625 c 24,54,55
 660 626 660 626 617 626 c 1,56,57
 667 605 667 605 684 576 c 0,58,59
 687 566 687 566 684 555 c 0,60,61
 682 549 682 549 682 535.5 c 128,-1,62
 682 522 682 522 684 502 c 0,63,64
 685 482 685 482 688 384 c 1,65,66
 792 401 792 401 891 429 c 1,67,68
 920 426 920 426 927 410 c 0,69,70
 932 403 932 403 930 391 c 0,71,72
 925 365 925 365 874 358 c 0,73,74
 859 356 859 356 825.5 349.5 c 128,-1,75
 792 343 792 343 688 332 c 1,76,77
 688 313 688 313 688 294 c 0,78,79
 688 98 688 98 660 -101 c 0,80,81
 660 -102 660 -102 660 -104 c 0,82,83
 660 -113 660 -113 643 -133 c 1,84,85
 634 -137 634 -137 626 -137 c 0,86,87
 611 -137 611 -137 603 -127 c 0,88,89
 598 -121 598 -121 595 -106 c 0,90,91
 590 -81 590 -81 553 -30 c 2,92,-1
 457 90 l 1,93,94
 445 96 445 96 447 106.5 c 128,-1,95
 449 117 449 117 460 106 c 0,96,97
 544 44 544 44 604 -19 c 1,98,99
 622 142 622 142 622 298 c 0,100,101
 622 314 622 314 622 329 c 1,102,103
 617 329 617 329 610 329 c 0,104,105
 585 329 585 329 541 326 c 0,106,107
 500 323 500 323 461 323 c 0,108,109
 393 323 393 323 335 333 c 1,110,111
 312 343 312 343 312 360 c 128,-1,112
 312 377 312 377 320 386 c 0,113,114
 328 396 328 396 348 396 c 0,115,116
 359 396 359 396 375 392 c 0,117,118
 455 374 455 374 547 374 c 0,119,120
 584 374 584 374 622 377 c 1,121,122
 622 417 622 417 613 580 c 1,123,124
 603 595 603 595 574 623 c 1,125,126
 507 618 507 618 372 596 c 1,127,128
 370 599 370 599 370 601 c 0,129,130
 371 609 371 609 386 613 c 0,131,132
 396 616 396 616 398 619 c 0,133,134
 554 687 554 687 762 687 c 0,135,136
 765 687 765 687 768 687 c 1,46,47
EndSplineSet
Validated: 3073
EndChar

StartChar: u1B120
Encoding: 365 110880 77
Width: 1000
HStem: -138 67<178.893 246.81> 692 10<386 400.438>
VStem: 459 75<373.891 650.581> 459 66<35 607.748>
LayerCount: 2
Fore
SplineSet
525 35 m 1,0,-1
 930 169 l 1,1,2
 933 160 933 160 930 157.5 c 128,-1,3
 927 155 927 155 917 151.5 c 128,-1,4
 907 148 907 148 904 145 c 0,5,6
 704 47 704 47 343 -88 c 0,7,8
 335 -91 335 -91 300 -103.5 c 128,-1,9
 265 -116 265 -116 247 -124 c 1,10,11
 241 -138 241 -138 223 -138 c 0,12,13
 216 -137 216 -137 210 -136 c 1,14,15
 186 -125 186 -125 157 -97 c 128,-1,16
 128 -69 128 -69 120 -62 c 1,17,18
 124 -55 124 -55 127 -56 c 0,19,20
 129 -56 129 -56 141 -61 c 0,21,22
 149 -65 149 -65 152.5 -64.5 c 128,-1,23
 156 -64 156 -64 166 -67 c 0,24,25
 184 -71 184 -71 195 -71 c 128,-1,26
 206 -71 206 -71 216 -66 c 0,27,28
 281 -45 281 -45 459 13 c 1,29,-1
 459 637 l 1,30,31
 434 679 434 679 386 692 c 1,32,33
 385 700 385 700 390 702 c 0,34,35
 394 703 394 703 406 700 c 0,36,37
 414 698 414 698 432 698 c 128,-1,38
 450 698 450 698 478 681 c 0,39,40
 503 666 503 666 522 637 c 0,41,42
 534 619 534 619 534 608 c 0,43,44
 534 600 534 600 528 585 c 0,45,46
 522 572 522 572 525 564 c 1,47,-1
 525 35 l 1,0,-1
EndSplineSet
Validated: 3073
EndChar

StartChar: u1B121
Encoding: 366 110881 78
Width: 1000
HStem: -33 66<180.094 218.81> -16 62<817.81 895.576> -6 57<593.625 891.146> -2 34<317.141 514 571 787.686> 228 16<145.367 169> 692 9.5<640.43 657.046>
VStem: 116 14<47.5748 65.5693> 511 69<155 408.846> 511 60<32.5781 385.904> 677 62<616.36 676.969>
LayerCount: 2
Fore
SplineSet
497 406 m 0,0,1
 440 365 440 365 380 332 c 0,2,3
 283 276 283 276 185 241 c 0,4,5
 154 230 154 230 146 228 c 1,6,7
 144 231 144 231 144 232 c 0,8,9
 144 239 144 239 158 244 c 0,10,11
 167 247 167 247 169 249 c 0,12,13
 303 315 303 315 422 402 c 0,14,15
 514 471 514 471 579 534 c 128,-1,16
 644 597 644 597 673 641 c 0,17,18
 677 647 677 647 677 652 c 0,19,20
 677 688 677 688 640 692 c 1,21,22
 638 699 638 699 643.5 701.5 c 128,-1,23
 649 704 649 704 656.5 703 c 128,-1,24
 664 702 664 702 669 703 c 0,25,26
 692 700 692 700 710 684 c 0,27,28
 731 666 731 666 739 640 c 1,29,30
 739 622 739 622 726 613 c 1,31,32
 654 522 654 522 536 434 c 0,33,34
 533 431 533 431 538 428.5 c 128,-1,35
 543 426 543 426 551 423 c 128,-1,36
 559 420 559 420 561 416 c 0,37,38
 578 408 578 408 580 386 c 0,39,40
 580 383 580 383 574 370.5 c 128,-1,41
 568 358 568 358 571 350 c 1,42,-1
 571 38 l 1,43,44
 568 31 568 31 579 32 c 2,45,-1
 603 33 l 1,46,47
 698 33 698 33 740 39 c 1,48,49
 785 51 785 51 817 51 c 0,50,51
 843 51 843 51 859 46 c 0,52,53
 901 33 901 33 901 8 c 0,54,55
 902 -12 902 -12 887 -15 c 1,56,57
 882 -23 882 -23 866 -18 c 0,58,59
 850 -14 850 -14 844 -16 c 0,60,61
 811 -7 811 -7 782 -6 c 2,62,-1
 692 -4 l 2,63,64
 611 -2 611 -2 566 -2 c 0,65,66
 529 -2 529 -2 515 -3 c 0,67,68
 359 -16 359 -16 219 -25 c 1,69,70
 213 -33 213 -33 198 -33 c 0,71,72
 190 -33 190 -33 184 -30 c 0,73,74
 117 1 117 1 117 45 c 0,75,76
 117 46 117 46 117 47 c 0,77,78
 116 50 116 50 116 53 c 0,79,80
 116 59 116 59 121 64 c 0,81,82
 124 67 124 67 126 66 c 0,83,84
 130 66 130 66 130 57 c 1,85,86
 139 42 139 42 152 37.5 c 128,-1,87
 165 33 165 33 180 29 c 1,88,89
 183 33 183 33 189 33 c 0,90,91
 193 33 193 33 198 32 c 0,92,93
 208 31 208 31 256 31 c 0,94,95
 274 31 274 31 514 32 c 1,96,97
 510 36 510 36 510.5 60.5 c 128,-1,98
 511 85 511 85 511 90 c 2,99,-1
 511 402 l 2,100,101
 511 409 511 409 506.5 409 c 128,-1,102
 502 409 502 409 497 406 c 0,0,1
EndSplineSet
Validated: 3073
EndChar

StartChar: u1B122
Encoding: 367 110882 79
Width: 1000
HStem: 268 74<142.034 186.811> 284 89<792.883 913.335> 308 42.5<294.049 500 567 842.674> 583 73<222.065 293.84> 625 41<517.191 709.205> 627 66<664.572 788.623>
VStem: 73 15<375.013 402.966> 160 16<673.283 693.141> 502 66<11.77 305 348 571.873>
LayerCount: 2
Fore
SplineSet
616 307 m 2,0,-1
 567 306 l 1,1,2
 568 270 568 270 568 234 c 0,3,4
 568 37 568 37 540 -152 c 1,5,6
 527 -178 527 -178 508 -178 c 0,7,8
 498 -178 498 -178 488 -171 c 128,-1,9
 478 -164 478 -164 477.5 -155 c 128,-1,10
 477 -146 477 -146 466.5 -135 c 128,-1,11
 456 -124 456 -124 432.5 -93 c 128,-1,12
 409 -62 409 -62 320 28 c 1,13,14
 324 40 324 40 332 34 c 0,15,16
 351 22 351 22 356 21 c 0,17,18
 419 -10 419 -10 485 -66 c 1,19,20
 502 78 502 78 502 240 c 0,21,22
 502 272 502 272 501 305 c 1,23,24
 456 302 456 302 367 294 c 0,25,26
 274 286 274 286 212 282 c 0,27,28
 195 281 195 281 187 278 c 1,29,30
 181 268 181 268 168.5 268 c 128,-1,31
 156 268 156 268 147 272 c 0,32,33
 112 288 112 288 89 321 c 0,34,35
 73 344 73 344 73 370 c 0,36,37
 73 379 73 379 75 389 c 1,38,39
 73 402 73 402 79 403 c 0,40,41
 91 405 91 405 88 388 c 1,42,43
 103 354 103 354 142 340 c 1,44,45
 143 342 143 342 156 342 c 0,46,47
 167 342 167 342 186 340 c 0,48,49
 191 340 191 340 199.5 340 c 128,-1,50
 208 340 208 340 219 340 c 0,51,52
 293 340 293 340 500 346 c 1,53,54
 495 480 495 480 478 591 c 0,55,56
 476 596 476 596 462.5 603 c 128,-1,57
 449 610 449 610 446 613.5 c 128,-1,58
 443 617 443 617 421 613.5 c 128,-1,59
 399 610 399 610 390 609 c 128,-1,60
 381 608 381 608 294 598 c 1,61,62
 289 583 289 583 270 583 c 0,63,64
 269 583 269 583 267 583 c 0,65,66
 264 583 264 583 258.5 584.5 c 128,-1,67
 253 586 253 586 238 589 c 0,68,69
 224 592 224 592 222 594 c 0,70,71
 220 597 220 597 208 605 c 0,72,73
 201 610 201 610 195 615 c 0,74,75
 193 616 193 616 189 620 c 0,76,77
 184 624 184 624 175 637 c 0,78,79
 169 645 169 645 160 694 c 1,80,81
 169 698 169 698 176 684.5 c 128,-1,82
 183 671 183 671 189 669 c 0,83,84
 207 654 207 654 216 654 c 0,85,86
 219 654 219 654 222 656 c 1,87,88
 296 656 296 656 635 666 c 1,89,90
 675 671 675 671 704 684 c 0,91,92
 725 693 725 693 747 693 c 0,93,94
 760 693 760 693 774 690 c 0,95,96
 811 682 811 682 834 655 c 1,97,98
 839 645 839 645 839 636 c 0,99,100
 839 624 839 624 830 613 c 1,101,102
 817 604 817 604 806 604 c 0,103,104
 797 604 797 604 790 611 c 1,105,106
 746 624 746 624 695 626 c 0,107,108
 669 627 669 627 643 627 c 0,109,110
 582 625 582 625 534 625 c 0,111,112
 524 625 524 625 517 625 c 0,113,114
 510 624 510 624 522 619 c 0,115,116
 541 611 541 611 544 608 c 0,117,118
 560 601 560 601 566 572 c 0,119,120
 565 568 565 568 557 556.5 c 128,-1,121
 549 545 549 545 552 537 c 0,122,123
 563 435 563 435 566 348 c 1,124,125
 587 349 587 349 663 350.5 c 128,-1,126
 739 352 739 352 796 358 c 0,127,128
 808 356 808 356 820 362 c 2,129,-1
 836 370 l 1,130,131
 846 373 846 373 855 373 c 0,132,133
 870 373 870 373 886 366 c 0,134,135
 914 354 914 354 931 337 c 1,136,137
 937 326 937 326 937 316 c 0,138,139
 937 305 937 305 930 295 c 1,140,141
 917 284 917 284 907 284 c 0,142,143
 899 284 899 284 892 290 c 0,144,145
 885 294 885 294 871.5 295.5 c 128,-1,146
 858 297 858 297 851 300 c 0,147,148
 799 308 799 308 714 308 c 0,149,150
 635 307 635 307 616 307 c 2,0,-1
EndSplineSet
Validated: 3073
EndChar

StartChar: u1AFF0
Encoding: 351 110576 80
Width: 1000
VStem: 662 9<745.967 762.556>
LayerCount: 2
Fore
SplineSet
295 -131 m 1,0,1
 368 -28 368 -28 395 17 c 0,2,3
 552 284 552 284 639 658 c 1,4,-1
 662 763 l 1,5,-1
 671 761 l 1,6,7
 626 279 626 279 405 -83 c 1,8,-1
 368 -141 l 1,9,-1
 375 -161 l 1,10,-1
 355 -160 l 1,11,-1
 295 -131 l 1,0,1
EndSplineSet
Validated: 19457
EndChar

StartChar: u1AFF1
Encoding: 352 110577 81
Width: 1000
VStem: 662 9<-161.778 -144.519>
LayerCount: 2
Fore
SplineSet
367 742 m 1,0,1
 598 398 598 398 659 -54 c 1,2,-1
 671 -161 l 1,3,-1
 662 -162 l 1,4,5
 622 27 622 27 596 108 c 0,6,7
 498 431 498 431 352 650 c 1,8,-1
 299 726 l 1,9,-1
 355 760 l 1,10,-1
 375 762 l 1,11,-1
 367 742 l 1,0,1
EndSplineSet
Validated: 19457
EndChar

StartChar: u1AFF2
Encoding: 353 110578 82
Width: 1000
HStem: 228 207<484.242 606.093>
VStem: 351 295
LayerCount: 2
Fore
SplineSet
540 227 m 0,0,1
 538 227 538 227 536 228 c 0,2,3
 518 228 518 228 468 202 c 0,4,5
 428 181 428 181 381 141 c 1,6,-1
 359 120 l 1,7,-1
 351 126 l 1,8,-1
 356 135 l 1,9,10
 356 143 356 143 358 159 c 0,11,12
 362 190 362 190 372 223 c 0,13,14
 410 344 410 344 457 391 c 0,15,16
 502 435 502 435 545 435 c 0,17,18
 585 435 585 435 616 405 c 0,19,20
 646 376 646 376 646 326 c 0,21,22
 646 286 646 286 618 259 c 0,23,24
 581 224 581 224 558 224 c 0,25,26
 554 224 554 224 540 227 c 0,0,1
EndSplineSet
Validated: 3073
EndChar

StartChar: u1AFF3
Encoding: 354 110579 83
Width: 1000
LayerCount: 2
Fore
SplineSet
304 300 m 0,0,1
 304 320 304 320 330 342 c 0,2,3
 427 424 427 424 523 555 c 0,4,5
 592 650 592 650 664 776 c 1,6,-1
 674 772 l 1,7,8
 626 633 626 633 550 515 c 0,9,10
 483 412 483 412 402 323 c 1,11,-1
 381 300 l 1,12,13
 481 196 481 196 552 85 c 0,14,15
 624 -28 624 -28 674 -171 c 1,16,-1
 664 -175 l 1,17,18
 592 -50 592 -50 513 55 c 0,19,20
 409 193 409 193 337 252 c 0,21,22
 304 279 304 279 304 300 c 0,0,1
EndSplineSet
Validated: 3073
EndChar

StartChar: u1AFF5
Encoding: 355 110581 84
Width: 1000
VStem: 467 66<161.4 432.462> 476 47<-109.914 240.6> 495 10<-178 -119.406 721.472 778>
LayerCount: 2
Fore
SplineSet
467 300 m 17,0,1
 469 363 469 363 479 545 c 0,2,3
 486 678 486 678 495 778 c 1,4,-1
 505 778 l 1,5,6
 514 656 514 656 520 546 c 24,7,8
 520 546 520 546 533 300 c 1,9,-1
 523 102 l 24,10,11
 517 -18 517 -18 505 -178 c 1,12,-1
 495 -178 l 1,13,14
 484 -56 484 -56 476 101 c 24,15,16
 467 286 467 286 467 300 c 17,0,1
EndSplineSet
Validated: 19457
EndChar

StartChar: u1AFF6
Encoding: 356 110582 85
Width: 1000
HStem: 154 291<333 526>
VStem: 424 210<197.282 320.019>
LayerCount: 2
Fore
SplineSet
526 154 m 0,0,1
 484 154 484 154 454 187 c 128,-1,2
 424 220 424 220 424 245 c 0,3,4
 424 250 424 250 425 252 c 0,5,6
 427 256 427 256 426 263 c 0,7,8
 426 293 426 293 389 353 c 0,9,10
 371 382 371 382 340 419 c 1,11,-1
 320 441 l 1,12,-1
 326 449 l 1,13,-1
 333 445 l 1,14,15
 499 444 499 444 579 366 c 0,16,17
 603 342 603 342 619 307 c 0,18,19
 634 275 634 275 634 255 c 0,20,21
 634 206 634 206 593 175 c 0,22,23
 565 154 565 154 526 154 c 0,0,1
EndSplineSet
Validated: 3073
EndChar

StartChar: u1AFF7
Encoding: 357 110583 86
Width: 1000
HStem: -163 66<454.821 545.502> 25 68<457.487 547.229>
VStem: 374 64<-80.6486 188.926> 383 47<140.902 561.098> 392 19<456.235 711.9> 402 9<645.1 762> 560 67<-80.0471 3.52234>
LayerCount: 2
Fore
SplineSet
402 762 m 1,0,-1
 411 762 l 1,1,-1
 411 595 l 25,2,3
 414 512 414 512 430 350 c 24,4,5
 432 327 432 327 436 74 c 1,6,7
 465 93 465 93 496 93 c 0,8,9
 555 93 555 93 595 49 c 0,10,11
 627 14 627 14 627 -38 c 0,12,13
 627 -88 627 -88 590 -125 c 0,14,15
 552 -163 552 -163 504 -163 c 0,16,17
 449 -163 449 -163 412 -128 c 0,18,19
 374 -93 374 -93 374 -41 c 0,20,21
 374 64 374 64 383 350 c 24,22,23
 388 512 388 512 392 595 c 26,24,-1
 402 762 l 1,0,-1
462 13 m 0,25,26
 438 -6 438 -6 438 -36 c 0,27,28
 438 -58 438 -58 457 -78 c 0,29,30
 475 -97 475 -97 496 -97 c 0,31,32
 532 -97 532 -97 546 -76 c 128,-1,33
 560 -55 560 -55 560 -36 c 0,34,35
 560 -18 560 -18 553 -5 c 0,36,37
 536 25 536 25 504 25 c 0,38,39
 478 25 478 25 462 13 c 0,25,26
EndSplineSet
Validated: 19457
EndChar

StartChar: u1AFF8
Encoding: 358 110584 87
Width: 1000
HStem: -165 67<427.098 519.422> 24 68<429.625 515.497>
VStem: 347 66<-82.696 3.4978> 535 65<-82.0779 7.9812>
LayerCount: 2
Fore
SplineSet
623 774 m 1,0,-1
 632 770 l 1,1,2
 597 686 597 686 454 220 c 24,3,4
 450 206 450 206 429 82 c 1,5,6
 449 92 449 92 471 92 c 0,7,8
 500 92 500 92 532 76 c 0,9,10
 600 41 600 41 600 -37 c 128,-1,11
 600 -115 600 -115 532 -149 c 0,12,13
 501 -165 501 -165 471 -165 c 0,14,15
 435 -165 435 -165 398 -139 c 0,16,17
 347 -103 347 -103 347 -34 c 0,18,19
 347 -24 347 -24 357 30 c 0,20,21
 429 421 429 421 582 703 c 1,22,-1
 623 774 l 1,0,-1
413 -37 m 0,23,24
 413 -74 413 -74 445 -90 c 0,25,26
 461 -98 461 -98 475 -98 c 0,27,28
 498 -98 498 -98 516 -80 c 0,29,30
 535 -60 535 -60 535 -38 c 0,31,32
 535 -12 535 -12 516 7 c 0,33,34
 499 24 499 24 473 24 c 0,35,36
 445 24 445 24 427 4 c 0,37,38
 413 -12 413 -12 413 -37 c 0,23,24
EndSplineSet
Validated: 3073
EndChar

StartChar: u1AFF9
Encoding: 359 110585 88
Width: 1000
HStem: 513 66<425.328 517.638> 702 66<427.565 517.32>
VStem: 344 66<595.093 685.617> 659 10<-162 -124.573>
LayerCount: 2
Fore
SplineSet
592 681 m 0,0,1
 612 628 612 628 641 363 c 0,2,3
 666 136 666 136 669 -68 c 1,4,-1
 669 -162 l 1,5,-1
 659 -162 l 1,6,7
 648 -77 648 -77 644 -36 c 0,8,9
 603 301 603 301 563 509 c 2,10,-1
 555 546 l 1,11,12
 520 513 520 513 476 513 c 0,13,14
 455 513 455 513 431 521 c 0,15,16
 371 541 371 541 351 601 c 0,17,18
 344 622 344 622 344 642 c 0,19,20
 344 680 344 680 372 720 c 0,21,22
 406 768 406 768 464 768 c 0,23,24
 559 768 559 768 592 681 c 0,0,1
525 669 m 0,25,26
 509 702 509 702 474 702 c 0,27,28
 445 702 445 702 427 684 c 0,29,30
 410 667 410 667 410 638 c 0,31,32
 410 615 410 615 428 598 c 0,33,34
 448 579 448 579 467 579 c 0,35,36
 503 579 503 579 518 600 c 0,37,38
 532 620 532 620 532 631 c 0,39,40
 532 655 532 655 525 669 c 0,25,26
EndSplineSet
Validated: 3073
EndChar

StartChar: u1AFFA
Encoding: 360 110586 89
Width: 1000
HStem: 383 67<500.629 586.911>
VStem: 594 67<295.71 369.625>
LayerCount: 2
Fore
SplineSet
549.5 220 m 128,-1,1
 546 221 546 221 542 221 c 128,-1,2
 538 221 538 221 517 214 c 0,3,4
 448 191 448 191 365 120 c 1,5,-1
 339 97 l 1,6,-1
 331 103 l 1,7,-1
 337 113 l 1,8,9
 342 182 342 182 378 271.5 c 128,-1,10
 414 361 414 361 454 400 c 0,11,12
 506 445 506 445 554 450 c 0,13,14
 595 450 595 450 628 415 c 128,-1,15
 661 380 661 380 661 336 c 0,16,17
 661 267 661 267 599 234 c 0,18,19
 598 233 598 233 580 226 c 24,20,21
 563 219 563 219 558 219 c 128,-1,0
 553 219 553 219 549.5 220 c 128,-1,1
518 372 m 0,22,23
 464 347 464 347 403 219 c 1,24,-1
 387 183 l 1,25,26
 436 243 436 243 516 275 c 0,27,28
 538 284 538 284 546 286 c 0,29,30
 594 295 594 295 594 333 c 0,31,32
 594 346 594 346 587 362 c 0,33,34
 576 383 576 383 552 383 c 0,35,36
 543 383 543 383 518 372 c 0,22,23
EndSplineSet
Validated: 3073
EndChar

StartChar: u1AFFB
Encoding: 361 110587 90
Width: 1000
HStem: 162 67<356.423 448.228> 350 67<359.74 448.865>
VStem: 276 66<242.815 335.311>
LayerCount: 2
Fore
SplineSet
655 775 m 1,0,-1
 665 772 l 1,1,2
 643 576 643 576 565 378 c 1,3,-1
 532 300 l 1,4,5
 628 91 628 91 659 -119 c 1,6,-1
 665 -172 l 1,7,-1
 655 -174 l 1,8,9
 655 -174 655 -174 614 -54 c 24,10,11
 568 81 568 81 511 198 c 1,12,-1
 504 212 l 1,13,14
 465 162 465 162 407 162 c 0,15,16
 394 162 394 162 383 164 c 0,17,18
 320 174 320 174 291 231 c 0,19,20
 276 261 276 261 276 290 c 128,-1,21
 276 319 276 319 291 348 c 0,22,23
 314 393 314 393 363 409 c 0,24,25
 387 417 387 417 407 417 c 0,26,27
 444 417 444 417 479 392 c 0,28,29
 490 384 490 384 497 375 c 1,30,31
 559 495 559 495 614 654 c 24,32,33
 614 654 614 654 655 775 c 1,0,-1
448 331.5 m 128,-1,35
 432 350 432 350 405 350 c 128,-1,36
 378 350 378 350 362 335 c 0,37,38
 342 316 342 316 342 286 c 0,39,40
 342 264 342 264 360 246 c 0,41,42
 377 229 377 229 401 229 c 0,43,44
 429 229 429 229 446 245 c 0,45,46
 464 263 464 263 464 289 c 0,47,34
 464 313 464 313 448 331.5 c 128,-1,35
EndSplineSet
Validated: 3073
EndChar

StartChar: u1AFFD
Encoding: 362 110589 91
Width: 1000
HStem: 173 67<506.398 596.864> 362 64<504.641 593.554>
VStem: 424 65<255.594 346.929 408 530.859> 441 9<-178 -144.172 744.391 778> 611 67<253.95 347.292>
LayerCount: 2
Fore
SplineSet
593 257 m 0,0,1
 611 275 611 275 611 296 c 0,2,3
 611 331 611 331 591 347 c 0,4,5
 572 362 572 362 547 362 c 0,6,7
 525 362 525 362 507 343 c 0,8,9
 489 325 489 325 489 295 c 0,10,11
 489 274 489 274 509 255 c 0,12,13
 525 240 525 240 553 240 c 0,14,15
 576 240 576 240 593 257 c 0,0,1
483 408 m 1,16,17
 511 426 511 426 546 426 c 0,18,19
 628 426 628 426 662 359 c 0,20,21
 678 327 678 327 678 298 c 0,22,23
 678 261 678 261 652 225 c 0,24,25
 615 173 615 173 550 173 c 0,26,27
 515 173 515 173 483 193 c 1,28,29
 475 71 475 71 473 55 c 0,30,31
 464 -68 464 -68 450 -179 c 1,32,-1
 441 -178 l 1,33,34
 431 -42 431 -42 431 83 c 0,35,36
 429 191 429 191 427 228.5 c 128,-1,37
 425 266 425 266 424.5 270.5 c 128,-1,38
 424 275 424 275 424 281 c 0,39,40
 424 289 424 289 424 292 c 0,41,-1
 424 300 l 1,42,43
 429 440 429 440 432 544 c 0,44,45
 435 683 435 683 441 778 c 1,46,-1
 450 779 l 1,47,48
 468 639 468 639 475 524 c 0,49,50
 476 516 476 516 483 408 c 1,16,17
EndSplineSet
Validated: 3073
EndChar

StartChar: u1AFFE
Encoding: 363 110590 92
Width: 1000
HStem: 139 67<494.284 575.497>
VStem: 418 68<213.777 307.24> 581 67<220.868 318.537>
LayerCount: 2
Fore
SplineSet
419.5 250.5 m 128,-1,1
 421 254 421 254 421 258 c 128,-1,2
 421 262 421 262 414 283 c 0,3,4
 389 355 389 355 319 435 c 1,5,-1
 296 461 l 1,6,-1
 302 469 l 1,7,-1
 311 464 l 1,8,9
 532 462 532 462 613 341 c 0,10,11
 623 326 623 326 633 305 c 0,12,13
 648 273 648 273 648 251 c 0,14,15
 648 204 648 204 614 172 c 0,16,17
 579 139 579 139 534 139 c 0,18,19
 506 139 506 139 481 151 c 0,20,21
 464 160 464 160 442 187 c 0,22,23
 418 217 418 217 418 245 c 0,24,0
 418 247 418 247 419.5 250.5 c 128,-1,1
342 444 m 1,25,26
 452 370 452 370 485 256 c 0,27,28
 486 254 486 254 486 250 c 0,29,30
 495 206 495 206 535 206 c 0,31,32
 564 206 564 206 577 230 c 0,33,34
 581 238 581 238 581 249 c 0,35,36
 581 259 581 259 578 272 c 0,37,38
 566 312 566 312 552 329 c 0,39,40
 528 359 528 359 507 373 c 0,41,42
 448 411 448 411 342 444 c 1,25,26
EndSplineSet
Validated: 3073
EndChar

StartChar: u110C2
Encoding: 210 69826 93
Width: 0
Flags: W
HStem: -254 70<-366.134 -156.091> -21 20G<-293.5 -249.696>
VStem: -442 70<-171.499 -110.761>
LayerCount: 2
Fore
SplineSet
-261 -1 m 1,0,-1
 -222 -70 l 1,1,2
 -229 -70 -229 -70 -236 -70 c 0,3,4
 -294 -70 -294 -70 -335 -98 c 0,5,6
 -372 -124 -372 -124 -372 -149 c 0,7,8
 -372 -165 -372 -165 -345 -174 c 0,9,10
 -315 -184 -315 -184 -273 -184 c 0,11,12
 -225 -184 -225 -184 -166 -168 c 1,13,-1
 -130 -231 l 1,14,15
 -207 -254 -207 -254 -273 -254 c 0,16,17
 -330 -254 -330 -254 -371 -238 c 0,18,19
 -442 -210 -442 -210 -442 -152 c 0,20,21
 -442 -87 -442 -87 -375 -41 c 0,22,23
 -326 -7 -326 -7 -261 -1 c 1,0,-1
EndSplineSet
Validated: 3073
EndChar

StartChar: u11070
Encoding: 204 69744 94
Width: 0
Flags: W
HStem: 433 112<0 112>
VStem: 0 112<433 545>
LayerCount: 2
Fore
SplineSet
112 545 m 1,0,-1
 112 433 l 1,1,-1
 0 433 l 1,2,-1
 0 545 l 1,3,-1
 112 545 l 1,0,-1
EndSplineSet
Validated: 19457
EndChar

StartChar: u11071
Encoding: 205 69745 95
Width: 620
Flags: W
LayerCount: 2
Fore
SplineSet
98 714 m 1,0,-1
 178 714 l 1,1,-1
 532.2109375 357.466796875 l 1,2,-1
 178 0.935546875 l 1,3,-1
 178 0 l 1,4,-1
 98 0 l 1,5,-1
 98 714 l 1,0,-1
178 600.4921875 m 1,6,-1
 178 114.443359375 l 1,7,-1
 419.44140625 357.466796875 l 1,8,-1
 178 600.4921875 l 1,6,-1
218.094726562 357.466796875 m 128,-1,10
 218.094726562 378.177490234 218.094726562 378.177490234 232.739379883 392.822143555 c 128,-1,11
 247.384033203 407.466796875 247.384033203 407.466796875 268.094726562 407.466796875 c 128,-1,12
 288.805419922 407.466796875 288.805419922 407.466796875 303.450073242 392.822143555 c 128,-1,13
 318.094726562 378.177490234 318.094726562 378.177490234 318.094726562 357.466796875 c 128,-1,14
 318.094726562 336.756103516 318.094726562 336.756103516 303.450073242 322.111450195 c 128,-1,15
 288.805419922 307.466796875 288.805419922 307.466796875 268.094726562 307.466796875 c 128,-1,16
 247.384033203 307.466796875 247.384033203 307.466796875 232.739379883 322.111450195 c 128,-1,9
 218.094726562 336.756103516 218.094726562 336.756103516 218.094726562 357.466796875 c 128,-1,10
EndSplineSet
Validated: 3073
EndChar

StartChar: u11072
Encoding: 206 69746 96
Width: 793
Flags: W
HStem: 0.798828 80<522.566 727.132> 634 80<98 178 238 442.566>
VStem: 98 80<634 714> 442.566 80<80.7988 634>
LayerCount: 2
Fore
SplineSet
238 714 m 1,0,-1
 522.56640625 714 l 1,1,-1
 522.56640625 80.798828125 l 1,2,-1
 727.131835938 80.798828125 l 1,3,-1
 727.131835938 0.798828125 l 1,4,-1
 442.56640625 0.798828125 l 1,5,-1
 442.56640625 634 l 1,6,-1
 238 634 l 1,7,-1
 238 714 l 1,0,-1
98 634 m 1,8,-1
 98 714 l 1,9,-1
 178 714 l 1,10,-1
 178 634 l 1,11,-1
 98 634 l 1,8,-1
EndSplineSet
Validated: 19457
EndChar

StartChar: u11073
Encoding: 207 69747 97
Width: 0
Flags: W
HStem: 746.656 80<-651 -571 -511 -371.489>
VStem: -651 80<746.656 826.656>
LayerCount: 2
Fore
SplineSet
-511 826.65625 m 1,0,-1
 -371.489257812 826.65625 l 1,1,-1
 -331.15625 746.65625 l 1,2,-1
 -511 746.65625 l 1,3,-1
 -511 826.65625 l 1,0,-1
-651 746.65625 m 1,4,-1
 -651 826.65625 l 1,5,-1
 -571 826.65625 l 1,6,-1
 -571 746.65625 l 1,7,-1
 -651 746.65625 l 1,4,-1
EndSplineSet
Validated: 19457
EndChar

StartChar: u11074
Encoding: 208 69748 98
Width: 0
Flags: W
HStem: 746.656 80<-651 -571 -511 -371.489 -139.511 0>
VStem: -651 80<746.656 826.656>
LayerCount: 2
Fore
SplineSet
-511 826.65625 m 1,0,-1
 -371.489257812 826.65625 l 1,1,-1
 -331.15625 746.65625 l 1,2,-1
 -511 746.65625 l 1,3,-1
 -511 826.65625 l 1,0,-1
-651 746.65625 m 1,4,-1
 -651 826.65625 l 1,5,-1
 -571 826.65625 l 1,6,-1
 -571 746.65625 l 1,7,-1
 -651 746.65625 l 1,4,-1
0 826.65625 m 1,8,-1
 0 746.65625 l 1,9,-1
 -179.84375 746.65625 l 1,10,-1
 -139.510742188 826.65625 l 1,11,-1
 0 826.65625 l 1,8,-1
EndSplineSet
Validated: 19457
EndChar

StartChar: u11075
Encoding: 209 69749 99
Width: 1004
Flags: W
HStem: -12 85<337.98 501.746> 0 21G<826 906> 175 80<49 207.897> 263 80<635 826>
VStem: 545 90<118.317 263 343 714> 826 80<0 263>
LayerCount: 2
Fore
SplineSet
421 -12 m 0,0,1
 320 -12 320 -12 268 32.5 c 128,-1,2
 216 77 216 77 205 175 c 1,3,-1
 49 175 l 1,4,-1
 49 255 l 1,5,-1
 291 255 l 1,6,-1
 291 251 l 2,7,8
 291 192 291 192 300.5 152.5 c 128,-1,9
 310 113 310 113 338 93 c 128,-1,10
 366 73 366 73 421 73 c 0,11,12
 475 73 475 73 501.5 93 c 128,-1,13
 528 113 528 113 536.5 153 c 128,-1,14
 545 193 545 193 545 251 c 2,15,-1
 545 714 l 1,16,-1
 635 714 l 1,17,-1
 635 343 l 1,18,-1
 906 343 l 1,19,-1
 906 0 l 1,20,-1
 826 0 l 1,21,-1
 826 263 l 1,22,-1
 635 263 l 1,23,-1
 635 254 l 2,24,25
 635 166 635 166 616 107 c 128,-1,26
 597 48 597 48 550.5 18 c 128,-1,27
 504 -12 504 -12 421 -12 c 0,0,1
EndSplineSet
Validated: 19457
EndChar

StartChar: BiggerPlus
Encoding: 570 -1 101
Width: 0
Flags: W
HStem: 749 53<-429 -330 -276 -177>
VStem: -330 53<649 749 802 902>
LayerCount: 2
Fore
SplineSet
-330 649 m 1,0,-1
 -330 749 l 1,1,-1
 -429 749 l 1,2,-1
 -429 802 l 1,3,-1
 -329 802 l 1,4,-1
 -329 902 l 1,5,-1
 -276 902 l 1,6,-1
 -276 802 l 1,7,-1
 -177 802 l 1,8,-1
 -177 749 l 1,9,-1
 -277 749 l 1,10,-1
 -277 649 l 1,11,-1
 -330 649 l 1,0,-1
EndSplineSet
Validated: 19457
EndChar

StartChar: MiaoToneUml
Encoding: 571 -1 106
Width: 0
Flags: W
HStem: 749 53<-122.5 -17.5 35.5 140.5>
VStem: -17.5 53<533 749>
LayerCount: 2
Fore
SplineSet
-17.5 533 m 1,0,-1
 -17.5 749 l 1,1,-1
 -122.5 749 l 1,2,-1
 -122.5 802 l 1,3,-1
 140.5 802 l 5,4,-1
 140.5 749 l 5,5,-1
 35.5 749 l 1,6,-1
 35.5 533 l 1,7,-1
 -17.5 533 l 1,0,-1
EndSplineSet
Validated: 19457
EndChar

StartChar: uniE006
Encoding: 106 57350 107
Width: 1014
VWidth: 800
Flags: W
HStem: 240.2 47.1992<94.5996 462.6 515 817.4>
VStem: 42.2002 52.3994<166.6 240.2 287.399 361> 462.6 52.4004<86.5996 240.2 287.399 441>
LayerCount: 2
Fore
SplineSet
462.599609375 86.599609375 m 1,0,-1
 462.599609375 240.200195312 l 1,1,-1
 94.599609375 240.200195312 l 1,2,-1
 94.599609375 166.599609375 l 1,3,-1
 42.2001953125 166.599609375 l 1,4,-1
 42.2001953125 361 l 1,5,-1
 94.599609375 361 l 1,6,-1
 94.599609375 287.399414062 l 1,7,-1
 462.599609375 287.399414062 l 1,8,-1
 462.599609375 441 l 1,9,-1
 515 441 l 1,10,-1
 515 287.399414062 l 1,11,-1
 817.400390625 287.399414062 l 1,12,13
 774 339 774 339 724.599609375 441 c 1,14,-1
 765.599609375 441 l 1,15,16
 865 324 865 324 976.799804688 268.200195312 c 1,17,-1
 976.799804688 259.399414062 l 1,18,19
 865 205 865 205 765.599609375 86.599609375 c 1,20,-1
 724.599609375 86.599609375 l 1,21,22
 774 189 774 189 817.400390625 240.200195312 c 1,23,-1
 515 240.200195312 l 1,24,-1
 515 86.599609375 l 1,25,-1
 462.599609375 86.599609375 l 1,0,-1
EndSplineSet
Validated: 19457
EndChar

StartChar: uniE007
Encoding: 107 57351 108
Width: 952
Flags: W
HStem: 14.4004 47.2002<490.9 758.1> 488.801 47.1992<78.9004 443.7 490.9 689.3>
VStem: 26.5 52.4004<431.2 488.801 536 593.601> 443.7 47.2002<61.6006 488.801 536 768>
LayerCount: 2
Fore
SplineSet
26.5 431.200195312 m 5,0,-1
 26.5 593.600585938 l 5,1,-1
 78.900390625 593.600585938 l 5,2,-1
 78.900390625 536 l 5,3,-1
 443.700195312 536 l 5,4,-1
 443.700195312 768 l 5,5,-1
 490.900390625 768 l 5,6,-1
 490.900390625 536 l 5,7,-1
 689.299804688 536 l 5,8,-1
 689.299804688 488.80078125 l 5,9,-1
 490.900390625 488.80078125 l 5,10,-1
 490.900390625 61.6005859375 l 5,11,-1
 758.099609375 61.6005859375 l 5,12,13
 715 112.400390625 715 112.400390625 665.299804688 215.200195312 c 5,14,-1
 711.299804688 215.200195312 l 5,15,16
 810 98.400390625 810 98.400390625 922.5 42.400390625 c 5,17,-1
 922.5 33.6005859375 l 5,18,19
 810 -20.599609375 810 -20.599609375 711.299804688 -139.19921875 c 5,20,-1
 665.299804688 -139.19921875 l 5,21,22
 715 -36.599609375 715 -36.599609375 758.099609375 14.400390625 c 5,23,-1
 443.700195312 14.400390625 l 5,24,-1
 443.700195312 488.80078125 l 5,25,-1
 78.900390625 488.80078125 l 5,26,-1
 78.900390625 431.200195312 l 5,27,-1
 26.5 431.200195312 l 5,0,-1
EndSplineSet
Validated: 19457
EndChar

StartChar: u1DF00
Encoding: 370 122624 109
Width: 902
Flags: W
HStem: -240 47<604 670> 0 42<27 108.5 229.5 306 522.398 595> 482 64<566.635 678.084> 489 47<31 122 216 393.826> 724 46<239.337 341.147 435.425 504.586 598.18 665.244>
VStem: 122 94<55.7477 489 536 686.86> 357 82<659.418 708.741> 416 94<54.6495 429.644 455 475.071> 710 94<-141.57 445.759>
LayerCount: 2
Fore
SplineSet
624 770 m 0,0,1
 764 770 764 770 764 700 c 0,2,3
 764 673 764 673 741 658.5 c 128,-1,4
 718 644 718 644 682 644 c 1,5,6
 682 674 682 674 668 699 c 128,-1,7
 654 724 654 724 616 724 c 0,8,9
 607 724 607 724 598 722 c 1,10,11
 603 712 603 712 603 700 c 0,12,13
 603 673 603 673 580 658.5 c 128,-1,14
 557 644 557 644 521 644 c 1,15,16
 521 674 521 674 507 699 c 128,-1,17
 493 724 493 724 455 724 c 0,18,19
 444 724 444 724 435 722 c 1,20,21
 439 712 439 712 439 700 c 0,22,23
 439 673 439 673 416 658.5 c 128,-1,24
 393 644 393 644 357 644 c 1,25,26
 357 674 357 674 343 699 c 128,-1,27
 329 724 329 724 288.5 724 c 128,-1,28
 248 724 248 724 232 691 c 128,-1,29
 216 658 216 658 216 595 c 2,30,-1
 216 536 l 1,31,-1
 493 536 l 1,32,-1
 506 455 l 1,33,-1
 511 455 l 1,34,35
 539 511 539 511 574 528.5 c 128,-1,36
 609 546 609 546 652 546 c 0,37,38
 723 546 723 546 763.5 499.5 c 128,-1,39
 804 453 804 453 804 350 c 2,40,-1
 804 -8 l 2,41,42
 804 -176.05952381 804 -176.05952381 715 -219.5 c 0,43,44
 673 -240 673 -240 619 -240 c 2,45,-1
 604 -240 l 1,46,-1
 604 -193 l 1,47,-1
 610 -193 l 2,48,49
 642 -193 642 -193 664.5 -176.5 c 0,50,51
 710 -143.133333333 710 -143.133333333 710 -9 c 2,52,-1
 710 345 l 2,53,54
 710 410 710 410 689 446 c 128,-1,55
 668 482 668 482 622 482 c 128,-1,56
 576 482 576 482 553 459.5 c 0,57,58
 510 417.434782609 510 417.434782609 510 320 c 2,59,-1
 510 109 l 2,60,61
 510 65 510 65 534 53.5 c 128,-1,62
 558 42 558 42 591 42 c 2,63,-1
 595 42 l 1,64,-1
 595 0 l 1,65,-1
 416 0 l 1,66,-1
 416 421 l 2,67,68
 416 462 416 462 394.5 475.5 c 128,-1,69
 373 489 373 489 344 489 c 2,70,-1
 216 489 l 1,71,-1
 216 114 l 2,72,73
 216 67 216 67 240 54.5 c 128,-1,74
 264 42 264 42 298 42 c 2,75,-1
 306 42 l 1,76,-1
 306 0 l 1,77,-1
 27 0 l 1,78,-1
 27 42 l 1,79,-1
 40 42 l 2,80,81
 74 42 74 42 98 54.5 c 128,-1,82
 122 67 122 67 122 114 c 2,83,-1
 122 489 l 1,84,-1
 31 489 l 1,85,-1
 31 536 l 1,86,-1
 122 536 l 1,87,-1
 122 586 l 2,88,89
 122 675 122 675 169.5 722.5 c 128,-1,90
 217 770 217 770 292.5 770 c 128,-1,91
 368 770 368 770 400 755 c 1,92,93
 425 770 425 770 477.5 770 c 128,-1,94
 530 770 530 770 563 756 c 1,95,96
 587 770 587 770 624 770 c 0,0,1
EndSplineSet
Validated: 19457
EndChar

StartChar: u1DF01
Encoding: 371 122625 110
Width: 614
Flags: W
HStem: -240 50<264.696 413.007> 0 64<276.948 416.858> 482 64<274.798 415.608> 494 42<27 103.5>
VStem: 117 94<-125.967 100 131.624 411.223> 444 84<-158.196 -84.1117> 471 97<128.635 413.885>
LayerCount: 2
Fore
SplineSet
207 100 m 1,0,1
 211 52 211 52 211 10 c 2,2,-1
 211 -18 l 2,3,4
 211 -102 211 -102 242.5 -146 c 128,-1,5
 274 -190 274 -190 335.5 -190 c 128,-1,6
 397 -190 397 -190 420.5 -161 c 128,-1,7
 444 -132 444 -132 444 -64 c 1,8,9
 487 -64 487 -64 507.5 -83.5 c 128,-1,10
 528 -103 528 -103 528 -132 c 128,-1,11
 528 -161 528 -161 509.5 -186 c 0,12,13
 469.54 -240 469.54 -240 327 -240 c 0,14,15
 220 -240 220 -240 168.5 -178.5 c 128,-1,16
 117 -117 117 -117 117 9 c 2,17,-1
 117 422 l 2,18,19
 117 469 117 469 93 481.5 c 128,-1,20
 69 494 69 494 35 494 c 2,21,-1
 27 494 l 1,22,-1
 27 536 l 1,23,-1
 187 536 l 1,24,-1
 205 458 l 1,25,-1
 211 458 l 1,26,27
 260.641025641 546 260.641025641 546 361.820512821 546 c 128,-1,28
 463 546 463 546 515.5 481.5 c 128,-1,29
 568 417 568 417 568 272.5 c 128,-1,30
 568 128 568 128 515.5 64 c 128,-1,31
 463 0 463 0 364 0 c 0,32,33
 305 0 305 0 269 27 c 128,-1,34
 233 54 233 54 211 100 c 1,35,-1
 207 100 l 1,0,1
240 116 m 128,-1,37
 269 64 269 64 341.5 64 c 128,-1,38
 414 64 414 64 442.5 114.5 c 128,-1,39
 471 165 471 165 471 270.5 c 128,-1,40
 471 376 471 376 442.5 429 c 128,-1,41
 414 482 414 482 341.5 482 c 128,-1,42
 269 482 269 482 240 427.5 c 128,-1,43
 211 373 211 373 211 270.5 c 128,-1,36
 211 168 211 168 240 116 c 128,-1,37
EndSplineSet
Validated: 19457
EndChar

StartChar: u1DF02
Encoding: 372 122626 111
Width: 585
Flags: W
HStem: -10 50<229.745 378.609> 267 40<37 93.9491 218.404 291> 492 54<207.628 378.002>
VStem: 108 89<74.0186 140.042> 112 94<319.899 484.065> 449 97<140.639 403.386>
LayerCount: 2
Fore
SplineSet
112 508 m 1,0,1
 186.272727273 546 186.272727273 546 299.136363636 546 c 128,-1,2
 412 546 412 546 479 477 c 128,-1,3
 546 408 546 408 546 267 c 0,4,5
 546 191 546 191 519.5 128.5 c 128,-1,6
 493 66 493 66 437.5 28 c 128,-1,7
 382 -10 382 -10 295 -10 c 0,8,9
 192.866666667 -10 192.866666667 -10 136.5 34.5 c 0,10,11
 108 57 108 57 108 91.5 c 128,-1,12
 108 126 108 126 130.5 140.5 c 128,-1,13
 153 155 153 155 197 155 c 1,14,15
 197 108 197 108 219 74 c 128,-1,16
 241 40 241 40 296 40 c 0,17,18
 378 40 378 40 413.5 97.5 c 128,-1,19
 449 155 449 155 449 265.5 c 128,-1,20
 449 376 449 376 413.5 434 c 128,-1,21
 378 492 378 492 296 492 c 0,22,23
 253.666666667 492 253.666666667 492 206 479 c 1,24,-1
 206 374 l 2,25,26
 206 330 206 330 229 318.5 c 128,-1,27
 252 307 252 307 285 307 c 2,28,-1
 291 307 l 1,29,-1
 291 267 l 1,30,-1
 37 267 l 1,31,-1
 37 307 l 1,32,-1
 43 307 l 2,33,34
 77 307 77 307 94.5 319.5 c 128,-1,35
 112 332 112 332 112 379 c 2,36,-1
 112 508 l 1,0,1
EndSplineSet
Validated: 19457
EndChar

StartChar: u1DF03
Encoding: 373 122627 112
Width: 597
Flags: W
HStem: 0 42<18 79.6442 317 389.343 509.5 586> 494 42<54 116.688 238.378 275> 718 42<509.213 586>
VStem: 402 94<55.9419 199 248 704.375>
LayerCount: 2
Fore
SplineSet
406 262 m 1,0,1
 406 262 406 262 402 374 c 1,2,-1
 402 760 l 1,3,-1
 586 760 l 1,4,-1
 586 718 l 1,5,-1
 578 718 l 2,6,7
 545 718 545 718 520.5 706 c 128,-1,8
 496 694 496 694 496 650 c 2,9,-1
 496 114 l 2,10,11
 496 67 496 67 520 54.5 c 128,-1,12
 544 42 544 42 578 42 c 2,13,-1
 586 42 l 1,14,-1
 586 0 l 1,15,-1
 317 0 l 1,16,-1
 317 42 l 1,17,-1
 320 42 l 2,18,19
 353 42 353 42 377.5 53.5 c 128,-1,20
 402 65 402 65 402 109 c 2,21,-1
 402 199 l 1,22,-1
 328 254 l 1,23,-1
 228 97 l 2,24,25
 186.756756757 32.1891891892 186.756756757 32.1891891892 152.5 15.5 c 0,26,27
 120.684210526 -4.33680868994e-19 120.684210526 -4.33680868994e-19 32 0 c 2,28,-1
 18 0 l 1,29,-1
 18 42 l 1,30,-1
 21 42 l 2,31,32
 55 42 55 42 80.5 63 c 128,-1,33
 106 84 106 84 132 124 c 2,34,-1
 265 322 l 1,35,-1
 195 401 l 2,36,37
 156 445 156 445 122 469.5 c 128,-1,38
 88 494 88 494 54 494 c 1,39,-1
 54 536 l 1,40,-1
 275 536 l 1,41,-1
 275 494 l 1,42,43
 250 494 250 494 238 490.5 c 128,-1,44
 226 487 226 487 226 473.5 c 0,45,46
 226 446.875 226 446.875 281 385 c 1,47,-1
 406 248 l 1,48,-1
 406 262 l 1,0,1
EndSplineSet
Validated: 19457
EndChar

StartChar: u1DF04
Encoding: 374 122628 113
Width: 516
Flags: W
HStem: 0 46<41 126.43 230 416.464> 180 50<77.0199 136 230 336> 314 50<67.0605 130.759> 494 42<46 124.635 242.657 320>
VStem: 6 54<241.711 306.404> 136 94<55.625 180 230 310.562 360 480.936> 446 46<127 160>
LayerCount: 2
Fore
SplineSet
136 259 m 2,0,1
 136 314 136 314 98 314 c 0,2,3
 80 314 80 314 70 302.5 c 128,-1,4
 60 291 60 291 60 273.5 c 128,-1,5
 60 256 60 256 76.5 243 c 128,-1,6
 93 230 93 230 127 230 c 2,7,-1
 136 230 l 1,8,-1
 136 259 l 2,0,1
49.5 349.5 m 128,-1,10
 72 364 72 364 97 364 c 128,-1,11
 122 364 122 364 136 360 c 1,12,-1
 136 408 l 1,13,-1
 136 427 l 2,14,15
 136 471 136 471 114 482.5 c 128,-1,16
 92 494 92 494 59 494 c 2,17,-1
 46 494 l 1,18,-1
 46 536 l 1,19,-1
 320 536 l 1,20,-1
 320 494 l 1,21,-1
 312 494 l 2,22,23
 279 494 279 494 254.5 482.5 c 128,-1,24
 230 471 230 471 230 427 c 2,25,-1
 230 230 l 1,26,-1
 336 230 l 1,27,-1
 336 180 l 1,28,-1
 230 180 l 1,29,-1
 230 46 l 1,30,-1
 365 46 l 2,31,32
 400 46 400 46 417 63 c 128,-1,33
 434 80 434 80 441 127 c 2,34,-1
 446 160 l 1,35,-1
 492 160 l 1,36,-1
 486 0 l 1,37,-1
 41 0 l 1,38,-1
 41 42 l 1,39,-1
 54 42 l 2,40,41
 87 42 87 42 111.5 54 c 128,-1,42
 136 66 136 66 136 110 c 2,43,-1
 136 140 l 1,44,-1
 136 180 l 1,45,-1
 125 180 l 2,46,47
 61 180 61 180 33.5 204.5 c 128,-1,48
 6 229 6 229 6 275 c 0,49,50
 6 294 6 294 16.5 314.5 c 128,-1,9
 27 335 27 335 49.5 349.5 c 128,-1,10
EndSplineSet
Validated: 19457
EndChar

StartChar: u1DF05
Encoding: 375 122629 114
Width: 652
Flags: W
HStem: -280 53<225.672 340.872> -191 48<248.223 418.509> 456 80<202 447> 718 42<13 94.787>
VStem: 108 94<-97.3971 456 536 704.375> 495 97<-59.1478 144.865>
LayerCount: 2
Fore
SplineSet
342 -264 m 1,0,1
 307.333333333 -280 307.333333333 -280 242.166666667 -280 c 128,-1,2
 177 -280 177 -280 142.5 -245.5 c 128,-1,3
 108 -211 108 -211 108 -125 c 2,4,-1
 108 14 l 1,5,-1
 108 305 l 1,6,-1
 108 650 l 2,7,8
 108 694 108 694 83.5 706 c 128,-1,9
 59 718 59 718 26 718 c 2,10,-1
 13 718 l 1,11,-1
 13 760 l 1,12,-1
 202 760 l 1,13,-1
 202 536 l 1,14,-1
 566 536 l 1,15,-1
 566 487 l 1,16,-1
 350 276 l 1,17,18
 500.9913975 267.246875507 500.9913975 267.246875507 560 181.5 c 0,19,20
 592 135 592 135 592 52.5 c 128,-1,21
 592 -30 592 -30 556 -84.5 c 128,-1,22
 520 -139 520 -139 462 -165 c 128,-1,23
 404 -191 404 -191 332.5 -191 c 0,24,25
 254.5 -191 254.5 -191 207 -172 c 1,26,27
 212 -191 212 -191 223 -203 c 0,28,29
 244 -227 244 -227 274.333333333 -227 c 128,-1,30
 304.666666667 -227 304.666666667 -227 342 -220 c 1,31,-1
 342 -264 l 1,0,1
202 14 m 1,32,-1
 202 -29 l 2,33,34
 202 -56 202 -56 215 -82.5 c 128,-1,35
 228 -109 228 -109 255 -126 c 128,-1,36
 282 -143 282 -143 331 -143 c 128,-1,37
 380 -143 380 -143 416 -123.5 c 0,38,39
 495 -80.7083333333 495 -80.7083333333 495 49 c 0,40,41
 495 223 495 223 295 223 c 2,42,-1
 272 223 l 1,43,-1
 272 282 l 1,44,-1
 447 456 l 1,45,-1
 202 456 l 1,46,-1
 202 310 l 1,47,-1
 202 14 l 1,32,-1
EndSplineSet
EndChar

StartChar: u1DF06
Encoding: 376 122630 115
Width: 565
Flags: W
HStem: 0 42<1 47.5278 148.524 209 322 377.91 515.957 562> 465 50<175.504 205 331 435> 599 50<166.094 229.161> 729 47<426.526 528>
VStem: 105 54<528.892 587.139>
LayerCount: 2
Fore
SplineSet
235 548 m 0,0,1
 232.782608696 599 232.782608696 599 197 599 c 0,2,3
 179 599 179 599 169 587.5 c 128,-1,4
 159 576 159 576 159 558.5 c 128,-1,5
 159 541 159 541 175 528.5 c 128,-1,6
 191 516 191 516 223 515 c 1,7,-1
 232 540 l 2,8,9
 233 544 233 544 235 548 c 0,0,1
205 466 m 1,10,11
 103.092157732 472.239255649 103.092157732 472.239255649 105 560 c 0,12,13
 105 579 105 579 115.5 599.5 c 128,-1,14
 126 620 126 620 148.5 634.5 c 128,-1,15
 171 649 171 649 205 649 c 128,-1,16
 239 649 239 649 261 614 c 1,17,18
 272 639 272 639 289 672 c 128,-1,19
 306 705 306 705 335.5 730.5 c 128,-1,20
 365 756 365 756 409 766 c 128,-1,21
 453 776 453 776 519 776 c 2,22,-1
 528 776 l 1,23,-1
 528 729 l 1,24,25
 404.550561798 729 404.550561798 729 346 632.5 c 0,26,27
 319 588 319 588 303 532 c 1,28,-1
 310 515 l 1,29,-1
 435 515 l 1,30,-1
 435 465 l 1,31,-1
 331 465 l 1,32,-1
 488 95 l 2,33,34
 501 64 501 64 515.5 53 c 128,-1,35
 530 42 530 42 559 42 c 2,36,-1
 562 42 l 1,37,-1
 562 0 l 1,38,-1
 322 0 l 1,39,-1
 322 42 l 1,40,-1
 325 42 l 2,41,42
 385 42 385 42 385 90 c 0,43,44
 385 107 385 107 377 127 c 2,45,-1
 304 305 l 2,46,47
 288.696969697 340.196969697 288.696969697 340.196969697 273.848484848 386.598484848 c 128,-1,48
 259 433 259 433 256 450 c 1,49,50
 249 421 249 421 237.5 390 c 128,-1,51
 226 359 226 359 216 329 c 2,52,-1
 149 134 l 2,53,54
 140 110 140 110 140 91 c 0,55,56
 140 42 140 42 206 42 c 2,57,-1
 209 42 l 1,58,-1
 209 0 l 1,59,-1
 1 0 l 1,60,-1
 1 42 l 1,61,-1
 4 42 l 2,62,63
 33 42 33 42 48 57 c 128,-1,64
 63 72 63 72 80 120 c 2,65,-1
 205 466 l 1,10,11
EndSplineSet
Validated: 19489
EndChar

StartChar: u1DF07
Encoding: 377 122631 116
Width: 635
Flags: W
HStem: -240 47<172.125 238> 0 42<278 350.343 470.5 547> 482 64<169.266 300.735> 494 42<470.213 542>
VStem: 38 94<-141.185 441.027> 363 94<55.9419 424.054 455 480.375>
LayerCount: 2
Fore
SplineSet
238 -240 m 1,0,-1
 223 -240 l 2,1,2
 169 -240 169 -240 127.5 -219.5 c 0,3,4
 38 -175.289156627 38 -175.289156627 38 -8 c 2,5,-1
 38 350 l 2,6,7
 38 453 38 453 82.5 499.5 c 128,-1,8
 127 546 127 546 206 546 c 0,9,10
 254 546 254 546 292.5 528.5 c 128,-1,11
 331 511 331 511 362 455 c 1,12,-1
 367 455 l 1,13,-1
 380 536 l 1,14,-1
 542 536 l 1,15,-1
 542 494 l 1,16,-1
 539 494 l 2,17,18
 506 494 506 494 481.5 482 c 128,-1,19
 457 470 457 470 457 426 c 2,20,-1
 457 114 l 2,21,22
 457 67 457 67 481 54.5 c 128,-1,23
 505 42 505 42 539 42 c 2,24,-1
 547 42 l 1,25,-1
 547 0 l 1,26,-1
 278 0 l 1,27,-1
 278 42 l 1,28,-1
 281 42 l 2,29,30
 314 42 314 42 338.5 53.5 c 128,-1,31
 363 65 363 65 363 109 c 2,32,-1
 363 320 l 2,33,34
 363 417.471698113 363 417.471698113 313.5 459.5 c 0,35,36
 287 482 287 482 234 482 c 0,37,38
 132 482 132 482 132 345 c 2,39,-1
 132 -9 l 2,40,41
 132 -143.133333333 132 -143.133333333 177.5 -176.5 c 0,42,43
 200 -193 200 -193 232 -193 c 2,44,-1
 238 -193 l 1,45,-1
 238 -240 l 1,0,-1
EndSplineSet
Validated: 19457
EndChar

StartChar: u1DF08
Encoding: 378 122632 117
Width: 471
Flags: W
HStem: -240 53<376.672 491.872> -10 66<120.713 203.019> 718 42<149 246.343>
VStem: 259 94<-162.243 96.761 131.887 704.936>
LayerCount: 2
Fore
SplineSet
128 -10 m 0,0,1
 15 -10 15 -10 15 63 c 0,2,3
 15 95 15 95 36.5 114.5 c 128,-1,4
 58 134 58 134 108 134 c 1,5,6
 108 93 108 93 120 74.5 c 128,-1,7
 132 56 132 56 160.5 56 c 128,-1,8
 189 56 189 56 208 78 c 128,-1,9
 227 100 227 100 238 134 c 0,10,11
 259 198.909090909 259 198.909090909 259 270 c 2,12,-1
 259 651 l 2,13,14
 259 695 259 695 234.5 706.5 c 128,-1,15
 210 718 210 718 177 718 c 2,16,-1
 149 718 l 1,17,-1
 149 760 l 1,18,-1
 353 760 l 1,19,-1
 353 -88 l 2,20,21
 353 -139 353 -139 374 -163 c 128,-1,22
 395 -187 395 -187 425.333333333 -187 c 128,-1,23
 455.666666667 -187 455.666666667 -187 493 -180 c 1,24,-1
 493 -224 l 1,25,26
 458.333333333 -240 458.333333333 -240 393.166666667 -240 c 128,-1,27
 328 -240 328 -240 293.5 -205.5 c 128,-1,28
 259 -171 259 -171 259 -85 c 2,29,-1
 259 0 l 2,30,31
 259 27 259 27 265 99 c 1,32,-1
 260 99 l 1,33,34
 244 62 244 62 230 41 c 128,-1,35
 216 20 216 20 193.5 5 c 128,-1,36
 171 -10 171 -10 128 -10 c 0,0,1
EndSplineSet
Validated: 19457
EndChar

StartChar: u1DF09
Encoding: 379 122633 118
Width: 352
Flags: W
HStem: -240 53<212.672 327.877> 479 57<189 320> 479 40<19 83.2408> 684 76<201.673 297.552>
VStem: 95 94<-162.243 479>
LayerCount: 2
Fore
SplineSet
329 -224 m 1,0,1
 294.333333333 -240 294.333333333 -240 229.166666667 -240 c 128,-1,2
 164 -240 164 -240 129.5 -205.5 c 128,-1,3
 95 -171 95 -171 95 -85 c 2,4,-1
 95 479 l 1,5,-1
 19 479 l 1,6,-1
 19 519 l 1,7,8
 19 519 19 519 29 519 c 128,-1,9
 39 519 39 519 61.5 527 c 128,-1,10
 84 535 84 535 101 557 c 0,11,12
 130 595 130 595 140 650.5 c 128,-1,13
 150 706 150 706 176 733 c 128,-1,14
 202 760 202 760 238.5 760 c 128,-1,15
 275 760 275 760 295.5 746 c 128,-1,16
 316 732 316 732 316 707.5 c 128,-1,17
 316 683 316 683 301 668 c 1,18,19
 277 684 277 684 250.5 684 c 0,20,21
 189 684 189 684 189 612 c 2,22,-1
 189 536 l 1,23,-1
 320 536 l 1,24,-1
 320 479 l 1,25,-1
 189 479 l 1,26,-1
 189 -88 l 2,27,28
 189 -139 189 -139 210 -163 c 128,-1,29
 231 -187 231 -187 261.5 -187 c 128,-1,30
 292 -187 292 -187 329 -180 c 1,31,-1
 329 -224 l 1,0,1
EndSplineSet
Validated: 19457
EndChar

StartChar: u1DF0A
Encoding: 380 122634 119
Width: 333
Flags: W
HStem: -240 53<176.435 291.874> -7 136<153.469 209.92>
VStem: 103 50<-162.243 -6> 139 54<201 316.839>
LayerCount: 2
Fore
SplineSet
139 201 m 1,0,-1
 108 714 l 1,1,-1
 224 714 l 1,2,-1
 193 201 l 1,3,-1
 139 201 l 1,0,-1
293 -224 m 1,4,5
 258.333333333 -240 258.333333333 -240 206.666666667 -240 c 128,-1,6
 155 -240 155 -240 129 -196 c 128,-1,7
 103 -152 103 -152 103 -85 c 2,8,-1
 103 61 l 2,9,10
 103 100 103 100 121.5 114.5 c 128,-1,11
 140 129 140 129 166 129 c 128,-1,12
 192 129 192 129 210.5 114.5 c 128,-1,13
 229 100 229 100 229 61.5 c 128,-1,14
 229 23 229 23 210.5 8 c 128,-1,15
 192 -7 192 -7 166 -7 c 0,16,17
 159 -7 159 -7 153 -6 c 1,18,-1
 153 -88 l 2,19,20
 153 -139 153 -139 174 -163 c 128,-1,21
 195 -187 195 -187 225.333333333 -187 c 128,-1,22
 255.666666667 -187 255.666666667 -187 293 -180 c 1,23,-1
 293 -224 l 1,4,5
EndSplineSet
Validated: 19457
EndChar

StartChar: u1DF0B
Encoding: 381 122635 120
Width: 334
Flags: W
HStem: -240 50<18.1312 93.8669> 188 45<5 120 214 332> 339 45<5 120 214 332> 719 46<228.796 310.073>
VStem: -73 77<-166.79 -115.111> 120 94<-147.768 188 233 339 384 684.245> 327 77<645.502 704.561>
LayerCount: 2
Fore
SplineSet
5 188 m 1,0,-1
 5 233 l 1,1,-1
 120 233 l 1,2,-1
 120 339 l 1,3,-1
 5 339 l 1,4,-1
 5 384 l 1,5,-1
 120 384 l 1,6,-1
 120 565 l 2,7,8
 120 667 120 667 161 716 c 128,-1,9
 202 765 202 765 287 765 c 0,10,11
 346 765 346 765 375 741 c 128,-1,12
 404 717 404 717 404 686 c 0,13,14
 404 661 404 661 385.5 645 c 128,-1,15
 367 629 367 629 327 629 c 1,16,17
 327 649 327 649 323 670 c 128,-1,18
 319 691 319 691 307.5 705 c 128,-1,19
 296 719 296 719 275 719 c 0,20,21
 239 719 239 719 226.5 694.5 c 128,-1,22
 214 670 214 670 214 607 c 2,23,-1
 214 384 l 1,24,-1
 332 384 l 1,25,-1
 332 339 l 1,26,-1
 214 339 l 1,27,-1
 214 233 l 1,28,-1
 332 233 l 1,29,-1
 332 188 l 1,30,-1
 214 188 l 1,31,-1
 214 -8 l 2,32,33
 214 -132 214 -132 171 -186 c 128,-1,34
 128 -240 128 -240 57 -240 c 0,35,36
 -7 -240 -7 -240 -40 -217.5 c 128,-1,37
 -73 -195 -73 -195 -73 -161 c 0,38,39
 -73 -134 -73 -134 -54.5 -114.5 c 128,-1,40
 -36 -95 -36 -95 4 -94 c 1,41,42
 4 -145 4 -145 17.5 -167.5 c 128,-1,43
 31 -190 31 -190 56 -190 c 0,44,45
 77 -190 77 -190 91.5 -175.5 c 128,-1,46
 106 -161 106 -161 113 -122 c 128,-1,47
 120 -83 120 -83 120 -9 c 2,48,-1
 120 188 l 1,49,-1
 5 188 l 1,0,-1
EndSplineSet
EndChar

